<?xml version="1.0" encoding="utf-8"?>
<!-- Generator: Adobe Illustrator 16.0.0, SVG Export Plug-In . SVG Version: 6.00 Build 0)  -->
<!DOCTYPE svg PUBLIC "-//W3C//DTD SVG 1.1//EN" "http://www.w3.org/Graphics/SVG/1.1/DTD/svg11.dtd">
<svg version="1.1" id="Default" xmlns="http://www.w3.org/2000/svg" xmlns:xlink="http://www.w3.org/1999/xlink" x="0px" y="0px"
	 width="360px" height="180px" viewBox="0 0 360 180" enable-background="new 0 0 360 180" xml:space="preserve">
<polygon fill="none" stroke="#000000" stroke-linecap="round" stroke-linejoin="round" points="325.27,139.14 316.617,154.144 
	333.938,154.135 "/>
<polygon fill="none" stroke="#000000" stroke-linecap="round" stroke-linejoin="round" points="333.938,154.135 325.27,139.14 
	342.59,139.131 "/>
<polygon fill="none" stroke="#000000" stroke-linecap="round" stroke-linejoin="round" points="342.605,169.131 333.938,154.135 
	351.258,154.126 "/>
<polygon fill="none" stroke="#000000" stroke-linecap="round" stroke-linejoin="round" points="325.285,169.14 316.617,154.144 
	333.938,154.135 "/>
<polygon fill="none" stroke="#000000" stroke-linecap="round" stroke-linejoin="round" points="348.346,136.7 339.694,151.705 
	357.014,151.696 "/>
<polygon fill="none" stroke="#000000" stroke-linecap="round" stroke-linejoin="round" points="333.882,155.202 325.23,170.207 
	342.55,170.198 "/>
<polygon fill="none" stroke="#000000" stroke-linecap="round" stroke-linejoin="round" points="238.686,27.969 230.018,12.974 
	247.338,12.965 "/>
<polygon fill="none" stroke="#000000" stroke-linecap="round" stroke-linejoin="round" points="227.52,24.078 218.867,39.083 
	236.188,39.074 "/>
<polygon fill="none" stroke="#000000" stroke-linecap="round" stroke-linejoin="round" points="26.344,126.635 17.691,141.64 
	35.012,141.631 "/>
<polygon fill="none" stroke="#000000" stroke-linecap="round" stroke-linejoin="round" points="63.575,146.866 54.907,131.871 
	72.228,131.862 "/>
<polygon fill="none" stroke="#000000" stroke-linecap="round" stroke-linejoin="round" points="56.12,144.335 47.468,159.339 
	64.788,159.331 "/>
<polygon fill="none" stroke="#000000" stroke-linecap="round" stroke-linejoin="round" points="203.755,95.818 195.103,110.822 
	212.423,110.813 "/>
<polygon fill="none" stroke="#000000" stroke-linecap="round" stroke-linejoin="round" points="193.146,111.34 184.478,96.344 
	201.798,96.335 "/>
<polygon fill="none" stroke="#000000" stroke-linecap="round" stroke-linejoin="round" points="193.136,81.084 184.483,96.088 
	201.804,96.08 "/>
<polygon fill="none" stroke="#000000" stroke-linecap="round" stroke-linejoin="round" points="203.083,96.08 194.415,81.084 
	211.736,81.075 "/>
<polygon fill="none" stroke="#000000" stroke-linecap="round" stroke-linejoin="round" points="202.94,64.8 194.287,79.805 
	211.608,79.796 "/>
<polygon fill="none" stroke="#000000" stroke-linecap="round" stroke-linejoin="round" points="214.422,80.947 205.77,95.952 
	223.09,95.943 "/>
<polygon fill="none" stroke="#000000" stroke-linecap="round" stroke-linejoin="round" points="215.972,111.459 207.305,96.463 
	224.625,96.455 "/>
<polygon fill="none" stroke="#000000" stroke-linecap="round" stroke-linejoin="round" points="291.823,87.268 283.17,102.272 
	300.491,102.264 "/>
<polygon fill="none" stroke="#000000" stroke-linecap="round" stroke-linejoin="round" points="285.63,124.441 294.283,109.437 
	276.962,109.445 "/>
<polygon fill="none" stroke="#000000" stroke-linecap="round" stroke-linejoin="round" points="338.806,103.057 330.138,88.062 
	347.459,88.052 "/>
<polygon fill="none" stroke="#000000" stroke-linecap="round" stroke-linejoin="round" points="283.021,65.175 274.354,50.179 
	291.674,50.17 "/>
<polygon fill="none" stroke="#000000" stroke-linecap="round" stroke-linejoin="round" points="271.805,51.434 263.152,66.438 
	280.473,66.429 "/>
<polygon fill="none" stroke="#000000" stroke-linecap="round" stroke-linejoin="round" points="273.184,83.483 264.516,68.488 
	281.836,68.479 "/>
<polygon fill="none" stroke="#000000" stroke-linecap="round" stroke-linejoin="round" points="327.34,52.496 318.688,67.5 
	336.008,67.491 "/>
<polygon fill="none" stroke="#000000" stroke-linecap="round" stroke-linejoin="round" points="310.02,52.505 301.367,67.509 
	318.688,67.5 "/>
<polygon fill="none" stroke="#000000" stroke-linecap="round" stroke-linejoin="round" points="292.699,52.514 284.046,67.518 
	301.367,67.509 "/>
<polygon fill="none" stroke="#000000" stroke-linecap="round" stroke-linejoin="round" points="318.688,67.5 310.02,52.505 
	327.34,52.496 "/>
<polygon fill="none" stroke="#000000" stroke-linecap="round" stroke-linejoin="round" points="301.367,67.509 292.699,52.514 
	310.02,52.505 "/>
<polygon fill="none" stroke="#000000" stroke-linecap="round" stroke-linejoin="round" points="336.008,67.491 327.355,82.496 
	344.676,82.487 "/>
<polygon fill="none" stroke="#000000" stroke-linecap="round" stroke-linejoin="round" points="318.688,67.5 310.035,82.505 
	327.355,82.496 "/>
<polygon fill="none" stroke="#000000" stroke-linecap="round" stroke-linejoin="round" points="301.367,67.509 292.714,82.514 
	310.035,82.505 "/>
<polygon fill="none" stroke="#000000" stroke-linecap="round" stroke-linejoin="round" points="284.046,67.518 275.394,82.522 
	292.714,82.514 "/>
<polygon fill="none" stroke="#000000" stroke-linecap="round" stroke-linejoin="round" points="327.355,82.496 318.688,67.5 
	336.008,67.491 "/>
<polygon fill="none" stroke="#000000" stroke-linecap="round" stroke-linejoin="round" points="310.035,82.505 301.367,67.509 
	318.688,67.5 "/>
<polygon fill="none" stroke="#000000" stroke-linecap="round" stroke-linejoin="round" points="292.714,82.514 284.046,67.518 
	301.367,67.509 "/>
<polygon fill="none" stroke="#000000" stroke-linecap="round" stroke-linejoin="round" points="284.062,97.518 275.394,82.522 
	292.714,82.514 "/>
<polygon fill="none" stroke="#000000" stroke-linecap="round" stroke-linejoin="round" points="301.382,97.509 292.714,82.514 
	310.035,82.505 "/>
<polygon fill="none" stroke="#000000" stroke-linecap="round" stroke-linejoin="round" points="318.703,97.5 310.035,82.505 
	327.355,82.496 "/>
<polygon fill="none" stroke="#000000" stroke-linecap="round" stroke-linejoin="round" points="310.035,82.505 301.382,97.509 
	318.703,97.5 "/>
<polygon fill="none" stroke="#000000" stroke-linecap="round" stroke-linejoin="round" points="297.931,120.443 306.599,135.439 
	289.278,135.448 "/>
<polygon fill="none" stroke="#000000" stroke-linecap="round" stroke-linejoin="round" points="228.877,116.28 237.545,131.276 
	220.225,131.285 "/>
<polygon fill="none" stroke="#000000" stroke-linecap="round" stroke-linejoin="round" points="243.051,128.851 251.703,113.847 
	234.383,113.856 "/>
<polygon fill="none" stroke="#000000" stroke-linecap="round" stroke-linejoin="round" points="264.466,126.602 273.119,111.597 
	255.798,111.606 "/>
<polygon fill="none" stroke="#000000" stroke-linecap="round" stroke-linejoin="round" points="275.773,115.031 284.441,130.026 
	267.121,130.035 "/>
<polygon fill="none" stroke="#000000" stroke-linecap="round" stroke-linejoin="round" points="252.458,126.042 261.126,141.038 
	243.806,141.047 "/>
<polygon fill="none" stroke="#000000" stroke-linecap="round" stroke-linejoin="round" points="140.277,78.24 131.609,63.244 
	148.93,63.235 "/>
<polygon fill="none" stroke="#000000" stroke-linecap="round" stroke-linejoin="round" points="157.597,76.965 148.929,61.97 
	166.25,61.961 "/>
<polygon fill="none" stroke="#000000" stroke-linecap="round" stroke-linejoin="round" points="174.919,78.765 166.25,63.769 
	183.571,63.76 "/>
<polygon fill="none" stroke="#000000" stroke-linecap="round" stroke-linejoin="round" points="119.887,48.785 111.234,63.79 
	128.555,63.781 "/>
<polygon fill="none" stroke="#000000" stroke-linecap="round" stroke-linejoin="round" points="138.329,45.702 129.676,60.706 
	146.996,60.697 "/>
<polygon fill="none" stroke="#000000" stroke-linecap="round" stroke-linejoin="round" points="157.132,43.884 148.479,58.888 
	165.8,58.879 "/>
<polygon fill="none" stroke="#000000" stroke-linecap="round" stroke-linejoin="round" points="177.385,46.586 168.732,61.59 
	186.053,61.582 "/>
<polygon fill="none" stroke="#000000" stroke-linecap="round" stroke-linejoin="round" points="146.012,51.838 137.344,36.842 
	154.665,36.833 "/>
<polygon fill="none" stroke="#000000" stroke-linecap="round" stroke-linejoin="round" points="168.614,52.549 159.946,37.554 
	177.267,37.545 "/>
<polygon fill="none" stroke="#000000" stroke-linecap="round" stroke-linejoin="round" points="128.837,56.367 120.169,41.372 
	137.489,41.363 "/>
<polygon fill="none" stroke="#000000" stroke-linecap="round" stroke-linejoin="round" points="108.409,63.791 99.741,48.795 
	117.061,48.787 "/>
<polygon fill="none" stroke="#000000" stroke-linecap="round" stroke-linejoin="round" points="109.932,29.805 101.28,44.809 
	118.6,44.8 "/>
<polygon fill="none" stroke="#000000" stroke-linecap="round" stroke-linejoin="round" points="124.393,20.214 115.74,35.218 
	133.061,35.209 "/>
<polygon fill="none" stroke="#000000" stroke-linecap="round" stroke-linejoin="round" points="171.945,16.935 163.292,31.939 
	180.613,31.93 "/>
<polygon fill="none" stroke="#000000" stroke-linecap="round" stroke-linejoin="round" points="157.63,141.486 148.962,126.49 
	166.283,126.481 "/>
<polygon fill="none" stroke="#000000" stroke-linecap="round" stroke-linejoin="round" points="192.24,80.202 183.572,65.207 
	200.893,65.198 "/>
<polygon fill="none" stroke="#000000" stroke-linecap="round" stroke-linejoin="round" points="157.615,111.486 148.947,96.49 
	166.268,96.481 "/>
<polygon fill="none" stroke="#000000" stroke-linecap="round" stroke-linejoin="round" points="157.6,81.486 148.947,96.49 
	166.268,96.481 "/>
<polygon fill="none" stroke="#000000" stroke-linecap="round" stroke-linejoin="round" points="140.279,81.495 131.626,96.499 
	148.947,96.49 "/>
<polygon fill="none" stroke="#000000" stroke-linecap="round" stroke-linejoin="round" points="166.268,96.481 157.6,81.486 
	174.92,81.477 "/>
<polygon fill="none" stroke="#000000" stroke-linecap="round" stroke-linejoin="round" points="148.947,96.49 140.279,81.495 
	157.6,81.486 "/>
<polygon fill="none" stroke="#000000" stroke-linecap="round" stroke-linejoin="round" points="131.626,96.499 122.958,81.503 
	140.279,81.495 "/>
<polygon fill="none" stroke="#000000" stroke-linecap="round" stroke-linejoin="round" points="148.932,66.49 140.279,81.495 
	157.6,81.486 "/>
<polygon fill="none" stroke="#000000" stroke-linecap="round" stroke-linejoin="round" points="166.252,66.481 157.6,81.486 
	174.92,81.477 "/>
<polygon fill="none" stroke="#000000" stroke-linecap="round" stroke-linejoin="round" points="140.294,111.495 131.626,96.499 
	148.947,96.49 "/>
<polygon fill="none" stroke="#000000" stroke-linecap="round" stroke-linejoin="round" points="148.947,96.49 140.294,111.495 
	157.615,111.486 "/>
<polygon fill="none" stroke="#000000" stroke-linecap="round" stroke-linejoin="round" points="183.573,66.472 174.92,81.477 
	192.241,81.468 "/>
<polygon fill="none" stroke="#000000" stroke-linecap="round" stroke-linejoin="round" points="174.92,81.477 166.268,96.481 
	183.588,96.472 "/>
<polygon fill="none" stroke="#000000" stroke-linecap="round" stroke-linejoin="round" points="183.588,96.472 174.92,81.477 
	192.241,81.468 "/>
<polygon fill="none" stroke="#000000" stroke-linecap="round" stroke-linejoin="round" points="183.588,96.472 174.936,111.477 
	192.256,111.468 "/>
<polygon fill="none" stroke="#000000" stroke-linecap="round" stroke-linejoin="round" points="166.268,96.481 157.615,111.486 
	174.936,111.477 "/>
<polygon fill="none" stroke="#000000" stroke-linecap="round" stroke-linejoin="round" points="174.936,111.477 166.268,96.481 
	183.588,96.472 "/>
<polygon fill="none" stroke="#000000" stroke-linecap="round" stroke-linejoin="round" points="166.283,126.481 157.615,111.486 
	174.936,111.477 "/>
<polygon fill="none" stroke="#000000" stroke-linecap="round" stroke-linejoin="round" points="183.604,126.472 174.936,111.477 
	192.256,111.468 "/>
<polygon fill="none" stroke="#000000" stroke-linecap="round" stroke-linejoin="round" points="200.924,126.463 192.256,111.468 
	209.577,111.459 "/>
<polygon fill="none" stroke="#000000" stroke-linecap="round" stroke-linejoin="round" points="174.936,111.477 166.283,126.481 
	183.604,126.472 "/>
<polygon fill="none" stroke="#000000" stroke-linecap="round" stroke-linejoin="round" points="192.256,111.468 183.604,126.472 
	200.924,126.463 "/>
<polygon fill="none" stroke="#000000" stroke-linecap="round" stroke-linejoin="round" points="209.577,111.459 200.924,126.463 
	218.245,126.455 "/>
<polygon fill="none" stroke="#000000" stroke-linecap="round" stroke-linejoin="round" points="122.028,114.593 113.375,129.597 
	130.696,129.588 "/>
<polygon fill="none" stroke="#000000" stroke-linecap="round" stroke-linejoin="round" points="110.901,96.319 102.249,111.323 
	119.569,111.314 "/>
<polygon fill="none" stroke="#000000" stroke-linecap="round" stroke-linejoin="round" points="122.028,111.44 113.36,96.445 
	130.681,96.436 "/>
<polygon fill="none" stroke="#000000" stroke-linecap="round" stroke-linejoin="round" points="131.185,96.688 122.533,111.692 
	139.853,111.684 "/>
<polygon fill="none" stroke="#000000" stroke-linecap="round" stroke-linejoin="round" points="131.077,127.307 122.409,112.311 
	139.729,112.302 "/>
<polygon fill="none" stroke="#000000" stroke-linecap="round" stroke-linejoin="round" points="139.853,113.461 131.2,128.465 
	148.521,128.457 "/>
<polygon fill="none" stroke="#000000" stroke-linecap="round" stroke-linejoin="round" points="148.506,126.88 139.838,111.885 
	157.159,111.876 "/>
<polygon fill="none" stroke="#000000" stroke-linecap="round" stroke-linejoin="round" points="109.215,129.389 100.547,114.393 
	117.868,114.384 "/>
<polygon fill="none" stroke="#000000" stroke-linecap="round" stroke-linejoin="round" points="128.344,65.25 119.691,80.254 
	137.012,80.245 "/>
<polygon fill="none" stroke="#000000" stroke-linecap="round" stroke-linejoin="round" points="183.422,130.631 174.77,145.636 
	192.091,145.626 "/>
<polygon fill="none" stroke="#000000" stroke-linecap="round" stroke-linejoin="round" points="201.828,131.526 193.175,146.531 
	210.496,146.521 "/>
<polygon fill="none" stroke="#000000" stroke-linecap="round" stroke-linejoin="round" points="192.633,142.914 183.965,127.919 
	201.286,127.91 "/>
<polygon fill="none" stroke="#000000" stroke-linecap="round" stroke-linejoin="round" points="211.4,143.448 202.732,128.452 
	220.053,128.443 "/>
<polygon fill="none" stroke="#000000" stroke-linecap="round" stroke-linejoin="round" points="165.741,132.086 157.088,147.091 
	174.409,147.082 "/>
<polygon fill="none" stroke="#000000" stroke-linecap="round" stroke-linejoin="round" points="174.409,143.285 165.741,128.289 
	183.061,128.28 "/>
<polygon fill="none" stroke="#000000" stroke-linecap="round" stroke-linejoin="round" points="148.258,15.32 139.605,30.324 
	156.926,30.315 "/>
<polygon fill="none" stroke="#000000" stroke-linecap="round" stroke-linejoin="round" points="95.79,146.361 87.138,161.366 
	104.458,161.357 "/>
<polygon fill="none" stroke="#000000" stroke-linecap="round" stroke-linejoin="round" points="77.718,146.995 69.065,161.999 
	86.386,161.99 "/>
<polygon fill="none" stroke="#000000" stroke-linecap="round" stroke-linejoin="round" points="113.665,166.075 122.317,151.071 
	104.997,151.08 "/>
<polygon fill="none" stroke="#000000" stroke-linecap="round" stroke-linejoin="round" points="130.691,145.302 122.039,160.307 
	139.359,160.298 "/>
<polygon fill="none" stroke="#000000" stroke-linecap="round" stroke-linejoin="round" points="138.146,147.833 129.479,132.838 
	146.799,132.829 "/>
<polygon fill="none" stroke="#000000" stroke-linecap="round" stroke-linejoin="round" points="121.11,149.606 112.442,134.611 
	129.763,134.602 "/>
<polygon fill="none" stroke="#000000" stroke-linecap="round" stroke-linejoin="round" points="85.173,149.525 76.505,134.53 
	93.825,134.521 "/>
<polygon fill="none" stroke="#000000" stroke-linecap="round" stroke-linejoin="round" points="103.245,148.893 94.577,133.897 
	111.897,133.888 "/>
<polygon fill="none" stroke="#000000" stroke-linecap="round" stroke-linejoin="round" points="48.4,107.75 39.732,92.755 
	57.052,92.746 "/>
<polygon fill="none" stroke="#000000" stroke-linecap="round" stroke-linejoin="round" points="59.733,31.117 51.081,46.122 
	68.401,46.113 "/>
<polygon fill="none" stroke="#000000" stroke-linecap="round" stroke-linejoin="round" points="48.369,47.75 39.701,32.755 
	57.021,32.746 "/>
<polygon fill="none" stroke="#000000" stroke-linecap="round" stroke-linejoin="round" points="48.369,47.75 39.716,62.755 
	57.037,62.746 "/>
<polygon fill="none" stroke="#000000" stroke-linecap="round" stroke-linejoin="round" points="57.037,62.746 48.369,47.75 
	65.689,47.742 "/>
<polygon fill="none" stroke="#000000" stroke-linecap="round" stroke-linejoin="round" points="39.716,62.755 31.048,47.759 
	48.369,47.75 "/>
<polygon fill="none" stroke="#000000" stroke-linecap="round" stroke-linejoin="round" points="39.732,92.755 31.064,77.759 
	48.384,77.75 "/>
<polygon fill="none" stroke="#000000" stroke-linecap="round" stroke-linejoin="round" points="31.064,77.759 22.411,92.764 
	39.732,92.755 "/>
<polygon fill="none" stroke="#000000" stroke-linecap="round" stroke-linejoin="round" points="39.551,96.552 30.898,111.557 
	48.219,111.547 "/>
<polygon fill="none" stroke="#000000" stroke-linecap="round" stroke-linejoin="round" points="29.995,109.929 21.326,94.934 
	38.647,94.925 "/>
<polygon fill="none" stroke="#000000" stroke-linecap="round" stroke-linejoin="round" points="57.037,62.746 48.384,77.75 
	65.705,77.742 "/>
<polygon fill="none" stroke="#000000" stroke-linecap="round" stroke-linejoin="round" points="37.016,31.333 28.364,46.338 
	45.684,46.329 "/>
<polygon fill="none" stroke="#000000" stroke-linecap="round" stroke-linejoin="round" points="88.938,87.382 80.27,72.387 
	97.59,72.378 "/>
</svg>
