<?xml version="1.0" encoding="utf-8"?>
<!-- Generator: Adobe Illustrator 16.0.0, SVG Export Plug-In . SVG Version: 6.00 Build 0)  -->
<!DOCTYPE svg PUBLIC "-//W3C//DTD SVG 1.1//EN" "http://www.w3.org/Graphics/SVG/1.1/DTD/svg11.dtd">
<svg version="1.1" xmlns="http://www.w3.org/2000/svg" xmlns:xlink="http://www.w3.org/1999/xlink" x="0px" y="0px" width="400px"
	 height="400px" viewBox="0 0 400 400" enable-background="new 0 0 400 400" xml:space="preserve">
<g id="fill">
	<g>
		<g>
			<path fill="#0F3955" d="M46.245,320.929C19.294,287.253,3.178,244.53,3.178,198.043C3.178,89.341,91.298,1.221,200,1.221
				c108.701,0,196.821,88.12,196.821,196.822c0,46.417-16.068,89.083-42.946,122.736 M46.245,320.927
				C72,322.554,73.45,340.028,98.791,340.028c24.765,0,25.743-19.246,53.761-19.246c23.628,0,30.174,19.246,50.409,19.246
				c21.329,0,28.664-19.246,50.307-19.246c20.672,0,27.257,19.246,49.339,19.246c24.887,0,26.755-18.574,51.269-19.252"/>
		</g>
	</g>
</g>
<g id="Layer_1">
</g>
<g id="members">
</g>
<g id="bolts">
</g>
<g id="draw">
</g>
<g id="Default">
	<path fill="#FFFFFF" d="M235.987,155.061C75.121,190.707,69.483,331.043,69.483,331.043s-7.304-2.509-14.318-5.823
		c-7.014-3.314-15.015-5.602-15.015-5.602S67.809,172.816,235.987,155.061"/>
</g>
<g id="cut">
</g>
<g id="favIcon">
</g>
<g id="_x31_31207_x5F_thank_x5F_you_x5F_note">
</g>
<g id="_x31_40227_x5F_banner">
</g>
</svg>
