<?xml version="1.0" encoding="utf-8"?>
<!-- Generator: Adobe Illustrator 16.0.4, SVG Export Plug-In . SVG Version: 6.00 Build 0)  -->
<!DOCTYPE svg PUBLIC "-//W3C//DTD SVG 1.1//EN" "http://www.w3.org/Graphics/SVG/1.1/DTD/svg11.dtd">
<svg version="1.1" xmlns="http://www.w3.org/2000/svg" xmlns:xlink="http://www.w3.org/1999/xlink" x="0px" y="0px" width="400px"
	 height="400px" viewBox="0 0 400 400" enable-background="new 0 0 400 400" xml:space="preserve">
<g id="fill">
	<circle fill="#0F3955" cx="200" cy="199.535" r="198.654"/>
</g>
<g id="Layer_1">
	
		<path fill="none" stroke="#FFFFFF" stroke-width="5.2735" stroke-linecap="round" stroke-linejoin="round" stroke-miterlimit="10" d="
		M189.841,135.984c1.665-3.597,3.241-3.299,5.178-5.311"/>
	
		<path fill="none" stroke="#FFFFFF" stroke-width="5.2735" stroke-linecap="round" stroke-linejoin="round" stroke-miterlimit="10" d="
		M231.465,122.969c25.371-0.133,41.977,5.869,49.73,9.812c7.756,3.942,17.482,12.882,21.689,17.743
		c4.203,4.867,4.73,6.574,7.756,11.175c3.021,4.601,16.3,31.022,18.4,35.622c2.104,4.602,16.037,31.021,16.957,33.125
		s2.367,2.233,2.762,0c0.393-2.234-5.389-19.061-6.835-23.137c-1.446-4.072-8.152-18.402-10.518-23.133
		c-2.366-4.731-6.569-14.592-8.676-18.404c-2.103-3.811-6.177-9.596-7.887-12.355c-1.712-2.76-11.438-11.699-14.856-14.983
		c-3.418-3.288-12.62-10.649-16.824-11.964c-4.209-1.315-5.52-0.527-9.334-1.315c-3.811-0.787-9.727-2.366-12.748-3.024
		c-3.025-0.656-4.076-0.261-8.283-1.05s-13.277-3.811-15.643-4.865c-2.364-1.05-13.012-7.36-16.693-7.754
		c-3.68-0.394-10.384,1.313-14.197,1.052c-3.811-0.263-7.888-1.841-10.385-3.023c-2.496-1.182-16.563-4.336-18.535-4.73
		c-1.971-0.395-5.125,0-6.309,0s-3.812,0.264-7.229,1.314c-3.418,1.051-12.356,0.919-15.645,1.182
		c-3.285,0.264-27.077,4.997-28.916,5.258c-1.842,0.264-5.127,0.922-6.572,2.234c-1.446,1.314-3.68,4.076-5.391,6.705
		c-1.708,2.63-8.28,11.043-10.516,14.066c-2.234,3.021-7.36,13.012-7.36,13.012s-6.746,12.838-7.973,16.871
		c-1.228,4.031-3.157,9.64-2.982,11.566c0.177,1.929,1.577,1.402,3.069-0.613c1.49-2.016,2.363-4.383,3.242-4.469
		c0.877-0.086,3.592-1.666,4.994-7.187c0,0,0.527,1.579,2.191,0.528c1.664-1.053,7.668-9.182,7.535-12.271
		c0,0,1.819,0.375,3.528-1.664c2.538-3.027,5.497-7.797,5.497-10.777c0,0-0.087,0.7,1.928-0.878
		c2.016-1.576,3.418-3.242,3.769-5.431c0,0,6.222-4.537,6.046-7.801c0,0,2.979-3.855,7.625-4.557
		c4.645-0.702,7.537-2.893,10.69-3.77c3.155-0.875,25.239-4.994,27.692-5.52c2.453-0.528,9.288-2.367,12.441-1.93
		c3.155,0.439,7.539,2.104,10.867,3.418c3.33,1.314,7.098,1.227,9.815,4.555"/>
	
		<path fill="none" stroke="#FFFFFF" stroke-width="5.2735" stroke-linecap="round" stroke-linejoin="round" stroke-miterlimit="10" d="
		M261.918,127.085c0.569,0.308,5.782,1.36,4.336,2.323c-1.444,0.965-0.393,1.666-0.393,1.666c0.263,1.578-7.934,0.613-9.859,2.499
		c-1.929,1.885-4.075,0.92-7.844,3.329c-3.769,2.41-12.795,2.455-16.43,3.727c-3.637,1.269-11.175,0.086-14.459-0.615
		c-3.287-0.701-8.371-1.752-12.839-5.783c-4.47-4.032-7.756-1.684-9.202-0.807c-1.446,0.878-5.564,4.573-5.564,4.573
		c-3.243-7.579,1.273-7.36,3.461-9.289c2.19-1.928,1.183-2.628,1.84-3.111c0.657-0.479,1.229-2.146,0.791-3.112
		c-0.44-0.965-0.484-2.848,0.48-4.337c0.963-1.488,6.266-3.724,9.223-3.155"/>
	<path fill="#FFFFFF" d="M204.83,120.698c-0.988,0-1.607,0.566-2.089,1.931c-0.607,1.727,0.758,2.486,2.081,3.191
		c0.262,0.143,0.549,0.209,0.837,0.209c1.132,0,2.318-1.01,2.605-2.182c0.351-1.473-0.657-2.592-2.584-3.041
		C205.367,120.735,205.086,120.698,204.83,120.698L204.83,120.698z"/>
</g>
<g id="members">
</g>
<g id="bolts">
</g>
<g id="draw">
</g>
<g id="Default">
</g>
<g id="cut">
</g>
<g id="favIcon">
</g>
<g id="_x31_31207_x5F_thank_x5F_you_x5F_note">
</g>
<g id="_x31_40227_x5F_banner">
</g>
</svg>
