<?xml version="1.0" encoding="utf-8"?>
<!-- Generator: Adobe Illustrator 18.0.0, SVG Export Plug-In . SVG Version: 6.00 Build 0)  -->
<!DOCTYPE svg PUBLIC "-//W3C//DTD SVG 1.1//EN" "http://www.w3.org/Graphics/SVG/1.1/DTD/svg11.dtd">
<svg version="1.1" xmlns="http://www.w3.org/2000/svg" xmlns:xlink="http://www.w3.org/1999/xlink" x="0px" y="0px"
	 viewBox="0 0 400 400" enable-background="new 0 0 400 400" xml:space="preserve">
<g id="fill">
	<circle fill="#0F3955" cx="200" cy="200" r="199.221"/>
</g>
<g id="Layer_1">
</g>
<g id="members">
</g>
<g id="bolts">
</g>
<g id="draw">
</g>
<g id="Default">
	<path fill="#FFFFFF" stroke="#FFFFFF" stroke-width="1.6294" stroke-miterlimit="10" d="M276.465,263.994
		c-7.441-9.773-21.396-11.668-31.175-4.221c-9.775,7.441-11.668,21.4-4.225,31.174c7.442,9.775,21.4,11.666,31.176,4.224
		C282.021,287.725,283.909,273.77,276.465,263.994z"/>
	<path fill="#FFFFFF" stroke="#FFFFFF" stroke-width="1.6294" stroke-miterlimit="10" d="M158.494,109.052
		c-7.443-9.776-21.397-11.669-31.177-4.224c-9.775,7.443-11.668,21.401-4.224,31.177c7.443,9.776,21.402,11.669,31.179,4.226
		C164.052,132.785,165.939,118.829,158.494,109.052z"/>
	<polyline fill="none" stroke="#FFFFFF" stroke-width="6" stroke-linecap="round" stroke-linejoin="round" points="234.713,245.881 
		226.95,235.686 207.528,242.42 230.843,208.562 192.001,222.028 215.316,188.169 176.477,201.638 199.792,167.78 160.951,181.248 
		172.611,164.316 164.849,154.121 	"/>
</g>
<g id="cut">
</g>
<g id="favIcon">
</g>
<g id="_x31_31207_x5F_thank_x5F_you_x5F_note">
</g>
<g id="_x31_40227_x5F_banner">
</g>
</svg>
