<?xml version="1.0" encoding="utf-8"?>
<!-- Generator: Adobe Illustrator 16.0.4, SVG Export Plug-In . SVG Version: 6.00 Build 0)  -->
<!DOCTYPE svg PUBLIC "-//W3C//DTD SVG 1.1//EN" "http://www.w3.org/Graphics/SVG/1.1/DTD/svg11.dtd">
<svg version="1.1" xmlns="http://www.w3.org/2000/svg" xmlns:xlink="http://www.w3.org/1999/xlink" x="0px" y="0px" width="400px"
	 height="400px" viewBox="0 0 400 400" enable-background="new 0 0 400 400" xml:space="preserve">
<g id="fill">
	<path fill="#0F3955" d="M200.001,398.927c-54.089,0-106.13-22.244-143.529-61.19l26.826-27.219c0.08-0.083,0.159-0.17,0.233-0.256
		l37.434-43.782c0.17-0.198,0.326-0.411,0.461-0.636l32.352-53.011l13.01-4.883l46.074,2.878l11.43,4.356
		c0.562,0.215,1.157,0.323,1.756,0.323c0.23,0,0.459-0.016,0.689-0.049l11.979-1.695c1.394-0.198,2.638-0.982,3.415-2.157
		c0.779-1.176,1.015-2.627,0.651-3.989l-4.234-15.852c-0.312-1.174-1.049-2.191-2.066-2.854l-27.56-17.964l-15.774-13.9
		c-0.705-0.62-1.571-1.026-2.497-1.171l-12.086-1.882l-11.637-14.427c-0.958-1.187-2.378-1.833-3.835-1.833
		c-0.65,0-1.307,0.129-1.932,0.396c-2.025,0.865-3.232,2.973-2.951,5.159l1.426,11.034l-0.199,0.216l-9.905-6.521
		c-0.816-0.538-1.76-0.812-2.708-0.812c-0.646,0-1.297,0.128-1.911,0.386c-1.513,0.637-2.609,1.987-2.92,3.599l-2.924,15.051
		l-72.407,71.101L25.66,270.06l-9.408,6.294c-10.075-24.193-15.18-49.85-15.18-76.353C1.073,90.312,90.312,1.073,200.001,1.073
		c109.689,0,198.928,89.239,198.928,198.928C398.929,309.689,309.69,398.927,200.001,398.927z"/>
</g>
<g id="Layer_1">
</g>
<g id="members">
</g>
<g id="bolts">
</g>
<g id="draw">
	
		<polygon fill="none" stroke="#0F3955" stroke-width="3.7" stroke-linecap="round" stroke-linejoin="round" stroke-miterlimit="10" points="
		174.917,171.688 179.108,170.908 183.31,169.38 182.806,174.736 	"/>
</g>
<g id="Default">
</g>
<g id="cut">
</g>
<g id="favIcon">
</g>
<g id="_x31_31207_x5F_thank_x5F_you_x5F_note">
</g>
<g id="_x31_40227_x5F_banner">
</g>
</svg>
