<?xml version="1.0" encoding="utf-8"?>
<!-- Generator: Adobe Illustrator 16.0.0, SVG Export Plug-In . SVG Version: 6.00 Build 0)  -->
<!DOCTYPE svg PUBLIC "-//W3C//DTD SVG 1.1//EN" "http://www.w3.org/Graphics/SVG/1.1/DTD/svg11.dtd">
<svg version="1.1" xmlns="http://www.w3.org/2000/svg" xmlns:xlink="http://www.w3.org/1999/xlink" x="0px" y="0px" width="400px"
	 height="400px" viewBox="0 0 400 400" enable-background="new 0 0 400 400" xml:space="preserve">
<g id="fill">
	<path fill="#0F3955" d="M199.135,399.16C89.263,398.686,0.582,309.228,1.059,199.354C1.536,89.482,90.992,0.801,200.865,1.279
		c109.872,0.478,198.554,89.934,198.076,199.806C398.463,310.957,309.008,399.639,199.135,399.16z"/>
	<g>
		<rect x="124.062" y="233.479" fill="#FFFFFF" width="152.028" height="21.306"/>
		<rect x="124.062" y="189.956" fill="#FFFFFF" width="152.028" height="21.762"/>
		<rect x="161.499" y="146.433" fill="#FFFFFF" width="114.592" height="21.762"/>
		<path fill="#FFFFFF" d="M123.91,157.39c0-6.696,5.479-12.175,12.175-12.175c6.696,0,12.174,5.479,12.174,12.175
			s-5.479,12.175-12.174,12.175C129.388,169.564,123.91,164.086,123.91,157.39"/>
	</g>
</g>
<g id="Layer_1">
</g>
<g id="members">
</g>
<g id="bolts">
</g>
<g id="draw">
</g>
<g id="Default">
</g>
<g id="cut">
</g>
<g id="favIcon">
</g>
<g id="_x31_31207_x5F_thank_x5F_you_x5F_note">
</g>
<g id="_x31_40227_x5F_banner">
</g>
</svg>
