<svg version="1.1" id="trace" 
xmlns="http://www.w3.org/2000/svg" xmlns:xlink="http://www.w3.org/1999/xlink" 
viewBox="0 0 200 100" 
style="enable-background:new 0 0 200 100;" xml:space="preserve" >
	<polyline fill="none" stroke="black" stroke-linecap="round" stroke-linejoin="round" points = "-15.942076,31.260816 -13.569524,30.008955 -11.516497,28.785578 -9.741881,27.587720 -8.210519,26.416159 -6.893760,25.269037 -5.766628,24.144784 -4.806970,23.042009 -3.994827,21.959417 -3.311974,20.895753 -2.741579,19.849761 -2.267953,18.820160 -1.876363,17.805635 -1.552896,16.804836 -1.284376,15.815865 -1.058239,14.837594 -0.862514,13.869262 -0.685796,12.909581 -0.517202,11.957330 -0.346339,11.011217 -0.163290,10.070628 0.041395,9.134934 0.276702,8.203578 0.551160,7.276313 0.872833,6.353275 1.249304,5.435063 1.687649,4.522830 2.194398,3.618379 2.775392,2.725901 3.435845,1.848473 3.435845,1.848473 4.445253,0.638549 5.416402,-0.456373 6.349139,-1.453538 7.243094,-2.365793 8.097822,-3.204593 8.912577,-3.978839 9.686413,-4.696265 10.418152,-5.363443 11.106439,-5.986303 11.749790,-6.570401 12.346381,-7.119893 12.894278,-7.638858 13.391375,-8.130941 13.835398,-8.599392 14.223905,-9.047089 14.554295,-9.476546 14.823805,-9.889901 15.029791,-10.290104 15.169268,-10.678841 15.238912,-11.056543 15.235380,-11.423654 15.155917,-11.783186 14.997113,-12.135203 14.754982,-12.476875 14.427583,-12.814206 14.010380,-13.140649 13.501035,-13.458921 12.897127,-13.770545 12.195619,-14.072446 12.195619,-14.072446 11.354747,-14.369052 10.577709,-14.569725 9.857905,-14.681860 9.190155,-14.718244 8.568187,-14.679732 7.987765,-14.578984 7.443910,-14.419979 6.932041,-14.206867 6.447916,-13.944283 5.987394,-13.635658 5.546442,-13.283585 5.121123,-12.890061 4.707570,-12.456654 4.301958,-11.984625 3.900478,-11.475017 3.499306,-10.928726 3.094580,-10.346566 2.682372,-9.729313 2.258670,-9.077759 1.819360,-8.392755 1.360220,-7.675466 0.876889,-6.926620 0.364898,-6.147360 -0.180327,-5.339129 -0.763449,-4.503070 -1.389173,-3.641083 -2.062188,-2.754824 -2.787031,-1.845133 -3.567988,-0.913458 -3.567988,-0.913458 -4.187619,-0.235912 -4.835209,0.388040 -5.507870,0.959365 -6.202805,1.480579 -6.917340,1.955534 -7.648967,2.389217 -8.395358,2.787664 -9.154460,3.157352 -9.924521,3.505221 -10.704028,3.839033 -11.491863,4.166570 -12.287246,4.496041 -13.089698,4.836246 -13.899289,5.195659 -14.716546,5.583051 -15.542246,6.008288 -16.377827,6.481083 -17.225470,7.011200 -18.088163,7.608730 -18.969296,8.285641 -19.873521,9.054048 -20.806735,9.927217 -21.776383,10.919978 -22.792869,12.047367 -23.868412,13.329064 -25.018313,14.789175 -26.266854,16.450544 -27.640769,18.350986 -29.185071,20.528168 -29.185071,20.528168 -29.162162,20.518971 -29.094633,20.491466 -28.984349,20.445813 -28.833262,20.382210 -28.643397,20.300890 -28.416849,20.202122 -28.155768,20.086206 -27.862462,19.953330 -27.541814,19.800451 -27.193516,19.631114 -26.819811,19.445733 -26.422953,19.244745 -26.008498,19.024030 -25.575639,18.788069 -25.126405,18.537590 -24.665726,18.269004 -24.193882,17.985370 -23.712112,17.688476 -23.226008,17.373141 -22.734030,17.045355 -22.239801,16.702821 -21.745231,16.345842 -21.250973,15.976920 -20.760906,15.592599 -20.274135,15.198170 -19.795038,14.788749 -19.322635,14.369876 -18.860489,13.937784 -18.408370,13.496543 -18.408370,13.496543 -18.124514,13.216719 -17.851054,12.957352 -17.587325,12.718438 -17.333352,12.498502 -17.089655,12.294909 -16.855261,12.108817 -16.630111,11.939283 -16.414165,11.785399 -16.207858,11.645069 -16.010848,11.518317 -15.822977,11.404785 -15.644281,11.303674 -15.474811,11.214204 -15.314630,11.135615 -15.163886,11.066964 -15.022824,11.007059 -14.891290,10.955919 -14.769401,10.912830 -14.657283,10.877088 -14.555073,10.847994 -14.462914,10.824856 -14.380959,10.806987 -14.309368,10.793703 -14.248306,10.784322 -14.197944,10.778165 -14.158459,10.774555 -14.130028,10.772814 -14.112835,10.772265 -14.107063,10.772233 -14.107063,10.772233 -14.105808,10.777968 -14.102694,10.795183 -14.098695,10.823898 -14.094785,10.864142 -14.091941,10.915958 -14.091144,10.979397 -14.093377,11.054520 -14.099631,11.141401 -14.110907,11.240123 -14.128210,11.350781 -14.152562,11.473482 -14.184992,11.608344 -14.226621,11.755272 -14.278715,11.913794 -14.342115,12.084801 -14.417923,12.268458 -14.507263,12.464943 -14.611282,12.674448 -14.731294,12.896782 -14.868904,13.131043 -15.024871,13.378859 -15.200467,13.640481 -15.397099,13.915914 -15.616960,14.203245 -15.860604,14.505092 -16.129478,14.821775 -16.426290,15.150698 -16.751764,15.494424 -17.107437,15.853598 -17.107437,15.853598 -17.544700,16.291905 -17.958041,16.731156 -18.350055,17.166024 -18.719444,17.599507 -19.067588,18.028887 -19.395055,18.453163 -19.700993,18.873915 -19.988168,19.285954 -20.255157,19.691800 -20.502114,20.090922 -20.731916,20.478187 -20.942983,20.856076 -21.135643,21.223710 -21.311510,21.578170 -21.471533,21.917696 -21.614954,22.243161 -21.742463,22.553158 -21.854781,22.846265 -21.954398,23.118529 -22.040361,23.371116 -22.113346,23.602799 -22.174203,23.812159 -22.223814,23.997794 -22.263095,24.158333 -22.292990,24.292436 -22.314473,24.398809 -22.328542,24.476210 -22.336393,24.523219 -22.338819,24.539066 -22.338819,24.539066 -22.322093,24.536832 -22.272648,24.529356 -22.191755,24.515262 -22.080252,24.493825 -21.939193,24.464071 -21.769666,24.425041 -21.572794,24.375789 -21.349734,24.315388 -21.101683,24.242931 -20.829873,24.157535 -20.535571,24.058342 -20.221240,23.942744 -19.887802,23.810490 -19.535967,23.661800 -19.167123,23.495951 -18.782871,23.311957 -18.386484,23.105982 -17.977441,22.880685 -17.557218,22.635528 -17.128675,22.367410 -16.692841,22.076569 -16.250304,21.764312 -15.804085,21.427102 -15.354863,21.066128 -14.903621,20.682183 -14.453509,20.271057 -14.004032,19.837021 -13.558213,19.375921 -13.116243,18.890639 -13.116243,18.890639 -12.807710,18.548411 -12.503920,18.226210 -12.204662,17.924749 -11.910713,17.641946 -11.622642,17.376315 -11.340281,17.128848 -11.064071,16.898743 -10.794978,16.683396 -10.533022,16.483520 -10.278533,16.298900 -10.031993,16.128863 -9.794094,15.971962 -9.565328,15.827539 -9.345973,15.695916 -9.136553,15.576511 -8.937603,15.468756 -8.749669,15.372101 -8.573444,15.285376 -8.409416,15.208389 -8.258079,15.141019 -8.120022,15.082764 -7.995846,15.033130 -7.886161,14.991634 -7.791586,14.957798 -7.712752,14.931150 -7.650297,14.911223 -7.604869,14.897556 -7.577124,14.889689 -7.567727,14.887168 -7.567727,14.887168 -7.567198,14.895274 -7.566135,14.919378 -7.565326,14.959172 -7.565559,15.014365 -7.567628,15.084681 -7.572328,15.169860 -7.580463,15.269656 -7.592841,15.383837 -7.610281,15.512180 -7.633610,15.654475 -7.663669,15.810522 -7.701308,15.980130 -7.747600,16.162066 -7.803239,16.357119 -7.869121,16.565125 -7.946159,16.785924 -8.035284,17.019360 -8.137498,17.265055 -8.254061,17.521564 -8.385665,17.790183 -8.533330,18.070776 -8.698098,18.363209 -8.881538,18.665301 -9.084382,18.978548 -9.307680,19.303148 -9.552870,19.637933 -9.821444,19.981800 -10.114131,20.336538 -10.432532,20.700909 -10.432532,20.700909 -10.852617,21.180256 -11.252542,21.666515 -11.634308,22.153879 -11.996702,22.645946 -12.341280,23.138225 -12.667808,23.631102 -12.976323,24.123949 -13.268465,24.612254 -13.542917,25.098413 -13.800886,25.578791 -14.042904,26.051358 -14.268130,26.516799 -14.477700,26.971605 -14.672299,27.413262 -14.851019,27.842200 -15.014196,28.256334 -15.163747,28.650807 -15.298740,29.025864 -15.419240,29.379863 -15.525669,29.710553 -15.618578,30.015509 -15.699605,30.290645 -15.767866,30.535971 -15.823900,30.749253 -15.868284,30.928298 -15.901628,31.070978 -15.924582,31.175240 -15.937826,31.239132 -15.942076,31.260816 " />
	<polyline fill="none" stroke="black" stroke-linecap="round" stroke-linejoin="round" points = "-16.016172,31.150114 -13.759280,29.658374 -11.761589,28.226004 -10.003385,26.849762 -8.465386,25.526419 -7.128779,24.252768 -5.975257,23.025623 -4.987051,21.841823 -4.146949,20.698232 -3.438318,19.591740 -2.845120,18.519267 -2.351919,17.477768 -1.943890,16.464240 -1.606821,15.475742 -1.327108,14.509565 -1.091766,13.562670 -0.888401,12.632410 -0.705202,11.716295 -0.530939,10.811986 -0.354937,9.917297 -0.167065,9.030186 0.042283,8.148746 0.282205,7.271187 0.561312,6.395824 0.887741,5.521060 1.269177,4.645374 1.712870,3.767313 2.225652,2.885441 2.813968,1.998232 3.483781,1.105809 3.483781,1.105809 4.510285,-0.157888 5.501538,-1.329284 6.457439,-2.417839 7.377080,-3.428438 8.259373,-4.367348 9.102749,-5.238987 9.905408,-6.047694 10.665255,-6.797052 11.380100,-7.490946 12.047581,-8.132866 12.665049,-8.725290 13.230001,-9.271821 13.739869,-9.775904 14.192012,-10.240736 14.583789,-10.669567 14.912586,-11.065747 15.175838,-11.432773 15.371047,-11.774328 15.495796,-12.094322 15.547392,-12.395322 15.523287,-12.680378 15.421694,-12.955694 15.239540,-13.221715 14.974953,-13.484014 14.625020,-13.743304 14.188023,-14.005638 13.660925,-14.270604 13.041424,-14.540855 12.327397,-14.819658 12.327397,-14.819658 11.476875,-15.116017 10.695862,-15.347700 9.976221,-15.519139 9.310054,-15.628848 8.691543,-15.684048 8.114096,-15.680667 7.572725,-15.622643 7.062193,-15.507735 6.577786,-15.334512 6.115368,-15.104367 5.670839,-14.816842 5.240308,-14.471924 4.820029,-14.070016 4.406323,-13.611592 3.995552,-13.097280 3.584174,-12.529597 3.168554,-11.910514 2.744994,-11.242319 2.309695,-10.527102 1.858792,-9.768420 1.388274,-8.969775 0.893974,-8.134723 0.371574,-7.267446 -0.183411,-6.372212 -0.775628,-5.453544 -1.409884,-4.516547 -2.091154,-3.567159 -2.824499,-2.610412 -3.615075,-1.652391 -3.615075,-1.652391 -4.243482,-0.973812 -4.901562,-0.362485 -5.586589,0.185887 -6.295884,0.676280 -7.026918,1.114000 -7.777082,1.506703 -8.544091,1.861260 -9.325923,2.184858 -10.120980,2.484298 -10.927742,2.768116 -11.745090,3.044698 -12.572337,3.322403 -13.409176,3.609976 -14.255663,3.916659 -15.112191,4.252381 -15.979498,4.627770 -16.858694,5.054207 -17.751080,5.544480 -18.658318,6.112421 -19.582467,6.773072 -20.525985,7.543008 -21.491840,8.440498 -22.483004,9.487060 -23.503569,10.705604 -24.559376,12.120448 -25.656738,13.761045 -26.801922,15.663662 -28.005997,17.865684 -29.280710,20.414944 -29.280710,20.414944 -29.260213,20.402771 -29.199806,20.366437 -29.101151,20.306247 -28.965954,20.222532 -28.795960,20.115651 -28.592948,19.985989 -28.358731,19.833956 -28.095148,19.659986 -27.804061,19.464536 -27.487144,19.248356 -27.145526,19.012981 -26.782039,18.757760 -26.398609,18.483227 -25.997168,18.189932 -25.578775,17.879706 -25.145526,17.552970 -24.700033,17.209346 -24.244081,16.849637 -23.778037,16.476956 -23.305468,16.089348 -22.827909,15.688001 -22.345927,15.275863 -21.862987,14.850802 -21.379567,14.415929 -20.898043,13.970890 -20.420086,13.516542 -19.946916,13.054630 -19.480832,12.584599 -19.022717,12.108799 -19.022717,12.108799 -18.733842,11.809348 -18.453755,11.535204 -18.183536,11.282410 -17.923054,11.049859 -17.671359,10.838604 -17.429180,10.645688 -17.196573,10.469838 -16.973421,10.310318 -16.759166,10.167668 -16.554476,10.039265 -16.359359,9.924272 -16.173841,9.821874 -15.997879,9.731514 -15.831290,9.653122 -15.674515,9.584900 -15.527636,9.526105 -15.390749,9.476011 -15.263962,9.433900 -15.147392,9.399064 -15.041171,9.370801 -14.945436,9.348415 -14.860277,9.331396 -14.785851,9.319058 -14.722399,9.310473 -14.670088,9.304965 -14.629091,9.301856 -14.599583,9.300471 -14.581745,9.300135 -14.575759,9.300173 -14.575759,9.300173 -14.574528,9.305892 -14.571511,9.323048 -14.567719,9.351651 -14.564161,9.391721 -14.561853,9.443289 -14.561810,9.506397 -14.564995,9.581288 -14.572385,9.668191 -14.585103,9.766917 -14.604195,9.877558 -14.630722,10.000219 -14.665755,10.135017 -14.710386,10.282080 -14.765721,10.441551 -14.832699,10.614147 -14.912351,10.800369 -15.006104,10.999630 -15.115150,11.212131 -15.240712,11.438089 -15.383399,11.679554 -15.544975,11.935355 -15.726845,12.205500 -15.930002,12.491229 -16.155498,12.793675 -16.405358,13.111525 -16.680570,13.446314 -16.982265,13.799255 -17.312736,14.168840 -17.672469,14.558042 -17.672469,14.558042 -18.111565,15.038702 -18.524859,15.520762 -18.912764,16.003411 -19.276728,16.483727 -19.615786,16.963683 -19.932154,17.438897 -20.226071,17.908962 -20.497341,18.374169 -20.747794,18.831126 -20.978085,19.278647 -21.187824,19.717291 -21.378559,20.144300 -21.551254,20.557977 -21.706654,20.957018 -21.845171,21.340637 -21.967337,21.707846 -22.074630,22.056248 -22.167892,22.384469 -22.247991,22.691124 -22.315820,22.974832 -22.372295,23.234209 -22.418304,23.467961 -22.454466,23.675215 -22.482231,23.853978 -22.502610,24.002950 -22.516628,24.120865 -22.525327,24.206503 -22.529763,24.258693 -22.531003,24.276326 -22.531003,24.276326 -22.515236,24.272565 -22.468585,24.260602 -22.392037,24.239422 -22.286588,24.208011 -22.153252,24.165363 -21.993058,24.110480 -21.807058,24.042374 -21.596056,23.960454 -21.361161,23.863754 -21.103697,23.751047 -20.824815,23.621415 -20.525688,23.473959 -20.207521,23.307812 -19.871543,23.122133 -19.518867,22.916355 -19.150134,22.690811 -18.767416,22.443560 -18.372050,22.173922 -17.965395,21.881267 -17.548029,21.566543 -17.121794,21.228508 -16.688465,20.866038 -16.249063,20.479601 -15.804533,20.070052 -15.357245,19.635239 -14.907858,19.176859 -14.457991,18.694602 -14.009423,18.187738 -13.562730,17.658758 -13.562730,17.658758 -13.249848,17.287327 -12.940002,16.940945 -12.634268,16.616911 -12.333318,16.313635 -12.036970,16.032274 -11.746202,15.770433 -11.461671,15.526687 -11.183516,15.301441 -10.912281,15.093822 -10.648788,14.901953 -10.393533,14.725146 -10.146639,14.564272 -9.908971,14.417394 -9.681139,14.283556 -9.463679,14.162157 -9.257038,14.053058 -9.061695,13.956095 -8.878431,13.869778 -8.707825,13.793573 -8.550468,13.726956 -8.406959,13.669414 -8.277913,13.620444 -8.163900,13.579814 -8.065558,13.547029 -7.983603,13.521260 -7.918689,13.502031 -7.871480,13.488872 -7.842652,13.481315 -7.832890,13.478899 -7.832890,13.478899 -7.832395,13.487009 -7.831453,13.511117 -7.830879,13.550910 -7.831489,13.606090 -7.834103,13.676378 -7.839547,13.761510 -7.848619,13.861412 -7.862099,13.976162 -7.880910,14.105141 -7.905913,14.248141 -7.937978,14.404963 -7.977993,14.575418 -8.026857,14.759329 -8.085410,14.956907 -8.154449,15.168639 -8.235112,15.393434 -8.328369,15.631144 -8.435210,15.881623 -8.556317,16.146244 -8.692928,16.423863 -8.846187,16.713941 -9.017097,17.016672 -9.206330,17.333674 -9.415468,17.662840 -9.645663,18.004041 -9.897400,18.359725 -10.172464,18.727417 -10.472096,19.106911 -10.796691,19.500901 -10.796691,19.500901 -11.223418,20.022033 -11.628058,20.551482 -12.011292,21.087009 -12.373749,21.626596 -12.715170,22.170549 -13.036895,22.714838 -13.338757,23.259358 -13.621197,23.802318 -13.885192,24.340700 -14.130793,24.873595 -14.358150,25.399720 -14.568375,25.915761 -14.761923,26.419803 -14.938811,26.910730 -15.099567,27.386360 -15.245122,27.843786 -15.375997,28.280886 -15.492731,28.695505 -15.595719,29.085726 -15.685284,29.449745 -15.762499,29.784553 -15.827994,30.087929 -15.882422,30.357661 -15.926463,30.591559 -15.960816,30.787469 -15.986207,30.943283 -16.003381,31.056957 -16.013107,31.126525 -16.016172,31.150114 " />
	<g>
		<line fill="none" stroke="black" stroke-linecap="round" stroke-linejoin="round" x1 = "-15.942076" y1 = "31.260816" x2 = "-16.016172" y2 = "31.150114" />
		<line fill="none" stroke="black" stroke-linecap="round" stroke-linejoin="round" x1 = "-6.893760" y1 = "25.269037" x2 = "-7.128779" y2 = "24.252768" />
		<line fill="none" stroke="black" stroke-linecap="round" stroke-linejoin="round" x1 = "-2.741579" y1 = "19.849761" x2 = "-2.845120" y2 = "18.519267" />
		<line fill="none" stroke="black" stroke-linecap="round" stroke-linejoin="round" x1 = "-1.058239" y1 = "14.837594" x2 = "-1.091766" y2 = "13.562670" />
		<line fill="none" stroke="black" stroke-linecap="round" stroke-linejoin="round" x1 = "-0.163290" y1 = "10.070628" x2 = "-0.167065" y2 = "9.030186" />
		<line fill="none" stroke="black" stroke-linecap="round" stroke-linejoin="round" x1 = "1.249304" y1 = "5.435063" x2 = "1.269177" y2 = "4.645374" />
		<line fill="none" stroke="black" stroke-linecap="round" stroke-linejoin="round" x1 = "3.435845" y1 = "1.848473" x2 = "3.483781" y2 = "1.105809" />
		<line fill="none" stroke="black" stroke-linecap="round" stroke-linejoin="round" x1 = "8.097822" y1 = "-3.204593" x2 = "8.259373" y2 = "-4.367348" />
		<line fill="none" stroke="black" stroke-linecap="round" stroke-linejoin="round" x1 = "11.749790" y1 = "-6.570401" x2 = "12.047581" y2 = "-8.132866" />
		<line fill="none" stroke="black" stroke-linecap="round" stroke-linejoin="round" x1 = "14.223905" y1 = "-9.047089" x2 = "14.583789" y2 = "-10.669567" />
		<line fill="none" stroke="black" stroke-linecap="round" stroke-linejoin="round" x1 = "15.238912" y1 = "-11.056543" x2 = "15.547392" y2 = "-12.395322" />
		<line fill="none" stroke="black" stroke-linecap="round" stroke-linejoin="round" x1 = "14.427583" y1 = "-12.814206" x2 = "14.625020" y2 = "-13.743304" />
		<line fill="none" stroke="black" stroke-linecap="round" stroke-linejoin="round" x1 = "12.195619" y1 = "-14.072446" x2 = "12.327397" y2 = "-14.819658" />
		<line fill="none" stroke="black" stroke-linecap="round" stroke-linejoin="round" x1 = "8.568187" y1 = "-14.679732" x2 = "8.691543" y2 = "-15.684048" />
		<line fill="none" stroke="black" stroke-linecap="round" stroke-linejoin="round" x1 = "5.987394" y1 = "-13.635658" x2 = "6.115368" y2 = "-15.104367" />
		<line fill="none" stroke="black" stroke-linecap="round" stroke-linejoin="round" x1 = "3.900478" y1 = "-11.475017" x2 = "3.995552" y2 = "-13.097280" />
		<line fill="none" stroke="black" stroke-linecap="round" stroke-linejoin="round" x1 = "1.819360" y1 = "-8.392755" x2 = "1.858792" y2 = "-9.768420" />
		<line fill="none" stroke="black" stroke-linecap="round" stroke-linejoin="round" x1 = "-0.763449" y1 = "-4.503070" x2 = "-0.775628" y2 = "-5.453544" />
		<line fill="none" stroke="black" stroke-linecap="round" stroke-linejoin="round" x1 = "-3.567988" y1 = "-0.913458" x2 = "-3.615075" y2 = "-1.652391" />
		<line fill="none" stroke="black" stroke-linecap="round" stroke-linejoin="round" x1 = "-6.917340" y1 = "1.955534" x2 = "-7.026918" y2 = "1.114000" />
		<line fill="none" stroke="black" stroke-linecap="round" stroke-linejoin="round" x1 = "-10.704028" y1 = "3.839033" x2 = "-10.927742" y2 = "2.768116" />
		<line fill="none" stroke="black" stroke-linecap="round" stroke-linejoin="round" x1 = "-14.716546" y1 = "5.583051" x2 = "-15.112191" y2 = "4.252381" />
		<line fill="none" stroke="black" stroke-linecap="round" stroke-linejoin="round" x1 = "-18.969296" y1 = "8.285641" x2 = "-19.582467" y2 = "6.773072" />
		<line fill="none" stroke="black" stroke-linecap="round" stroke-linejoin="round" x1 = "-23.868412" y1 = "13.329064" x2 = "-24.559376" y2 = "12.120448" />
		<line fill="none" stroke="black" stroke-linecap="round" stroke-linejoin="round" x1 = "-29.185071" y1 = "20.528168" x2 = "-29.280710" y2 = "20.414944" />
		<line fill="none" stroke="black" stroke-linecap="round" stroke-linejoin="round" x1 = "-28.643397" y1 = "20.300890" x2 = "-28.795960" y2 = "20.115651" />
		<line fill="none" stroke="black" stroke-linecap="round" stroke-linejoin="round" x1 = "-27.193516" y1 = "19.631114" x2 = "-27.487144" y2 = "19.248356" />
		<line fill="none" stroke="black" stroke-linecap="round" stroke-linejoin="round" x1 = "-25.126405" y1 = "18.537590" x2 = "-25.578775" y2 = "17.879706" />
		<line fill="none" stroke="black" stroke-linecap="round" stroke-linejoin="round" x1 = "-22.734030" y1 = "17.045355" x2 = "-23.305468" y2 = "16.089348" />
		<line fill="none" stroke="black" stroke-linecap="round" stroke-linejoin="round" x1 = "-20.274135" y1 = "15.198170" x2 = "-20.898043" y2 = "13.970890" />
		<line fill="none" stroke="black" stroke-linecap="round" stroke-linejoin="round" x1 = "-18.408370" y1 = "13.496543" x2 = "-19.022717" y2 = "12.108799" />
		<line fill="none" stroke="black" stroke-linecap="round" stroke-linejoin="round" x1 = "-17.089655" y1 = "12.294909" x2 = "-17.671359" y2 = "10.838604" />
		<line fill="none" stroke="black" stroke-linecap="round" stroke-linejoin="round" x1 = "-16.010848" y1 = "11.518317" x2 = "-16.554476" y2 = "10.039265" />
		<line fill="none" stroke="black" stroke-linecap="round" stroke-linejoin="round" x1 = "-15.163886" y1 = "11.066964" x2 = "-15.674515" y2 = "9.584900" />
		<line fill="none" stroke="black" stroke-linecap="round" stroke-linejoin="round" x1 = "-14.555073" y1 = "10.847994" x2 = "-15.041171" y2 = "9.370801" />
		<line fill="none" stroke="black" stroke-linecap="round" stroke-linejoin="round" x1 = "-14.197944" y1 = "10.778165" x2 = "-14.670088" y2 = "9.304965" />
		<line fill="none" stroke="black" stroke-linecap="round" stroke-linejoin="round" x1 = "-14.107063" y1 = "10.772233" x2 = "-14.575759" y2 = "9.300173" />
		<line fill="none" stroke="black" stroke-linecap="round" stroke-linejoin="round" x1 = "-14.091941" y1 = "10.915958" x2 = "-14.561853" y2 = "9.443289" />
		<line fill="none" stroke="black" stroke-linecap="round" stroke-linejoin="round" x1 = "-14.128210" y1 = "11.350781" x2 = "-14.604195" y2 = "9.877558" />
		<line fill="none" stroke="black" stroke-linecap="round" stroke-linejoin="round" x1 = "-14.342115" y1 = "12.084801" x2 = "-14.832699" y2 = "10.614147" />
		<line fill="none" stroke="black" stroke-linecap="round" stroke-linejoin="round" x1 = "-14.868904" y1 = "13.131043" x2 = "-15.383399" y2 = "11.679554" />
		<line fill="none" stroke="black" stroke-linecap="round" stroke-linejoin="round" x1 = "-15.860604" y1 = "14.505092" x2 = "-16.405358" y2 = "13.111525" />
		<line fill="none" stroke="black" stroke-linecap="round" stroke-linejoin="round" x1 = "-17.107437" y1 = "15.853598" x2 = "-17.672469" y2 = "14.558042" />
		<line fill="none" stroke="black" stroke-linecap="round" stroke-linejoin="round" x1 = "-19.067588" y1 = "18.028887" x2 = "-19.615786" y2 = "16.963683" />
		<line fill="none" stroke="black" stroke-linecap="round" stroke-linejoin="round" x1 = "-20.502114" y1 = "20.090922" x2 = "-20.978085" y2 = "19.278647" />
		<line fill="none" stroke="black" stroke-linecap="round" stroke-linejoin="round" x1 = "-21.471533" y1 = "21.917696" x2 = "-21.845171" y2 = "21.340637" />
		<line fill="none" stroke="black" stroke-linecap="round" stroke-linejoin="round" x1 = "-22.040361" y1 = "23.371116" x2 = "-22.315820" y2 = "22.974832" />
		<line fill="none" stroke="black" stroke-linecap="round" stroke-linejoin="round" x1 = "-22.292990" y1 = "24.292436" x2 = "-22.502610" y2 = "24.002950" />
		<line fill="none" stroke="black" stroke-linecap="round" stroke-linejoin="round" x1 = "-22.338819" y1 = "24.539066" x2 = "-22.531003" y2 = "24.276326" />
		<line fill="none" stroke="black" stroke-linecap="round" stroke-linejoin="round" x1 = "-21.939193" y1 = "24.464071" x2 = "-22.153252" y2 = "24.165363" />
		<line fill="none" stroke="black" stroke-linecap="round" stroke-linejoin="round" x1 = "-20.829873" y1 = "24.157535" x2 = "-21.103697" y2 = "23.751047" />
		<line fill="none" stroke="black" stroke-linecap="round" stroke-linejoin="round" x1 = "-19.167123" y1 = "23.495951" x2 = "-19.518867" y2 = "22.916355" />
		<line fill="none" stroke="black" stroke-linecap="round" stroke-linejoin="round" x1 = "-17.128675" y1 = "22.367410" x2 = "-17.548029" y2 = "21.566543" />
		<line fill="none" stroke="black" stroke-linecap="round" stroke-linejoin="round" x1 = "-14.903621" y1 = "20.682183" x2 = "-15.357245" y2 = "19.635239" />
		<line fill="none" stroke="black" stroke-linecap="round" stroke-linejoin="round" x1 = "-13.116243" y1 = "18.890639" x2 = "-13.562730" y2 = "17.658758" />
		<line fill="none" stroke="black" stroke-linecap="round" stroke-linejoin="round" x1 = "-11.622642" y1 = "17.376315" x2 = "-12.036970" y2 = "16.032274" />
		<line fill="none" stroke="black" stroke-linecap="round" stroke-linejoin="round" x1 = "-10.278533" y1 = "16.298900" x2 = "-10.648788" y2 = "14.901953" />
		<line fill="none" stroke="black" stroke-linecap="round" stroke-linejoin="round" x1 = "-9.136553" y1 = "15.576511" x2 = "-9.463679" y2 = "14.162157" />
		<line fill="none" stroke="black" stroke-linecap="round" stroke-linejoin="round" x1 = "-8.258079" y1 = "15.141019" x2 = "-8.550468" y2 = "13.726956" />
		<line fill="none" stroke="black" stroke-linecap="round" stroke-linejoin="round" x1 = "-7.712752" y1 = "14.931150" x2 = "-7.983603" y2 = "13.521260" />
		<line fill="none" stroke="black" stroke-linecap="round" stroke-linejoin="round" x1 = "-7.567727" y1 = "14.887168" x2 = "-7.832890" y2 = "13.478899" />
		<line fill="none" stroke="black" stroke-linecap="round" stroke-linejoin="round" x1 = "-7.567628" y1 = "15.084681" x2 = "-7.834103" y2 = "13.676378" />
		<line fill="none" stroke="black" stroke-linecap="round" stroke-linejoin="round" x1 = "-7.633610" y1 = "15.654475" x2 = "-7.905913" y2 = "14.248141" />
		<line fill="none" stroke="black" stroke-linecap="round" stroke-linejoin="round" x1 = "-7.869121" y1 = "16.565125" x2 = "-8.154449" y2 = "15.168639" />
		<line fill="none" stroke="black" stroke-linecap="round" stroke-linejoin="round" x1 = "-8.385665" y1 = "17.790183" x2 = "-8.692928" y2 = "16.423863" />
		<line fill="none" stroke="black" stroke-linecap="round" stroke-linejoin="round" x1 = "-9.307680" y1 = "19.303148" x2 = "-9.645663" y2 = "18.004041" />
		<line fill="none" stroke="black" stroke-linecap="round" stroke-linejoin="round" x1 = "-10.432532" y1 = "20.700909" x2 = "-10.796691" y2 = "19.500901" />
		<line fill="none" stroke="black" stroke-linecap="round" stroke-linejoin="round" x1 = "-12.341280" y1 = "23.138225" x2 = "-12.715170" y2 = "22.170549" />
		<line fill="none" stroke="black" stroke-linecap="round" stroke-linejoin="round" x1 = "-13.800886" y1 = "25.578791" x2 = "-14.130793" y2 = "24.873595" />
		<line fill="none" stroke="black" stroke-linecap="round" stroke-linejoin="round" x1 = "-14.851019" y1 = "27.842200" x2 = "-15.099567" y2 = "27.386360" />
		<line fill="none" stroke="black" stroke-linecap="round" stroke-linejoin="round" x1 = "-15.525669" y1 = "29.710553" x2 = "-15.685284" y2 = "29.449745" />
		<line fill="none" stroke="black" stroke-linecap="round" stroke-linejoin="round" x1 = "-15.868284" y1 = "30.928298" x2 = "-15.960816" y2 = "30.787469" />
	</g>
</svg>