<svg version="1.1" id="trace" 
xmlns="http://www.w3.org/2000/svg" xmlns:xlink="http://www.w3.org/1999/xlink" 
viewBox="0 0 200 100" 
style="enable-background:new 0 0 200 100;" xml:space="preserve" >
	<polyline fill="none" stroke="black" stroke-linecap="round" stroke-linejoin="round" points = "3.225633,32.122149 4.664033,30.019181 5.779529,28.086044 6.620047,26.303960 7.225374,24.652793 7.628384,23.118344 7.856933,21.689818 7.935551,20.356527 7.885974,19.109289 7.727759,17.940076 7.478750,16.841753 7.155418,15.807879 6.773261,14.831536 6.346597,13.908138 5.889062,13.033055 5.413713,12.201601 4.933133,11.408568 4.459273,10.650537 4.003716,9.924078 3.577739,9.225091 3.192217,8.550544 2.857720,7.897549 2.584538,7.262985 2.382642,6.644464 2.261721,6.039361 2.231146,5.445621 2.299965,4.861442 2.476898,4.284719 2.770282,3.713896 3.187990,3.148726 3.187990,3.148726 3.870442,2.309667 4.501983,1.453585 5.080487,0.591952 5.604640,-0.267157 6.074038,-1.120026 6.488750,-1.962795 6.849112,-2.790817 7.155895,-3.601523 7.410001,-4.392086 7.612450,-5.160187 7.764329,-5.904078 7.866684,-6.622114 7.920502,-7.312974 7.926707,-7.976016 7.886042,-8.610450 7.799008,-9.215074 7.665935,-9.789048 7.486904,-10.331455 7.261724,-10.841196 6.989905,-11.316859 6.670625,-11.756554 6.302703,-12.157677 5.884565,-12.516589 5.414220,-12.828118 4.889481,-13.088872 4.307581,-13.291817 3.665547,-13.432387 2.959868,-13.503512 2.186719,-13.501796 2.186719,-13.501796 1.309459,-13.421518 0.554747,-13.279878 -0.087532,-13.078837 -0.626556,-12.824896 -1.070843,-12.525460 -1.428272,-12.181968 -1.706236,-11.797665 -1.911745,-11.375148 -2.051534,-10.916425 -2.132165,-10.423109 -2.160133,-9.896569 -2.141970,-9.338047 -2.084350,-8.748970 -1.994173,-8.130596 -1.878659,-7.483997 -1.745448,-6.810773 -1.602684,-6.112815 -1.459080,-5.392377 -1.323985,-4.652148 -1.207428,-3.895098 -1.120152,-3.124968 -1.073611,-2.346160 -1.079944,-1.563778 -1.151898,-0.783655 -1.302695,-0.011113 -1.545911,0.745877 -1.895232,1.478614 -2.364307,2.174280 -2.966466,2.818776 -2.966466,2.818776 -3.492405,3.284635 -4.062520,3.766297 -4.671876,4.265689 -5.315580,4.783029 -5.988581,5.319865 -6.685737,5.877822 -7.401883,6.458059 -8.131735,7.062157 -8.869898,7.691903 -9.610928,8.348828 -10.349270,9.034610 -11.079152,9.751567 -11.794678,10.501948 -12.489772,11.288156 -13.158172,12.112681 -13.793588,12.977427 -14.388992,13.886356 -14.937190,14.842922 -15.430556,15.850955 -15.860944,16.914743 -16.219578,18.039117 -16.496909,19.229576 -16.682446,20.492419 -16.764529,21.834935 -16.730052,23.265625 -16.564096,24.794500 -16.249458,26.433463 -15.766031,28.196809 -15.089969,30.101898 -15.089969,30.101898 -15.074784,30.080896 -15.030483,30.018668 -14.959020,29.916494 -14.862443,29.775797 -14.742871,29.598125 -14.602476,29.385131 -14.443470,29.138560 -14.268330,28.859587 -14.080405,28.547103 -13.880653,28.206185 -13.671256,27.838775 -13.454590,27.446174 -13.234207,27.026040 -13.010502,26.584856 -12.785449,26.124537 -12.562853,25.640910 -12.342705,25.141327 -12.127147,24.626255 -11.918863,24.093783 -11.717971,23.550465 -11.527353,22.992874 -11.347516,22.425712 -11.180109,21.849228 -11.026628,21.263807 -10.887698,20.673001 -10.765296,20.074539 -10.659478,19.473805 -10.572363,18.867139 -10.503747,18.260665 -10.503747,18.260665 -10.459177,17.878286 -10.401428,17.523272 -10.331747,17.194128 -10.251756,16.887447 -10.162334,16.603192 -10.064420,16.341013 -9.959117,16.099735 -9.847642,15.877527 -9.731136,15.672880 -9.610378,15.486086 -9.486400,15.316179 -9.360220,15.162232 -9.232853,15.023353 -9.105304,14.898683 -8.978748,14.786438 -8.854007,14.686802 -8.732078,14.599049 -8.613969,14.522413 -8.500691,14.456143 -8.393262,14.399505 -8.292703,14.351775 -8.200042,14.312243 -8.116315,14.280207 -8.042563,14.254971 -7.979836,14.235847 -7.929189,14.222153 -7.891686,14.213208 -7.868395,14.208336 -7.860392,14.206861 -7.860392,14.206861 -7.851327,14.220788 -7.825300,14.261743 -7.784039,14.328537 -7.729245,14.420026 -7.662602,14.535110 -7.585784,14.672721 -7.500463,14.831817 -7.408317,15.011376 -7.311130,15.209735 -7.210645,15.425606 -7.108470,15.658799 -7.006361,15.908309 -6.906105,16.173124 -6.809621,16.451505 -6.718898,16.741473 -6.635625,17.043500 -6.561755,17.356484 -6.499359,17.678738 -6.450726,18.007293 -6.417644,18.343226 -6.402262,18.685279 -6.406981,19.030632 -6.434094,19.377631 -6.485647,19.726663 -6.563972,20.076264 -6.671893,20.421801 -6.811447,20.764338 -6.984985,21.102744 -7.195098,21.434408 -7.195098,21.434408 -7.456065,21.829717 -7.686585,22.231094 -7.887980,22.637030 -8.062200,23.042779 -8.209747,23.451496 -8.331906,23.862018 -8.430848,24.268915 -8.507178,24.674736 -8.562172,25.078672 -8.597717,25.477172 -8.615333,25.868631 -8.616003,26.254056 -8.601291,26.631897 -8.573441,26.997708 -8.533769,27.351478 -8.483683,27.692927 -8.424960,28.020316 -8.359521,28.331469 -8.289815,28.622042 -8.217053,28.893418 -8.143209,29.143759 -8.070296,29.371224 -8.000360,29.573976 -7.935471,29.750200 -7.877717,29.898110 -7.829391,30.015056 -7.792391,30.100223 -7.768698,30.152419 -7.760354,30.170137 -7.760354,30.170137 -7.738821,30.163152 -7.676182,30.141656 -7.575417,30.104853 -7.439566,30.051974 -7.271836,29.981718 -7.075421,29.893067 -6.853372,29.785955 -6.608901,29.659751 -6.345245,29.513872 -6.065663,29.347783 -5.773424,29.161000 -5.471796,28.953095 -5.164164,28.722801 -4.853980,28.468007 -4.544089,28.190848 -4.237655,27.891132 -3.937789,27.568737 -3.647861,27.220195 -3.370598,26.847451 -3.108770,26.451724 -2.865276,26.031752 -2.642960,25.585057 -2.444111,25.115662 -2.271306,24.621854 -2.126958,24.102080 -2.013057,23.560462 -1.931899,22.992495 -1.885230,22.402241 -1.874918,21.788216 -1.874918,21.788216 -1.870626,21.352758 -1.846962,20.933820 -1.805787,20.528535 -1.748732,20.138003 -1.677378,19.763461 -1.593353,19.403469 -1.498214,19.057004 -1.393374,18.726157 -1.280285,18.410806 -1.160414,18.108747 -1.035094,17.821348 -0.905654,17.549269 -0.773419,17.292451 -0.639700,17.049650 -0.505760,16.821168 -0.372841,16.607964 -0.242184,16.410041 -0.115016,16.227415 0.007446,16.059888 0.123999,15.906675 0.233439,15.769028 0.334566,15.647032 0.426178,15.540791 0.507069,15.450426 0.576027,15.376079 0.631832,15.317908 0.673250,15.276095 0.699033,15.250841 0.707913,15.242369 0.707913,15.242369 0.717344,15.251296 0.744562,15.277879 0.787974,15.321836 0.846005,15.382912 0.917098,15.460873 0.999706,15.555509 1.092288,15.666628 1.193308,15.794060 1.301229,15.937653 1.414509,16.097272 1.531597,16.272800 1.650972,16.462934 1.771032,16.668545 1.890175,16.889700 2.006785,17.126342 2.119216,17.378430 2.225820,17.645372 2.324946,17.926079 2.414782,18.222072 2.493543,18.533360 2.559402,18.859884 2.610638,19.198920 2.645173,19.553234 2.661018,19.922877 2.656222,20.306247 2.628690,20.703070 2.576123,21.115334 2.496335,21.541769 2.387066,21.980823 2.387066,21.980823 2.237525,22.556695 2.112020,23.121931 2.009507,23.678910 1.929101,24.225997 1.869886,24.760870 1.830657,25.286300 1.810514,25.797124 1.808174,26.295311 1.822363,26.781206 1.852009,27.249511 1.895619,27.702709 1.951751,28.140601 2.019053,28.560093 2.096043,28.959658 2.181006,29.340819 2.272311,29.702440 2.368320,30.042668 2.467447,30.358431 2.567726,30.651629 2.667344,30.921189 2.764455,31.166068 2.857189,31.385264 2.943661,31.577816 3.022044,31.742011 3.090431,31.877181 3.146846,31.983467 3.189413,32.060145 3.216281,32.106563 3.225633,32.122149 " />
	<polyline fill="none" stroke="black" stroke-linecap="round" stroke-linejoin="round" points = "3.249838,31.869912 4.738976,29.445281 5.909713,27.237993 6.801133,25.225345 7.447921,23.387418 7.881085,21.706592 8.128350,20.168262 8.215226,18.757219 8.164847,17.460436 7.998420,16.266064 7.735502,15.163188 7.394203,14.141727 6.991368,13.192372 6.542719,12.306566 6.062994,11.476501 5.566058,10.695125 5.065020,9.956137 4.572329,9.253969 4.099867,8.583737 3.659026,7.941166 3.260797,7.322015 2.915771,6.722648 2.634163,6.140289 2.425875,5.572251 2.300550,5.014497 2.267424,4.465331 2.335422,3.922992 2.513209,3.383857 2.809045,2.846076 3.230775,2.308776 3.230775,2.308776 3.920001,1.497524 4.558353,0.648699 5.144435,-0.228010 5.677345,-1.123366 6.156667,-2.029499 6.582316,-2.938989 6.954463,-3.844874 7.273459,-4.740658 7.539812,-5.620598 7.753998,-6.478442 7.916586,-7.308914 8.028105,-8.106864 8.089077,-8.867692 8.100025,-9.587723 8.061295,-10.262654 7.973259,-10.889671 7.836271,-11.467191 7.650505,-11.993644 7.415902,-12.467038 7.132453,-12.888223 6.799906,-13.258394 6.417725,-13.579200 5.984995,-13.852099 5.500380,-14.078352 4.962345,-14.263518 4.368296,-14.405698 3.715410,-14.509336 2.999813,-14.572894 2.216875,-14.594523 2.216875,-14.594523 1.328474,-14.570991 0.563306,-14.498957 -0.088975,-14.378127 -0.637575,-14.206574 -1.090813,-13.984875 -1.456306,-13.711324 -1.741166,-13.384961 -1.952165,-13.005501 -2.095879,-12.573289 -2.178811,-12.089253 -2.207496,-11.554873 -2.188583,-10.971775 -2.128936,-10.342256 -2.035740,-9.670269 -1.916513,-8.959344 -1.779196,-8.213436 -1.632222,-7.437006 -1.484577,-6.635343 -1.345835,-5.813799 -1.226209,-4.978201 -1.136580,-4.134869 -1.088505,-3.290622 -1.094210,-2.452786 -1.166540,-1.629183 -1.318883,-0.828109 -1.565040,-0.058297 -1.919067,0.670475 -2.395034,1.348241 -3.006720,1.965027 -3.006720,1.965027 -3.541624,2.404515 -4.122326,2.854032 -4.744048,3.316092 -5.402194,3.789847 -6.091837,4.278162 -6.808048,4.782765 -7.545841,5.305181 -8.300138,5.847070 -9.065614,6.411165 -9.836732,7.000557 -10.607733,7.618557 -11.372540,8.269053 -12.124696,8.956499 -12.857324,9.685865 -13.562939,10.463156 -14.233761,11.293842 -14.861485,12.183780 -15.437307,13.138971 -15.951902,14.165526 -16.395385,15.269708 -16.757245,16.458016 -17.026255,17.737313 -17.190348,19.114980 -17.236465,20.599097 -17.150368,22.198637 -16.916412,23.923690 -16.517277,25.785697 -15.933643,27.797726 -15.143367,29.975803 -15.143367,29.975803 -15.129554,29.951355 -15.089299,29.878904 -15.024423,29.759888 -14.936811,29.595864 -14.828392,29.388496 -14.701134,29.139540 -14.557025,28.850833 -14.398071,28.524277 -14.226281,28.161825 -14.043448,27.766034 -13.851320,27.339638 -13.652285,26.883569 -13.448286,26.399868 -13.241226,25.890571 -13.032322,25.359692 -12.823823,24.808018 -12.617699,24.236894 -12.415360,23.649259 -12.218085,23.048372 -12.028147,22.433822 -11.846619,21.809059 -11.674827,21.176470 -11.514788,20.535479 -11.366814,19.891794 -11.233134,19.243297 -11.114280,18.594323 -11.011807,17.944714 -10.926475,17.297322 -10.859597,16.652294 -10.859597,16.652294 -10.814837,16.250921 -10.756030,15.879638 -10.684824,15.535277 -10.602207,15.217603 -10.509325,14.925576 -10.407708,14.656213 -10.298492,14.408305 -10.182476,14.182283 -10.060984,13.975946 -9.935210,13.787649 -9.806212,13.616407 -9.675037,13.461276 -9.542499,13.322595 -9.409860,13.198283 -9.278178,13.087346 -9.148483,12.988972 -9.021803,12.902374 -8.899171,12.826784 -8.781623,12.761453 -8.670201,12.705649 -8.565934,12.658762 -8.469843,12.620296 -8.383054,12.589155 -8.306634,12.564654 -8.241660,12.546112 -8.189215,12.532854 -8.150390,12.524209 -8.126285,12.519511 -8.118003,12.518092 -8.118003,12.518092 -8.108747,12.531784 -8.082176,12.572049 -8.040063,12.637718 -7.984151,12.727675 -7.916053,12.841583 -7.837548,12.977996 -7.750374,13.135736 -7.656250,13.313803 -7.556909,13.511206 -7.454101,13.726965 -7.349330,13.962022 -7.244657,14.213618 -7.141928,14.480713 -7.043023,14.762279 -6.949523,15.059762 -6.863726,15.369707 -6.787654,15.690955 -6.723191,16.023702 -6.672428,16.366943 -6.637736,16.717920 -6.621284,17.075684 -6.625020,17.441197 -6.651617,17.810369 -6.703431,18.181715 -6.782530,18.555963 -6.891548,18.929965 -7.033043,19.301291 -7.209390,19.668839 -7.422808,20.032367 -7.422808,20.032367 -7.687136,20.469029 -7.919753,20.911417 -8.121517,21.361030 -8.294137,21.814572 -8.439087,22.270289 -8.557581,22.727850 -8.650862,23.186791 -8.720764,23.643837 -8.768794,24.097545 -8.796309,24.547276 -8.804768,24.992030 -8.796124,25.428679 -8.772056,25.855557 -8.734287,26.270949 -8.684373,26.674076 -8.624194,27.062847 -8.555797,27.434613 -8.481094,27.787500 -8.402041,28.119606 -8.320632,28.429010 -8.238897,28.713783 -8.158781,28.972515 -8.082421,29.203061 -8.012015,29.403091 -7.949683,29.570724 -7.897544,29.704120 -7.857715,29.801490 -7.832298,29.861111 -7.823370,29.881336 -7.823370,29.881336 -7.801993,29.872776 -7.739833,29.846510 -7.639874,29.801680 -7.505141,29.737445 -7.338694,29.652994 -7.143629,29.547542 -6.923073,29.420338 -6.680179,29.270666 -6.418115,29.097898 -6.139935,28.902226 -5.848988,28.682302 -5.548482,28.437594 -5.241625,28.167619 -4.931614,27.871955 -4.621623,27.550236 -4.314804,27.202158 -4.014108,26.829016 -3.722740,26.429596 -3.443751,26.003455 -3.180084,25.550564 -2.934544,25.071917 -2.709875,24.568526 -2.508899,24.038910 -2.334203,23.483332 -2.188083,22.905615 -2.073080,22.302930 -1.991367,21.676773 -1.944933,21.029922 -1.935852,20.359937 -1.935852,20.359937 -1.932290,19.889694 -1.908669,19.436990 -1.866790,19.001357 -1.808273,18.585501 -1.734905,18.186809 -1.648335,17.804668 -1.550073,17.441264 -1.441725,17.094909 -1.324819,16.764663 -1.200787,16.451740 -1.071067,16.156184 -0.937096,15.876380 -0.800244,15.612265 -0.661823,15.365887 -0.523192,15.135258 -0.385651,14.920099 -0.250480,14.720402 -0.118942,14.537400 0.007699,14.370292 0.128199,14.218586 0.241319,14.082338 0.345824,13.961618 0.440478,13.856516 0.524038,13.767658 0.595258,13.694832 0.652886,13.637866 0.695654,13.596927 0.722276,13.572205 0.731445,13.563913 0.731445,13.563913 0.741195,13.572715 0.769337,13.598922 0.814226,13.642255 0.874240,13.702461 0.947773,13.779311 1.033233,13.872601 1.129022,13.982784 1.233563,14.109357 1.345276,14.251998 1.462573,14.410582 1.583859,14.585001 1.707524,14.775163 1.831926,14.981453 1.955380,15.204675 2.076256,15.443583 2.192853,15.698145 2.303440,15.968343 2.406143,16.256372 2.499236,16.560340 2.580880,16.880081 2.649131,17.216499 2.701972,17.570812 2.737509,17.941123 2.753672,18.327725 2.748180,18.733498 2.719023,19.155561 2.663944,19.594226 2.580449,20.052670 2.466340,20.527740 2.466340,20.527740 2.310321,21.151906 2.178966,21.771171 2.071491,22.381675 1.986723,22.986114 1.923781,23.579888 1.881535,24.162148 1.858696,24.734281 1.854161,25.292228 1.866632,25.834918 1.894661,26.363169 1.936897,26.874521 1.991904,27.367166 2.058162,27.839995 2.134058,28.292667 2.217952,28.724309 2.308241,29.132679 2.403220,29.516690 2.501146,29.875273 2.600240,30.207378 2.698696,30.511980 2.794616,30.788908 2.886208,31.036394 2.971619,31.253389 3.048980,31.439020 3.116418,31.592465 3.172067,31.712955 3.214073,31.799779 3.240599,31.852291 3.249838,31.869912 " />
	<g>
		<line fill="none" stroke="black" stroke-linecap="round" stroke-linejoin="round" x1 = "3.225633" y1 = "32.122149" x2 = "3.249838" y2 = "31.869912" />
		<line fill="none" stroke="black" stroke-linecap="round" stroke-linejoin="round" x1 = "7.628384" y1 = "23.118344" x2 = "7.881085" y2 = "21.706592" />
		<line fill="none" stroke="black" stroke-linecap="round" stroke-linejoin="round" x1 = "7.478750" y1 = "16.841753" x2 = "7.735502" y2 = "15.163188" />
		<line fill="none" stroke="black" stroke-linecap="round" stroke-linejoin="round" x1 = "5.413713" y1 = "12.201601" x2 = "5.566058" y2 = "10.695125" />
		<line fill="none" stroke="black" stroke-linecap="round" stroke-linejoin="round" x1 = "3.192217" y1 = "8.550544" x2 = "3.260797" y2 = "7.322015" />
		<line fill="none" stroke="black" stroke-linecap="round" stroke-linejoin="round" x1 = "2.231146" y1 = "5.445621" x2 = "2.267424" y2 = "4.465331" />
		<line fill="none" stroke="black" stroke-linecap="round" stroke-linejoin="round" x1 = "3.187990" y1 = "3.148726" x2 = "3.230775" y2 = "2.308776" />
		<line fill="none" stroke="black" stroke-linecap="round" stroke-linejoin="round" x1 = "6.074038" y1 = "-1.120026" x2 = "6.156667" y2 = "-2.029499" />
		<line fill="none" stroke="black" stroke-linecap="round" stroke-linejoin="round" x1 = "7.612450" y1 = "-5.160187" x2 = "7.753998" y2 = "-6.478442" />
		<line fill="none" stroke="black" stroke-linecap="round" stroke-linejoin="round" x1 = "7.886042" y1 = "-8.610450" x2 = "8.061295" y2 = "-10.262654" />
		<line fill="none" stroke="black" stroke-linecap="round" stroke-linejoin="round" x1 = "6.989905" y1 = "-11.316859" x2 = "7.132453" y2 = "-12.888223" />
		<line fill="none" stroke="black" stroke-linecap="round" stroke-linejoin="round" x1 = "4.889481" y1 = "-13.088872" x2 = "4.962345" y2 = "-14.263518" />
		<line fill="none" stroke="black" stroke-linecap="round" stroke-linejoin="round" x1 = "2.186719" y1 = "-13.501796" x2 = "2.216875" y2 = "-14.594523" />
		<line fill="none" stroke="black" stroke-linecap="round" stroke-linejoin="round" x1 = "-1.070843" y1 = "-12.525460" x2 = "-1.090813" y2 = "-13.984875" />
		<line fill="none" stroke="black" stroke-linecap="round" stroke-linejoin="round" x1 = "-2.132165" y1 = "-10.423109" x2 = "-2.178811" y2 = "-12.089253" />
		<line fill="none" stroke="black" stroke-linecap="round" stroke-linejoin="round" x1 = "-1.878659" y1 = "-7.483997" x2 = "-1.916513" y2 = "-8.959344" />
		<line fill="none" stroke="black" stroke-linecap="round" stroke-linejoin="round" x1 = "-1.207428" y1 = "-3.895098" x2 = "-1.226209" y2 = "-4.978201" />
		<line fill="none" stroke="black" stroke-linecap="round" stroke-linejoin="round" x1 = "-1.302695" y1 = "-0.011113" x2 = "-1.318883" y2 = "-0.828109" />
		<line fill="none" stroke="black" stroke-linecap="round" stroke-linejoin="round" x1 = "-2.966466" y1 = "2.818776" x2 = "-3.006720" y2 = "1.965027" />
		<line fill="none" stroke="black" stroke-linecap="round" stroke-linejoin="round" x1 = "-5.988581" y1 = "5.319865" x2 = "-6.091837" y2 = "4.278162" />
		<line fill="none" stroke="black" stroke-linecap="round" stroke-linejoin="round" x1 = "-9.610928" y1 = "8.348828" x2 = "-9.836732" y2 = "7.000557" />
		<line fill="none" stroke="black" stroke-linecap="round" stroke-linejoin="round" x1 = "-13.158172" y1 = "12.112681" x2 = "-13.562939" y2 = "10.463156" />
		<line fill="none" stroke="black" stroke-linecap="round" stroke-linejoin="round" x1 = "-15.860944" y1 = "16.914743" x2 = "-16.395385" y2 = "15.269708" />
		<line fill="none" stroke="black" stroke-linecap="round" stroke-linejoin="round" x1 = "-16.730052" y1 = "23.265625" x2 = "-17.150368" y2 = "22.198637" />
		<line fill="none" stroke="black" stroke-linecap="round" stroke-linejoin="round" x1 = "-15.089969" y1 = "30.101898" x2 = "-15.143367" y2 = "29.975803" />
		<line fill="none" stroke="black" stroke-linecap="round" stroke-linejoin="round" x1 = "-14.742871" y1 = "29.598125" x2 = "-14.828392" y2 = "29.388496" />
		<line fill="none" stroke="black" stroke-linecap="round" stroke-linejoin="round" x1 = "-13.880653" y1 = "28.206185" x2 = "-14.043448" y2 = "27.766034" />
		<line fill="none" stroke="black" stroke-linecap="round" stroke-linejoin="round" x1 = "-12.785449" y1 = "26.124537" x2 = "-13.032322" y2 = "25.359692" />
		<line fill="none" stroke="black" stroke-linecap="round" stroke-linejoin="round" x1 = "-11.717971" y1 = "23.550465" x2 = "-12.028147" y2 = "22.433822" />
		<line fill="none" stroke="black" stroke-linecap="round" stroke-linejoin="round" x1 = "-10.887698" y1 = "20.673001" x2 = "-11.233134" y2 = "19.243297" />
		<line fill="none" stroke="black" stroke-linecap="round" stroke-linejoin="round" x1 = "-10.503747" y1 = "18.260665" x2 = "-10.859597" y2 = "16.652294" />
		<line fill="none" stroke="black" stroke-linecap="round" stroke-linejoin="round" x1 = "-10.162334" y1 = "16.603192" x2 = "-10.509325" y2 = "14.925576" />
		<line fill="none" stroke="black" stroke-linecap="round" stroke-linejoin="round" x1 = "-9.610378" y1 = "15.486086" x2 = "-9.935210" y2 = "13.787649" />
		<line fill="none" stroke="black" stroke-linecap="round" stroke-linejoin="round" x1 = "-8.978748" y1 = "14.786438" x2 = "-9.278178" y2 = "13.087346" />
		<line fill="none" stroke="black" stroke-linecap="round" stroke-linejoin="round" x1 = "-8.393262" y1 = "14.399505" x2 = "-8.670201" y2 = "12.705649" />
		<line fill="none" stroke="black" stroke-linecap="round" stroke-linejoin="round" x1 = "-7.979836" y1 = "14.235847" x2 = "-8.241660" y2 = "12.546112" />
		<line fill="none" stroke="black" stroke-linecap="round" stroke-linejoin="round" x1 = "-7.860392" y1 = "14.206861" x2 = "-8.118003" y2 = "12.518092" />
		<line fill="none" stroke="black" stroke-linecap="round" stroke-linejoin="round" x1 = "-7.662602" y1 = "14.535110" x2 = "-7.916053" y2 = "12.841583" />
		<line fill="none" stroke="black" stroke-linecap="round" stroke-linejoin="round" x1 = "-7.210645" y1 = "15.425606" x2 = "-7.454101" y2 = "13.726965" />
		<line fill="none" stroke="black" stroke-linecap="round" stroke-linejoin="round" x1 = "-6.718898" y1 = "16.741473" x2 = "-6.949523" y2 = "15.059762" />
		<line fill="none" stroke="black" stroke-linecap="round" stroke-linejoin="round" x1 = "-6.417644" y1 = "18.343226" x2 = "-6.637736" y2 = "16.717920" />
		<line fill="none" stroke="black" stroke-linecap="round" stroke-linejoin="round" x1 = "-6.563972" y1 = "20.076264" x2 = "-6.782530" y2 = "18.555963" />
		<line fill="none" stroke="black" stroke-linecap="round" stroke-linejoin="round" x1 = "-7.195098" y1 = "21.434408" x2 = "-7.422808" y2 = "20.032367" />
		<line fill="none" stroke="black" stroke-linecap="round" stroke-linejoin="round" x1 = "-8.209747" y1 = "23.451496" x2 = "-8.439087" y2 = "22.270289" />
		<line fill="none" stroke="black" stroke-linecap="round" stroke-linejoin="round" x1 = "-8.597717" y1 = "25.477172" x2 = "-8.796309" y2 = "24.547276" />
		<line fill="none" stroke="black" stroke-linecap="round" stroke-linejoin="round" x1 = "-8.533769" y1 = "27.351478" x2 = "-8.684373" y2 = "26.674076" />
		<line fill="none" stroke="black" stroke-linecap="round" stroke-linejoin="round" x1 = "-8.217053" y1 = "28.893418" x2 = "-8.320632" y2 = "28.429010" />
		<line fill="none" stroke="black" stroke-linecap="round" stroke-linejoin="round" x1 = "-7.877717" y1 = "29.898110" x2 = "-7.949683" y2 = "29.570724" />
		<line fill="none" stroke="black" stroke-linecap="round" stroke-linejoin="round" x1 = "-7.760354" y1 = "30.170137" x2 = "-7.823370" y2 = "29.881336" />
		<line fill="none" stroke="black" stroke-linecap="round" stroke-linejoin="round" x1 = "-7.271836" y1 = "29.981718" x2 = "-7.338694" y2 = "29.652994" />
		<line fill="none" stroke="black" stroke-linecap="round" stroke-linejoin="round" x1 = "-6.065663" y1 = "29.347783" x2 = "-6.139935" y2 = "28.902226" />
		<line fill="none" stroke="black" stroke-linecap="round" stroke-linejoin="round" x1 = "-4.544089" y1 = "28.190848" x2 = "-4.621623" y2 = "27.550236" />
		<line fill="none" stroke="black" stroke-linecap="round" stroke-linejoin="round" x1 = "-3.108770" y1 = "26.451724" x2 = "-3.180084" y2 = "25.550564" />
		<line fill="none" stroke="black" stroke-linecap="round" stroke-linejoin="round" x1 = "-2.126958" y1 = "24.102080" x2 = "-2.188083" y2 = "22.905615" />
		<line fill="none" stroke="black" stroke-linecap="round" stroke-linejoin="round" x1 = "-1.874918" y1 = "21.788216" x2 = "-1.935852" y2 = "20.359937" />
		<line fill="none" stroke="black" stroke-linecap="round" stroke-linejoin="round" x1 = "-1.677378" y1 = "19.763461" x2 = "-1.734905" y2 = "18.186809" />
		<line fill="none" stroke="black" stroke-linecap="round" stroke-linejoin="round" x1 = "-1.160414" y1 = "18.108747" x2 = "-1.200787" y2 = "16.451740" />
		<line fill="none" stroke="black" stroke-linecap="round" stroke-linejoin="round" x1 = "-0.505760" y1 = "16.821168" x2 = "-0.523192" y2 = "15.135258" />
		<line fill="none" stroke="black" stroke-linecap="round" stroke-linejoin="round" x1 = "0.123999" y1 = "15.906675" x2 = "0.128199" y2 = "14.218586" />
		<line fill="none" stroke="black" stroke-linecap="round" stroke-linejoin="round" x1 = "0.576027" y1 = "15.376079" x2 = "0.595258" y2 = "13.694832" />
		<line fill="none" stroke="black" stroke-linecap="round" stroke-linejoin="round" x1 = "0.707913" y1 = "15.242369" x2 = "0.731445" y2 = "13.563913" />
		<line fill="none" stroke="black" stroke-linecap="round" stroke-linejoin="round" x1 = "0.917098" y1 = "15.460873" x2 = "0.947773" y2 = "13.779311" />
		<line fill="none" stroke="black" stroke-linecap="round" stroke-linejoin="round" x1 = "1.414509" y1 = "16.097272" x2 = "1.462573" y2 = "14.410582" />
		<line fill="none" stroke="black" stroke-linecap="round" stroke-linejoin="round" x1 = "2.006785" y1 = "17.126342" x2 = "2.076256" y2 = "15.443583" />
		<line fill="none" stroke="black" stroke-linecap="round" stroke-linejoin="round" x1 = "2.493543" y1 = "18.533360" x2 = "2.580880" y2 = "16.880081" />
		<line fill="none" stroke="black" stroke-linecap="round" stroke-linejoin="round" x1 = "2.656222" y1 = "20.306247" x2 = "2.748180" y2 = "18.733498" />
		<line fill="none" stroke="black" stroke-linecap="round" stroke-linejoin="round" x1 = "2.387066" y1 = "21.980823" x2 = "2.466340" y2 = "20.527740" />
		<line fill="none" stroke="black" stroke-linecap="round" stroke-linejoin="round" x1 = "1.869886" y1 = "24.760870" x2 = "1.923781" y2 = "23.579888" />
		<line fill="none" stroke="black" stroke-linecap="round" stroke-linejoin="round" x1 = "1.852009" y1 = "27.249511" x2 = "1.894661" y2 = "26.363169" />
		<line fill="none" stroke="black" stroke-linecap="round" stroke-linejoin="round" x1 = "2.181006" y1 = "29.340819" x2 = "2.217952" y2 = "28.724309" />
		<line fill="none" stroke="black" stroke-linecap="round" stroke-linejoin="round" x1 = "2.667344" y1 = "30.921189" x2 = "2.698696" y2 = "30.511980" />
		<line fill="none" stroke="black" stroke-linecap="round" stroke-linejoin="round" x1 = "3.090431" y1 = "31.877181" x2 = "3.116418" y2 = "31.592465" />
	</g>
</svg>