<svg version="1.1" id="trace" 
xmlns="http://www.w3.org/2000/svg" xmlns:xlink="http://www.w3.org/1999/xlink" 
viewBox="0 0 200 100" 
style="enable-background:new 0 0 200 100;" xml:space="preserve" >
	<polyline fill="none" stroke="black" stroke-linecap="round" stroke-linejoin="round" points = "29.841105,17.625110 28.976131,15.255096 28.101245,13.223078 27.215041,11.476876 26.316496,9.974720 25.404914,8.682727 24.479888,7.573069 23.541287,6.622608 22.589244,5.811873 21.624131,5.124334 20.646594,4.545747 19.657549,4.063700 18.658202,3.667243 17.650056,3.346589 16.634938,3.092873 15.615016,2.897953 14.592819,2.754248 13.571257,2.654597 12.553643,2.592154 11.543722,2.560205 10.545664,2.552195 9.564030,2.561861 8.603856,2.582832 7.670610,2.608717 6.770198,2.632874 5.908844,2.649177 5.093156,2.651197 4.330058,2.632212 3.626637,2.586148 2.990155,2.506604 2.990155,2.506604 2.122442,2.295246 1.281738,1.958962 0.470389,1.512654 -0.310215,0.971840 -1.059477,0.357513 -1.777400,-0.311344 -2.464760,-1.021145 -3.123034,-1.759219 -3.754291,-2.513943 -4.361069,-3.274554 -4.946349,-4.032155 -5.513396,-4.778386 -6.065713,-5.505879 -6.606995,-6.208157 -7.141132,-6.879865 -7.672106,-7.515853 -8.204025,-8.111473 -8.741140,-8.662511 -9.287855,-9.164959 -9.848756,-9.614854 -10.428653,-10.008096 -11.032628,-10.340251 -11.666087,-10.606309 -12.334825,-10.800393 -13.045080,-10.915370 -13.803577,-10.942343 -14.618023,-10.872269 -15.497078,-10.694418 -16.449914,-10.393224 -16.449914,-10.393224 -17.515059,-9.966007 -18.398462,-9.542182 -19.105453,-9.120627 -19.642607,-8.701400 -20.017099,-8.283607 -20.237934,-7.869857 -20.314617,-7.461960 -20.257193,-7.061578 -20.075270,-6.667421 -19.779425,-6.280147 -19.380333,-5.899778 -18.888549,-5.525173 -18.314443,-5.153870 -17.668713,-4.783876 -16.962112,-4.412783 -16.205475,-4.037842 -15.409745,-3.656007 -14.586005,-3.263962 -13.745511,-2.858138 -12.899738,-2.434719 -12.060420,-1.989640 -11.239609,-1.518572 -10.449741,-1.016914 -9.703707,-0.479763 -9.014940,0.098109 -8.397519,0.722316 -7.866296,1.398819 -7.437033,2.134040 -7.126561,2.934998 -7.126561,2.934998 -6.926092,3.587533 -6.688923,4.295671 -6.412200,5.059068 -6.093062,5.876034 -5.728831,6.741749 -5.316588,7.651530 -4.853043,8.602273 -4.334783,9.590380 -3.758288,10.611782 -3.119945,11.662087 -2.416120,12.736153 -1.643200,13.827995 -0.797623,14.931498 0.123999,16.039364 1.124814,17.143528 2.207607,18.235471 3.374680,19.305521 4.627748,20.342935 5.967714,21.336660 7.394585,22.274552 8.907296,23.143779 10.503563,23.930965 12.179743,24.622382 13.930724,25.204193 15.749835,25.662741 17.628809,25.984882 19.557795,26.158350 21.525506,26.172017 23.519248,26.016478 23.519248,26.016478 23.496539,25.992969 23.429240,25.924018 23.318695,25.812097 23.166372,25.659791 22.973842,25.469780 22.742760,25.244809 22.474891,24.987595 22.172022,24.700912 21.835883,24.387661 21.468278,24.050639 21.071004,23.692612 20.645971,23.316078 20.194841,22.923841 19.719288,22.518550 19.221055,22.102569 18.701766,21.678268 18.162849,21.248191 17.605893,20.814326 17.032229,20.378932 16.443120,19.944168 15.839929,19.511662 15.223617,19.083719 14.595417,18.661656 13.956128,18.247615 13.306763,17.842834 12.647992,17.449223 11.980628,17.067906 11.305172,16.700708 10.622280,16.348547 10.622280,16.348547 10.198972,16.127922 9.818228,15.912256 9.477752,15.701742 9.175244,15.496783 8.908494,15.297566 8.675388,15.103976 8.473725,14.916508 8.301406,14.735352 8.156364,14.560685 8.036569,14.392673 7.940050,14.231327 7.864797,14.077026 7.808869,13.929948 7.770349,13.790271 7.747346,13.658175 7.737990,13.533843 7.740436,13.417457 7.752856,13.309205 7.773443,13.209275 7.800402,13.117860 7.831957,13.035157 7.866339,12.961366 7.901792,12.896692 7.936569,12.841347 7.968926,12.795543 7.997124,12.759504 8.019422,12.733465 8.034081,12.717662 8.039356,12.712339 8.039356,12.712339 8.046803,12.706460 8.068791,12.689877 8.104787,12.664168 8.154252,12.630911 8.216640,12.591697 8.291407,12.548105 8.378010,12.501711 8.475913,12.454083 8.584589,12.406783 8.703521,12.361362 8.832203,12.319366 8.970148,12.282334 9.116880,12.251801 9.271947,12.229300 9.434912,12.216366 9.605359,12.214538 9.782895,12.225366 9.967149,12.250415 10.157787,12.291200 10.354502,12.349270 10.556969,12.426388 10.764914,12.524244 10.978091,12.644581 11.196277,12.789204 11.419343,12.959739 11.647076,13.158346 11.879331,13.387136 12.116000,13.648295 12.357101,13.943799 12.357101,13.943799 12.674926,14.318103 13.039997,14.685084 13.449011,15.043872 13.898277,15.394513 14.384223,15.736282 14.903055,16.068814 15.450841,16.391807 16.023711,16.704481 16.617408,17.006821 17.227879,17.298003 17.850715,17.577853 18.481526,17.845910 19.115912,18.101543 19.749152,18.344647 20.376721,18.574529 20.993848,18.790882 21.595671,18.993440 22.177481,19.181568 22.734344,19.354985 23.261284,19.513426 23.753377,19.656515 24.205836,19.783657 24.613584,19.894764 24.971711,19.989517 25.275345,20.067613 25.519666,20.128770 25.699914,20.172728 25.811412,20.199252 25.849579,20.208136 25.849579,20.208136 25.836227,20.184026 25.796239,20.113459 25.729786,19.999188 25.637125,19.844091 25.518581,19.651141 25.374546,19.423379 25.205460,19.163882 25.011806,18.875744 24.794095,18.562047 24.552922,18.225745 24.288848,17.869807 24.002344,17.497299 23.693945,17.111093 23.364216,16.713897 23.013746,16.308231 22.642871,15.896927 22.252021,15.482480 21.841784,15.066893 21.412315,14.652811 20.963933,14.242366 20.497025,13.837313 20.011583,13.440032 19.507868,13.052084 18.985859,12.675431 18.445534,12.311796 17.886861,11.962668 17.309568,11.629898 16.713530,11.314673 16.098271,11.018867 16.098271,11.018867 15.677146,10.816817 15.296582,10.615844 14.954535,10.416320 14.648980,10.218605 14.377788,10.023462 14.138945,9.831361 13.930524,9.642535 13.750515,9.457584 13.596954,9.277044 13.467929,9.101346 13.361556,8.930913 13.276017,8.766006 13.209448,8.607160 13.160026,8.454832 13.125969,8.309425 13.105520,8.171336 13.096941,8.040960 13.098520,7.918691 13.108560,7.804922 13.125386,7.700046 13.147338,7.604459 13.172770,7.518559 13.200056,7.442720 13.227567,7.377369 13.253686,7.322935 13.276802,7.279836 13.295307,7.248501 13.307593,7.229368 13.312048,7.222888 13.312048,7.222888 13.322953,7.216801 13.355130,7.199633 13.407756,7.173032 13.480000,7.138649 13.571022,7.098130 13.680001,7.053068 13.806090,7.005145 13.948468,6.955994 14.106324,6.907234 14.278866,6.860480 14.465326,6.817335 14.664955,6.779398 14.877035,6.748262 15.100874,6.725517 15.335813,6.712758 15.581267,6.711449 15.836634,6.723234 16.101337,6.749824 16.374854,6.792875 16.656706,6.854073 16.946511,6.934966 17.243863,7.037352 17.548358,7.163211 17.859678,7.314460 18.177661,7.492778 18.502005,7.700494 18.832495,7.939917 19.169114,8.213097 19.511723,8.522715 19.511723,8.522715 19.962084,8.948153 20.417577,9.372122 20.876856,9.794356 21.338972,10.213474 21.802435,10.629210 22.266128,11.040283 22.728592,11.446033 23.188421,11.845516 23.644274,12.237533 24.094475,12.621421 24.537602,12.995885 24.972026,13.359922 25.396011,13.712610 25.807983,14.052637 26.206220,14.378878 26.588876,14.690345 26.954179,14.985858 27.300477,15.264012 27.625849,15.523809 27.928455,15.764112 28.206485,15.983741 28.458139,16.181531 28.681700,16.356242 28.875379,16.506810 29.037420,16.632210 29.166154,16.731400 29.259969,16.803380 29.317324,16.847207 29.336753,16.862001 " />
	<polyline fill="none" stroke="black" stroke-linecap="round" stroke-linejoin="round" points = "29.918822,17.517400 29.150003,14.992706 28.351909,12.814898 27.525741,10.934524 26.672622,9.311519 25.793675,7.913001 24.890075,6.711640 23.963100,5.684414 23.014175,4.811659 22.044902,4.076329 21.057091,3.463422 20.052773,2.959522 19.034223,2.552456 18.003957,2.231024 16.964738,1.984812 15.919577,1.804052 14.871733,1.679539 13.824722,1.602572 12.782324,1.564917 11.748608,1.558776 10.727952,1.576755 9.725074,1.611817 8.745076,1.657105 7.793513,1.705455 6.876181,1.750754 5.999302,1.786769 5.169603,1.805677 4.393800,1.802679 3.679100,1.770297 3.032700,1.703045 3.032700,1.703045 2.151900,1.508469 1.299101,1.186474 0.476617,0.751675 -0.314235,0.220133 -1.073002,-0.390910 -1.800000,-1.065280 -2.496280,-1.788487 -3.163532,-2.546886 -3.803977,-3.327828 -4.420273,-4.119735 -5.015423,-4.912129 -5.592716,-5.695705 -6.155658,-6.462155 -6.707909,-7.203871 -7.253279,-7.914201 -7.795709,-8.587193 -8.339261,-9.217466 -8.888136,-9.800079 -9.446714,-10.330558 -10.019549,-10.804452 -10.611395,-11.217027 -11.227319,-11.563589 -11.872751,-11.839079 -12.553556,-12.037851 -13.276134,-12.153406 -14.047681,-12.178910 -14.876121,-12.105647 -15.770149,-11.922191 -16.740556,-11.618983 -16.740556,-11.618983 -17.826493,-11.191984 -18.728108,-10.769951 -19.450987,-10.352325 -20.001607,-9.938442 -20.387272,-9.527560 -20.617135,-9.122489 -20.699416,-8.720559 -20.644113,-8.323054 -20.461320,-7.929888 -20.161126,-7.539587 -19.754152,-7.151273 -19.251190,-6.763665 -18.663186,-6.375163 -18.001217,-5.983893 -17.276484,-5.587746 -16.500306,-5.184400 -15.684123,-4.771327 -14.839506,-4.345800 -13.978174,-3.904889 -13.112024,-3.445449 -12.253170,-2.964109 -11.413991,-2.457249 -10.607194,-1.920970 -9.845894,-1.351065 -9.143705,-0.742973 -8.514852,-0.091728 -7.974312,0.608101 -7.537968,1.362484 -7.222823,2.177925 -7.222823,2.177925 -7.019793,2.838104 -6.779946,3.551491 -6.500553,4.316052 -6.178714,5.129499 -5.811503,5.987860 -5.395826,6.886491 -4.928297,7.821042 -4.405214,8.787856 -3.822664,9.783232 -3.176567,10.803290 -2.462742,11.843769 -1.676906,12.901756 -0.814971,13.973373 0.126842,15.054778 1.151749,16.141632 2.262184,17.228095 3.459621,18.306830 4.744480,19.368259 6.116235,20.399740 7.572726,21.390217 9.111315,22.322892 10.727838,23.182521 12.416882,23.953382 14.171790,24.619663 15.984694,25.165875 17.846575,25.577261 19.747359,25.840198 21.675594,25.943239 23.618521,25.877330 23.618521,25.877330 23.596995,25.851925 23.533174,25.777366 23.428269,25.656226 23.283589,25.491182 23.100518,25.284991 22.880506,25.040467 22.624878,24.760726 22.334594,24.449545 22.011887,24.108812 21.658334,23.741386 21.275510,23.350097 20.864248,22.938994 20.426231,22.510679 19.963543,22.066880 19.477296,21.610907 18.968168,21.146872 18.438692,20.675105 17.889382,20.199737 17.321586,19.723095 16.737101,19.246204 16.135890,18.774161 15.520503,18.305615 14.890374,17.846807 14.248051,17.395546 13.592965,16.957993 12.927215,16.532303 12.250686,16.123090 11.564619,15.730352 10.869597,15.355894 10.869597,15.355894 10.437998,15.123556 10.049462,14.897872 9.701896,14.678163 9.392523,14.466985 9.119676,14.261972 8.881148,14.063266 8.674559,13.872100 8.497874,13.688149 8.349120,13.510865 8.226217,13.340422 8.127114,13.176992 8.049648,13.021578 7.991965,12.873582 7.952131,12.733017 7.928207,12.600068 7.918278,12.474917 7.920453,12.357752 7.932860,12.248761 7.953648,12.148138 7.980982,12.056077 8.013042,11.972779 8.048020,11.898448 8.084119,11.833293 8.119551,11.777528 8.152532,11.731374 8.181284,11.695057 8.204027,11.668813 8.218983,11.652882 8.224365,11.647515 8.224365,11.647515 8.231969,11.641583 8.254423,11.624846 8.291186,11.598897 8.341709,11.565331 8.405438,11.525744 8.481819,11.481727 8.570303,11.434867 8.670345,11.386743 8.781409,11.338925 8.902971,11.292977 9.034520,11.250454 9.175561,11.212904 9.325615,11.181873 9.484222,11.158903 9.650945,11.145538 9.825365,11.143327 10.007087,11.153831 10.195588,11.179338 10.390592,11.221079 10.591825,11.280434 10.798990,11.359067 11.011813,11.458688 11.229896,11.581713 11.452901,11.730420 11.680860,11.905746 11.913610,12.109688 12.150658,12.345715 12.391953,12.615756 12.637650,12.921254 12.637650,12.921254 12.960894,13.310383 13.331677,13.694224 13.746505,14.071933 14.201122,14.444715 14.692427,14.809655 15.215335,15.169586 15.767006,15.520277 16.341957,15.864788 16.937081,16.199314 17.547168,16.525442 18.168278,16.841258 18.795989,17.145962 19.425114,17.440282 20.052214,17.721028 20.671441,17.990079 21.278971,18.245021 21.870548,18.484439 22.440203,18.710067 22.984328,18.919240 23.498477,19.110959 23.977692,19.285136 24.416711,19.442163 24.811871,19.579868 25.158579,19.697721 25.452272,19.795207 25.688424,19.871831 25.862555,19.927117 25.970192,19.960672 26.006952,19.972073 26.006952,19.972073 25.994582,19.946219 25.957378,19.870656 25.895344,19.748348 25.808712,19.582137 25.697699,19.375066 25.562574,19.130238 25.403645,18.850794 25.221254,18.539886 25.015770,18.200657 24.787414,17.836494 24.535776,17.451838 24.262160,17.048232 23.966961,16.628619 23.650529,16.195916 23.311858,15.755436 22.952671,15.307422 22.573280,14.854451 22.172622,14.401695 21.752010,13.949535 21.311695,13.500181 20.850555,13.058646 20.370221,12.623831 19.869393,12.200881 19.349008,11.789689 18.808347,11.393800 18.247710,11.014080 17.666488,10.653486 17.064942,10.312418 16.442028,9.994657 16.442028,9.994657 16.015087,9.778534 15.628537,9.566215 15.280629,9.357291 14.969689,9.151007 14.693100,8.949753 14.449304,8.752449 14.236449,8.558978 14.052378,8.370358 13.894971,8.187591 13.762642,8.009807 13.653465,7.837429 13.565542,7.670869 13.496849,7.511119 13.445591,7.358397 13.410080,7.212598 13.388516,7.074123 13.379126,6.943370 13.380157,6.820736 13.389876,6.706616 13.406573,6.601407 13.428551,6.505507 13.454130,6.419317 13.481644,6.343243 13.509435,6.277699 13.535826,6.223214 13.559213,6.180058 13.577954,6.148669 13.590407,6.129496 13.594925,6.123000 13.594925,6.123000 13.606046,6.116845 13.638865,6.099474 13.692550,6.072538 13.766240,6.037763 13.859064,5.996884 13.970201,5.951454 14.098805,5.903116 14.244044,5.853508 14.405099,5.804257 14.581168,5.756980 14.771473,5.713289 14.975261,5.674785 15.191806,5.643066 15.420414,5.619729 15.660146,5.607309 15.910545,5.606795 16.171076,5.619598 16.441181,5.647359 16.720339,5.691742 17.007472,5.756316 17.302662,5.841113 17.605513,5.947912 17.915318,6.079588 18.231534,6.238667 18.554359,6.425740 18.883074,6.644273 19.217247,6.897095 19.557332,7.184890 19.902067,7.513224 19.902067,7.513224 20.354513,7.964533 20.810153,8.418236 21.268710,8.871094 21.727956,9.324462 22.187609,9.774965 22.645604,10.223208 23.101058,10.667017 23.552747,11.104913 23.998460,11.537295 24.438067,11.960295 24.868803,12.375164 25.289872,12.779227 25.700254,13.170272 26.097200,13.549125 26.479833,13.913177 26.846991,14.260367 27.196935,14.589609 27.526902,14.901414 27.836514,15.192404 28.124126,15.461313 28.388096,15.706884 28.626792,15.927874 28.837874,16.124136 29.020482,16.293361 29.173159,16.434238 29.294388,16.545633 29.382701,16.626457 29.436678,16.675668 29.454962,16.692280 " />
	<g>
		<line fill="none" stroke="black" stroke-linecap="round" stroke-linejoin="round" x1 = "29.841105" y1 = "17.625110" x2 = "29.918822" y2 = "17.517400" />
		<line fill="none" stroke="black" stroke-linecap="round" stroke-linejoin="round" x1 = "25.404914" y1 = "8.682727" x2 = "25.793675" y2 = "7.913001" />
		<line fill="none" stroke="black" stroke-linecap="round" stroke-linejoin="round" x1 = "20.646594" y1 = "4.545747" x2 = "21.057091" y2 = "3.463422" />
		<line fill="none" stroke="black" stroke-linecap="round" stroke-linejoin="round" x1 = "15.615016" y1 = "2.897953" x2 = "15.919577" y2 = "1.804052" />
		<line fill="none" stroke="black" stroke-linecap="round" stroke-linejoin="round" x1 = "10.545664" y1 = "2.552195" x2 = "10.727952" y2 = "1.576755" />
		<line fill="none" stroke="black" stroke-linecap="round" stroke-linejoin="round" x1 = "5.908844" y1 = "2.649177" x2 = "5.999302" y2 = "1.786769" />
		<line fill="none" stroke="black" stroke-linecap="round" stroke-linejoin="round" x1 = "2.990155" y1 = "2.506604" x2 = "3.032700" y2 = "1.703045" />
		<line fill="none" stroke="black" stroke-linecap="round" stroke-linejoin="round" x1 = "-1.059477" y1 = "0.357513" x2 = "-1.073002" y2 = "-0.390910" />
		<line fill="none" stroke="black" stroke-linecap="round" stroke-linejoin="round" x1 = "-4.361069" y1 = "-3.274554" x2 = "-4.420273" y2 = "-4.119735" />
		<line fill="none" stroke="black" stroke-linecap="round" stroke-linejoin="round" x1 = "-7.141132" y1 = "-6.879865" x2 = "-7.253279" y2 = "-7.914201" />
		<line fill="none" stroke="black" stroke-linecap="round" stroke-linejoin="round" x1 = "-9.848756" y1 = "-9.614854" x2 = "-10.019549" y2 = "-10.804452" />
		<line fill="none" stroke="black" stroke-linecap="round" stroke-linejoin="round" x1 = "-13.045080" y1 = "-10.915370" x2 = "-13.276134" y2 = "-12.153406" />
		<line fill="none" stroke="black" stroke-linecap="round" stroke-linejoin="round" x1 = "-16.449914" y1 = "-10.393224" x2 = "-16.740556" y2 = "-11.618983" />
		<line fill="none" stroke="black" stroke-linecap="round" stroke-linejoin="round" x1 = "-20.017099" y1 = "-8.283607" x2 = "-20.387272" y2 = "-9.527560" />
		<line fill="none" stroke="black" stroke-linecap="round" stroke-linejoin="round" x1 = "-19.779425" y1 = "-6.280147" x2 = "-20.161126" y2 = "-7.539587" />
		<line fill="none" stroke="black" stroke-linecap="round" stroke-linejoin="round" x1 = "-16.962112" y1 = "-4.412783" x2 = "-17.276484" y2 = "-5.587746" />
		<line fill="none" stroke="black" stroke-linecap="round" stroke-linejoin="round" x1 = "-12.899738" y1 = "-2.434719" x2 = "-13.112024" y2 = "-3.445449" />
		<line fill="none" stroke="black" stroke-linecap="round" stroke-linejoin="round" x1 = "-9.014940" y1 = "0.098109" x2 = "-9.143705" y2 = "-0.742973" />
		<line fill="none" stroke="black" stroke-linecap="round" stroke-linejoin="round" x1 = "-7.126561" y1 = "2.934998" x2 = "-7.222823" y2 = "2.177925" />
		<line fill="none" stroke="black" stroke-linecap="round" stroke-linejoin="round" x1 = "-5.728831" y1 = "6.741749" x2 = "-5.811503" y2 = "5.987860" />
		<line fill="none" stroke="black" stroke-linecap="round" stroke-linejoin="round" x1 = "-3.119945" y1 = "11.662087" x2 = "-3.176567" y2 = "10.803290" />
		<line fill="none" stroke="black" stroke-linecap="round" stroke-linejoin="round" x1 = "1.124814" y1 = "17.143528" x2 = "1.151749" y2 = "16.141632" />
		<line fill="none" stroke="black" stroke-linecap="round" stroke-linejoin="round" x1 = "7.394585" y1 = "22.274552" x2 = "7.572726" y2 = "21.390217" />
		<line fill="none" stroke="black" stroke-linecap="round" stroke-linejoin="round" x1 = "15.749835" y1 = "25.662741" x2 = "15.984694" y2 = "25.165875" />
		<line fill="none" stroke="black" stroke-linecap="round" stroke-linejoin="round" x1 = "23.519248" y1 = "26.016478" x2 = "23.618521" y2 = "25.877330" />
		<line fill="none" stroke="black" stroke-linecap="round" stroke-linejoin="round" x1 = "22.973842" y1 = "25.469780" x2 = "23.100518" y2 = "25.284991" />
		<line fill="none" stroke="black" stroke-linecap="round" stroke-linejoin="round" x1 = "21.468278" y1 = "24.050639" x2 = "21.658334" y2 = "23.741386" />
		<line fill="none" stroke="black" stroke-linecap="round" stroke-linejoin="round" x1 = "19.221055" y1 = "22.102569" x2 = "19.477296" y2 = "21.610907" />
		<line fill="none" stroke="black" stroke-linecap="round" stroke-linejoin="round" x1 = "16.443120" y1 = "19.944168" x2 = "16.737101" y2 = "19.246204" />
		<line fill="none" stroke="black" stroke-linecap="round" stroke-linejoin="round" x1 = "13.306763" y1 = "17.842834" x2 = "13.592965" y2 = "16.957993" />
		<line fill="none" stroke="black" stroke-linecap="round" stroke-linejoin="round" x1 = "10.622280" y1 = "16.348547" x2 = "10.869597" y2 = "15.355894" />
		<line fill="none" stroke="black" stroke-linecap="round" stroke-linejoin="round" x1 = "8.908494" y1 = "15.297566" x2 = "9.119676" y2 = "14.261972" />
		<line fill="none" stroke="black" stroke-linecap="round" stroke-linejoin="round" x1 = "8.036569" y1 = "14.392673" x2 = "8.226217" y2 = "13.340422" />
		<line fill="none" stroke="black" stroke-linecap="round" stroke-linejoin="round" x1 = "7.747346" y1 = "13.658175" x2 = "7.928207" y2 = "12.600068" />
		<line fill="none" stroke="black" stroke-linecap="round" stroke-linejoin="round" x1 = "7.800402" y1 = "13.117860" x2 = "7.980982" y2 = "12.056077" />
		<line fill="none" stroke="black" stroke-linecap="round" stroke-linejoin="round" x1 = "7.968926" y1 = "12.795543" x2 = "8.152532" y2 = "11.731374" />
		<line fill="none" stroke="black" stroke-linecap="round" stroke-linejoin="round" x1 = "8.039356" y1 = "12.712339" x2 = "8.224365" y2 = "11.647515" />
		<line fill="none" stroke="black" stroke-linecap="round" stroke-linejoin="round" x1 = "8.216640" y1 = "12.591697" x2 = "8.405438" y2 = "11.525744" />
		<line fill="none" stroke="black" stroke-linecap="round" stroke-linejoin="round" x1 = "8.703521" y1 = "12.361362" x2 = "8.902971" y2 = "11.292977" />
		<line fill="none" stroke="black" stroke-linecap="round" stroke-linejoin="round" x1 = "9.434912" y1 = "12.216366" x2 = "9.650945" y2 = "11.145538" />
		<line fill="none" stroke="black" stroke-linecap="round" stroke-linejoin="round" x1 = "10.354502" y1 = "12.349270" x2 = "10.591825" y2 = "11.280434" />
		<line fill="none" stroke="black" stroke-linecap="round" stroke-linejoin="round" x1 = "11.419343" y1 = "12.959739" x2 = "11.680860" y2 = "11.905746" />
		<line fill="none" stroke="black" stroke-linecap="round" stroke-linejoin="round" x1 = "12.357101" y1 = "13.943799" x2 = "12.637650" y2 = "12.921254" />
		<line fill="none" stroke="black" stroke-linecap="round" stroke-linejoin="round" x1 = "14.384223" y1 = "15.736282" x2 = "14.692427" y2 = "14.809655" />
		<line fill="none" stroke="black" stroke-linecap="round" stroke-linejoin="round" x1 = "17.227879" y1 = "17.298003" x2 = "17.547168" y2 = "16.525442" />
		<line fill="none" stroke="black" stroke-linecap="round" stroke-linejoin="round" x1 = "20.376721" y1 = "18.574529" x2 = "20.671441" y2 = "17.990079" />
		<line fill="none" stroke="black" stroke-linecap="round" stroke-linejoin="round" x1 = "23.261284" y1 = "19.513426" x2 = "23.498477" y2 = "19.110959" />
		<line fill="none" stroke="black" stroke-linecap="round" stroke-linejoin="round" x1 = "25.275345" y1 = "20.067613" x2 = "25.452272" y2 = "19.795207" />
		<line fill="none" stroke="black" stroke-linecap="round" stroke-linejoin="round" x1 = "25.849579" y1 = "20.208136" x2 = "26.006952" y2 = "19.972073" />
		<line fill="none" stroke="black" stroke-linecap="round" stroke-linejoin="round" x1 = "25.518581" y1 = "19.651141" x2 = "25.697699" y2 = "19.375066" />
		<line fill="none" stroke="black" stroke-linecap="round" stroke-linejoin="round" x1 = "24.552922" y1 = "18.225745" x2 = "24.787414" y2 = "17.836494" />
		<line fill="none" stroke="black" stroke-linecap="round" stroke-linejoin="round" x1 = "23.013746" y1 = "16.308231" x2 = "23.311858" y2 = "15.755436" />
		<line fill="none" stroke="black" stroke-linecap="round" stroke-linejoin="round" x1 = "20.963933" y1 = "14.242366" x2 = "21.311695" y2 = "13.500181" />
		<line fill="none" stroke="black" stroke-linecap="round" stroke-linejoin="round" x1 = "18.445534" y1 = "12.311796" x2 = "18.808347" y2 = "11.393800" />
		<line fill="none" stroke="black" stroke-linecap="round" stroke-linejoin="round" x1 = "16.098271" y1 = "11.018867" x2 = "16.442028" y2 = "9.994657" />
		<line fill="none" stroke="black" stroke-linecap="round" stroke-linejoin="round" x1 = "14.377788" y1 = "10.023462" x2 = "14.693100" y2 = "8.949753" />
		<line fill="none" stroke="black" stroke-linecap="round" stroke-linejoin="round" x1 = "13.467929" y1 = "9.101346" x2 = "13.762642" y2 = "8.009807" />
		<line fill="none" stroke="black" stroke-linecap="round" stroke-linejoin="round" x1 = "13.125969" y1 = "8.309425" x2 = "13.410080" y2 = "7.212598" />
		<line fill="none" stroke="black" stroke-linecap="round" stroke-linejoin="round" x1 = "13.125386" y1 = "7.700046" x2 = "13.406573" y2 = "6.601407" />
		<line fill="none" stroke="black" stroke-linecap="round" stroke-linejoin="round" x1 = "13.253686" y1 = "7.322935" x2 = "13.535826" y2 = "6.223214" />
		<line fill="none" stroke="black" stroke-linecap="round" stroke-linejoin="round" x1 = "13.312048" y1 = "7.222888" x2 = "13.594925" y2 = "6.123000" />
		<line fill="none" stroke="black" stroke-linecap="round" stroke-linejoin="round" x1 = "13.571022" y1 = "7.098130" x2 = "13.859064" y2 = "5.996884" />
		<line fill="none" stroke="black" stroke-linecap="round" stroke-linejoin="round" x1 = "14.278866" y1 = "6.860480" x2 = "14.581168" y2 = "5.756980" />
		<line fill="none" stroke="black" stroke-linecap="round" stroke-linejoin="round" x1 = "15.335813" y1 = "6.712758" x2 = "15.660146" y2 = "5.607309" />
		<line fill="none" stroke="black" stroke-linecap="round" stroke-linejoin="round" x1 = "16.656706" y1 = "6.854073" x2 = "17.007472" y2 = "5.756316" />
		<line fill="none" stroke="black" stroke-linecap="round" stroke-linejoin="round" x1 = "18.177661" y1 = "7.492778" x2 = "18.554359" y2 = "6.425740" />
		<line fill="none" stroke="black" stroke-linecap="round" stroke-linejoin="round" x1 = "19.511723" y1 = "8.522715" x2 = "19.902067" y2 = "7.513224" />
		<line fill="none" stroke="black" stroke-linecap="round" stroke-linejoin="round" x1 = "21.802435" y1 = "10.629210" x2 = "22.187609" y2 = "9.774965" />
		<line fill="none" stroke="black" stroke-linecap="round" stroke-linejoin="round" x1 = "24.094475" y1 = "12.621421" x2 = "24.438067" y2 = "11.960295" />
		<line fill="none" stroke="black" stroke-linecap="round" stroke-linejoin="round" x1 = "26.206220" y1 = "14.378878" x2 = "26.479833" y2 = "13.913177" />
		<line fill="none" stroke="black" stroke-linecap="round" stroke-linejoin="round" x1 = "27.928455" y1 = "15.764112" x2 = "28.124126" y2 = "15.461313" />
		<line fill="none" stroke="black" stroke-linecap="round" stroke-linejoin="round" x1 = "29.037420" y1 = "16.632210" x2 = "29.173159" y2 = "16.434238" />
	</g>
</svg>