<svg version="1.1" id="trace" 
xmlns="http://www.w3.org/2000/svg" xmlns:xlink="http://www.w3.org/1999/xlink" 
viewBox="0 0 200 100" 
style="enable-background:new 0 0 200 100;" xml:space="preserve" >
	<polyline fill="none" stroke="black" stroke-linecap="round" stroke-linejoin="round" points = "26.407535,-2.399930 24.955774,-2.888393 23.601207,-3.289957 22.334833,-3.615905 21.148007,-3.875981 20.032402,-4.078397 18.980055,-4.230062 17.983229,-4.336320 17.034719,-4.401989 16.127733,-4.431287 15.255857,-4.427966 14.413027,-4.395440 13.593490,-4.336898 12.791785,-4.255405 12.002708,-4.153994 11.221454,-4.036515 10.443382,-3.906909 9.663633,-3.767201 8.877803,-3.620859 8.082053,-3.474221 7.271790,-3.328336 6.443110,-3.187611 5.592411,-3.058343 4.715663,-2.942078 3.809472,-2.844620 2.870471,-2.770998 1.895362,-2.723894 0.881271,-2.710218 -0.174580,-2.727778 -1.274255,-2.779221 -1.274255,-2.779221 -2.896629,-2.890175 -4.470662,-3.027491 -5.990633,-3.184985 -7.451777,-3.356740 -8.850318,-3.537222 -10.182963,-3.718598 -11.448266,-3.898783 -12.645621,-4.074750 -13.775010,-4.242474 -14.837455,-4.399427 -15.835368,-4.545720 -16.771298,-4.679698 -17.648393,-4.800205 -18.470273,-4.906395 -19.240395,-4.996086 -19.962138,-5.066404 -20.638658,-5.113595 -21.272756,-5.132864 -21.866792,-5.118270 -22.422625,-5.062684 -22.941773,-4.958222 -23.427455,-4.800999 -23.878920,-4.577544 -24.300020,-4.284901 -24.690766,-3.910794 -25.052887,-3.446296 -25.388357,-2.882096 -25.699099,-2.207594 -25.986996,-1.410596 -25.986996,-1.410596 -26.236190,-0.457740 -26.340683,0.385189 -26.303312,1.117839 -26.129814,1.738806 -25.825968,2.250590 -25.400615,2.653440 -24.861917,2.951710 -24.218369,3.151449 -23.479095,3.259335 -22.653116,3.283627 -21.749310,3.233904 -20.776414,3.120806 -19.742888,2.956130 -18.657309,2.751763 -17.528281,2.519581 -16.364384,2.271273 -15.174122,2.018142 -13.965854,1.770957 -12.747653,1.540072 -11.527387,1.334784 -10.312582,1.163358 -9.110003,1.034724 -7.926086,0.956584 -6.766734,0.936141 -5.637278,0.980505 -4.542525,1.096730 -3.486746,1.292725 -2.473668,1.580256 -1.507261,1.963372 -1.507261,1.963372 -0.793030,2.306748 -0.055221,2.681685 0.707906,3.085102 1.498059,3.510629 2.316962,3.952977 3.166192,4.408862 4.047223,4.874019 4.961565,5.342487 5.910263,5.811539 6.894568,6.274776 7.915516,6.726577 8.973693,7.162593 10.069702,7.576836 11.203949,7.963162 12.376609,8.315320 13.587588,8.627010 14.836473,8.891965 16.122469,9.104027 17.444329,9.257254 18.800271,9.346021 20.188368,9.364160 21.605042,9.308064 23.046212,9.174001 24.506493,8.959668 25.979133,8.664170 27.456581,8.287115 28.929926,7.829704 30.390090,7.293144 31.828824,6.677732 31.828824,6.677732 31.796499,6.671326 31.701792,6.652726 31.548151,6.622870 31.339076,6.582706 31.078100,6.533186 30.768747,6.475321 30.413235,6.412009 30.016397,6.342458 29.581184,6.268547 29.110790,6.191825 28.609233,6.112578 28.079422,6.032731 27.525254,5.952643 26.950167,5.873301 26.357335,5.796051 25.750699,5.720871 25.133388,5.648970 24.508899,5.580818 23.880699,5.516774 23.251984,5.457550 22.626073,5.403477 22.006088,5.355112 21.395055,5.313077 20.796185,5.277459 20.212133,5.249412 19.645876,5.229316 19.100284,5.217687 18.577772,5.216075 18.081587,5.224016 18.081587,5.224016 17.765832,5.225030 17.445568,5.210524 17.122356,5.181057 16.797116,5.138807 16.471298,5.084549 16.146521,5.018476 15.823551,4.943070 15.503622,4.859479 15.188529,4.767088 14.878824,4.668824 14.575657,4.565821 14.280435,4.458288 13.994195,4.347465 13.717739,4.235289 13.452113,4.122850 13.198582,4.010378 12.958074,3.899142 12.731365,3.790918 12.519421,3.686754 12.323196,3.587687 12.143739,3.494338 11.982040,3.407497 11.838834,3.328928 11.715052,3.259645 11.611630,3.200664 11.529508,3.153001 11.469638,3.117676 11.432989,3.095718 11.420549,3.088166 11.420549,3.088166 11.427109,3.086240 11.446798,3.080750 11.479628,3.072130 11.525606,3.060814 11.584737,3.047235 11.657027,3.031829 11.742480,3.015028 11.841100,2.997266 11.952893,2.978974 12.077867,2.960585 12.216052,2.942448 12.367678,2.924169 12.532555,2.906995 12.710707,2.891355 12.902163,2.877675 13.106961,2.866384 13.325170,2.857816 13.557215,2.851100 13.802799,2.847970 14.061993,2.848855 14.334881,2.854186 14.622029,2.862879 14.923204,2.876541 15.238450,2.895874 15.568216,2.920383 15.912728,2.950364 16.271836,2.987279 16.646184,3.030307 17.035862,3.080348 17.035862,3.080348 17.508628,3.137214 17.969536,3.177529 18.417523,3.203610 18.852601,3.215083 19.273663,3.214499 19.680898,3.201285 20.073264,3.177944 20.450739,3.144605 20.812743,3.102792 21.158924,3.053550 21.489116,2.997582 21.802824,2.936372 22.099907,2.870670 22.380105,2.801544 22.643156,2.730092 22.888894,2.657249 23.117159,2.583974 23.327794,2.511236 23.520669,2.439978 23.695613,2.371240 23.852547,2.305885 23.991395,2.244787 24.112056,2.188866 24.214435,2.139040 24.298436,2.096222 24.363960,2.061325 24.410872,2.035325 24.439097,2.019071 24.448534,2.013448 24.448534,2.013448 24.437089,2.007133 24.403228,1.988802 24.347666,1.959420 24.271120,1.919996 24.174389,1.871416 24.058252,1.814630 23.923496,1.750591 23.770914,1.680249 23.601299,1.604551 23.415435,1.524460 23.214049,1.441032 22.997984,1.355066 22.768009,1.267481 22.524884,1.179182 22.269370,1.091029 22.002176,1.003947 21.724012,0.918816 21.435673,0.836262 21.137770,0.757276 20.830908,0.682801 20.515931,0.613163 20.193293,0.549536 19.863524,0.492872 19.527558,0.443034 19.185534,0.401820 18.838182,0.369464 18.486054,0.346585 18.129313,0.334787 17.768938,0.333386 17.768938,0.333386 17.509234,0.334608 17.243551,0.331882 16.973428,0.324390 16.699747,0.313181 16.423544,0.298879 16.146141,0.281209 15.868815,0.259991 15.592343,0.236569 15.317840,0.211244 15.046846,0.182876 14.780074,0.152976 14.518538,0.122099 14.263349,0.090434 14.015968,0.056887 13.777008,0.023321 13.547527,-0.009961 13.328576,-0.042652 13.121430,-0.075327 12.927006,-0.107251 12.746201,-0.137588 12.580047,-0.166032 12.429576,-0.192275 12.295816,-0.216011 12.179805,-0.236973 12.082715,-0.255454 12.005393,-0.270375 11.948871,-0.281423 11.914190,-0.288283 11.902396,-0.290640 11.902396,-0.290640 11.911734,-0.297155 11.939371,-0.315978 11.984729,-0.346019 12.047215,-0.386180 12.126228,-0.435358 12.221221,-0.492710 12.331645,-0.557385 12.456789,-0.627875 12.596042,-0.703084 12.748798,-0.781919 12.914457,-0.863298 13.092430,-0.946147 13.282231,-1.029759 13.483479,-1.113770 13.695377,-1.196164 13.917391,-1.275900 14.149003,-1.351947 14.390021,-1.424380 14.639844,-1.491693 14.897862,-1.552319 15.163638,-1.605244 15.437241,-1.651076 15.717874,-1.687390 16.005118,-1.712994 16.298971,-1.727951 16.599010,-1.730853 16.904720,-1.719944 17.216168,-1.695173 17.533011,-1.655112 17.533011,-1.655112 17.949853,-1.598514 18.372838,-1.555358 18.799766,-1.523117 19.229721,-1.502867 19.660535,-1.492217 20.091179,-1.491816 20.519626,-1.499661 20.944682,-1.515874 21.364496,-1.538888 21.777727,-1.568368 22.182691,-1.603123 22.577933,-1.642472 22.961945,-1.685578 23.333150,-1.731421 23.690259,-1.779587 24.031566,-1.828710 24.355935,-1.878642 24.661808,-1.928280 24.947804,-1.976880 25.212819,-2.024241 25.455225,-2.069050 25.673816,-2.110847 25.867489,-2.149358 26.034940,-2.183878 26.174699,-2.213369 26.285507,-2.237205 26.366268,-2.255094 26.415683,-2.266340 26.432447,-2.270244 " />
	<polyline fill="none" stroke="black" stroke-linecap="round" stroke-linejoin="round" points = "26.522353,-2.628275 25.103696,-3.202583 23.779964,-3.694474 22.540583,-4.110908 21.376037,-4.458180 20.277694,-4.742023 19.237657,-4.967692 18.248657,-5.140058 17.303949,-5.263672 16.397233,-5.342829 15.522583,-5.381625 14.674394,-5.383998 13.847330,-5.353772 13.036269,-5.294626 12.236304,-5.210237 11.442716,-5.104327 10.650926,-4.980568 9.856500,-4.842648 9.055136,-4.694290 8.242645,-4.539109 7.415016,-4.381030 6.568373,-4.223950 5.698991,-4.071784 4.803329,-3.928485 3.878048,-3.798029 2.920045,-3.684399 1.926484,-3.591550 0.894836,-3.523387 -0.177083,-3.485336 -1.291244,-3.484490 -1.291244,-3.484490 -2.932275,-3.542485 -4.523256,-3.652715 -6.060539,-3.806992 -7.541051,-3.997383 -8.962322,-4.216250 -10.322468,-4.456156 -11.620304,-4.710522 -12.855023,-4.972146 -14.026597,-5.235321 -15.135415,-5.494231 -16.182291,-5.743306 -17.168434,-5.977286 -18.095401,-6.191209 -18.965052,-6.380388 -19.779508,-6.540382 -20.541113,-6.666962 -21.252405,-6.756068 -21.916082,-6.803756 -22.534204,-6.804183 -23.110076,-6.754467 -23.646051,-6.648988 -24.145077,-6.483267 -24.609276,-6.250459 -25.041839,-5.945695 -25.445142,-5.561542 -25.821482,-5.089596 -26.173145,-4.520410 -26.502705,-3.843814 -26.812064,-3.046599 -26.812064,-3.046599 -27.086172,-2.096267 -27.209764,-1.255697 -27.184995,-0.524647 -27.015173,0.099560 -26.706699,0.618180 -26.265483,1.037305 -25.700229,1.361315 -25.020105,1.596639 -24.234420,1.751878 -23.354090,1.834383 -22.390054,1.852670 -21.353317,1.815818 -20.254888,1.733057 -19.105606,1.613642 -17.915983,1.466762 -16.696076,1.301454 -15.455390,1.126557 -14.202806,0.950670 -12.946544,0.782149 -11.694134,0.629118 -10.452427,0.499499 -9.227611,0.401069 -8.025244,0.341551 -6.850324,0.328586 -5.707319,0.369992 -4.600240,0.473892 -3.532728,0.648835 -2.508133,0.903985 -1.529610,1.249341 -1.529610,1.249341 -0.805434,1.558907 -0.056134,1.897881 0.720270,2.263613 1.525606,2.653575 2.361568,3.064208 3.229735,3.491524 4.131538,3.931447 5.068244,4.379755 6.040926,4.832015 7.050438,5.283578 8.097389,5.729577 9.182111,6.164928 10.304628,6.584343 11.464628,6.982349 12.661432,7.353306 13.893966,7.691452 15.160735,7.990934 16.459806,8.245869 17.788791,8.450398 19.144829,8.598778 20.524600,8.685411 21.924354,8.704910 23.339888,8.652251 24.766596,8.522826 26.199503,8.312532 27.633337,8.017821 29.062571,7.635810 30.481505,7.164324 31.920715,6.552317 31.920715,6.552317 31.888644,6.545419 31.794675,6.525376 31.642220,6.493178 31.434735,6.449818 31.148446,6.434532 30.845055,6.367083 30.497598,6.290772 30.109521,6.206646 29.684307,6.115683 29.225329,6.018993 28.736005,5.917582 28.219710,5.812474 27.679770,5.704714 27.119505,5.595292 26.542166,5.485242 25.950988,5.375549 25.349150,5.267216 24.739798,5.161229 24.126035,5.058565 23.510924,4.960197 22.897488,4.867092 22.288723,4.780198 21.687571,4.700493 21.096979,4.628886 20.519820,4.566380 19.959003,4.513852 19.417355,4.472324 18.897760,4.442668 18.403036,4.425900 18.403036,4.425900 18.087829,4.411361 17.767626,4.381493 17.443765,4.337524 17.117578,4.280671 16.790416,4.212056 16.463580,4.132880 16.138299,4.044484 15.815874,3.947940 15.497534,3.844434 15.184458,3.735223 14.877815,3.621506 14.578782,3.504360 14.288481,3.384943 14.007976,3.264507 13.738359,3.144118 13.480696,3.024841 13.236015,2.907779 13.005309,2.794080 12.789567,2.684845 12.589794,2.581051 12.406958,2.483752 12.242018,2.393999 12.095930,2.312834 11.969641,2.241322 11.864105,2.180521 11.780299,2.131406 11.719199,2.095017 11.681796,2.072405 11.669099,2.064629 11.669099,2.064629 11.675774,2.062774 11.695811,2.057500 11.729220,2.049244 11.776011,2.038444 11.836189,2.025537 11.909760,2.010962 11.996726,1.995155 12.097077,1.978618 12.210828,1.961741 12.337988,1.944950 12.478564,1.928679 12.632570,1.913362 12.800020,1.899430 12.980934,1.887317 13.175323,1.877517 13.383213,1.870470 13.604661,1.866543 13.839715,1.866167 14.088430,1.869772 14.350835,1.877911 14.627026,1.890945 14.917100,1.909271 15.221156,1.933328 15.539251,1.963722 15.871558,2.000747 16.218217,2.044846 16.579340,2.096599 16.955123,2.156396 17.345769,2.224659 17.345769,2.224659 17.819034,2.304299 18.279267,2.368435 18.725940,2.417984 19.158581,2.453838 19.576788,2.476824 19.980119,2.487978 20.368253,2.488126 20.740862,2.478217 21.097619,2.459263 21.438292,2.432140 21.762641,2.397804 22.070428,2.357269 22.361491,2.311427 22.635665,2.261230 22.892798,2.207635 23.132755,2.151594 23.355437,2.094019 23.560742,2.035838 23.748584,1.977976 23.918879,1.921355 24.071554,1.866886 24.206545,1.815466 24.323785,1.767996 24.423207,1.725373 24.504741,1.688492 24.568313,1.658246 24.613842,1.635528 24.641236,1.621237 24.650393,1.616271 24.650393,1.616271 24.639177,1.609267 24.605995,1.588893 24.551563,1.556119 24.476613,1.511924 24.381888,1.457292 24.268145,1.393211 24.136142,1.320671 23.986643,1.240657 23.820412,1.154154 23.638206,1.062145 23.440777,0.965608 23.228877,0.865498 23.003241,0.762771 22.764594,0.658373 22.513643,0.553248 22.251075,0.448343 21.977580,0.344548 21.693818,0.242771 21.400426,0.143920 21.098011,0.048919 20.787193,-0.041395 20.468552,-0.126146 20.142623,-0.204407 19.809956,-0.275345 19.471075,-0.338117 19.126450,-0.391806 18.776551,-0.435546 18.421847,-0.468519 18.062737,-0.489778 18.062737,-0.489778 17.803724,-0.502708 17.538575,-0.519923 17.268442,-0.541075 16.994446,-0.565724 16.717753,-0.593579 16.439514,-0.624321 16.160865,-0.657601 15.882894,-0.692937 15.606767,-0.730108 15.333603,-0.768775 15.064506,-0.808567 14.800549,-0.849037 14.542870,-0.889970 14.292559,-0.931024 14.050699,-0.971853 13.818331,-1.011982 13.596570,-1.051222 13.386482,-1.089235 13.189130,-1.125687 13.005569,-1.160230 12.836832,-1.192440 12.684002,-1.222100 12.548128,-1.248880 12.430263,-1.272448 12.331457,-1.292474 12.252762,-1.308628 12.195236,-1.320578 12.159938,-1.327992 12.147934,-1.330538 12.147934,-1.330538 12.157409,-1.336952 12.185452,-1.355473 12.231478,-1.385012 12.294887,-1.424473 12.375066,-1.472753 12.471398,-1.528749 12.583257,-1.591361 12.710022,-1.659488 12.851068,-1.732039 13.005778,-1.807926 13.173513,-1.885958 13.353696,-1.965165 13.545740,-2.044495 13.749067,-2.122900 13.963117,-2.199342 14.187316,-2.272682 14.421156,-2.341966 14.664137,-2.406218 14.915775,-2.464436 15.175578,-2.515528 15.443107,-2.558518 15.717958,-2.592474 15.999736,-2.616399 16.288022,-2.629156 16.582503,-2.629851 16.882856,-2.617481 17.188759,-2.590945 17.499932,-2.549181 17.816147,-2.491187 17.816147,-2.491187 18.231805,-2.410872 18.652437,-2.341729 19.076504,-2.283292 19.502397,-2.234850 19.928609,-2.195932 20.353586,-2.165884 20.775810,-2.144103 21.193800,-2.130015 21.606045,-2.122928 22.011118,-2.122292 22.407565,-2.127442 22.793976,-2.137758 23.168965,-2.152630 23.531145,-2.171394 23.879178,-2.193449 24.211734,-2.218164 24.527496,-2.244903 24.825173,-2.273046 25.103487,-2.301971 25.361178,-2.331062 25.596992,-2.359694 25.809685,-2.387250 25.998023,-2.413113 26.160778,-2.436677 26.296724,-2.457336 26.404627,-2.474468 26.483248,-2.487462 26.531345,-2.495708 26.547660,-2.498593 " />
	<g>
		<line fill="none" stroke="black" stroke-linecap="round" stroke-linejoin="round" x1 = "26.407535" y1 = "-2.399930" x2 = "26.522353" y2 = "-2.628275" />
		<line fill="none" stroke="black" stroke-linecap="round" stroke-linejoin="round" x1 = "20.032402" y1 = "-4.078397" x2 = "20.277694" y2 = "-4.742023" />
		<line fill="none" stroke="black" stroke-linecap="round" stroke-linejoin="round" x1 = "15.255857" y1 = "-4.427966" x2 = "15.522583" y2 = "-5.381625" />
		<line fill="none" stroke="black" stroke-linecap="round" stroke-linejoin="round" x1 = "11.221454" y1 = "-4.036515" x2 = "11.442716" y2 = "-5.104327" />
		<line fill="none" stroke="black" stroke-linecap="round" stroke-linejoin="round" x1 = "7.271790" y1 = "-3.328336" x2 = "7.415016" y2 = "-4.381030" />
		<line fill="none" stroke="black" stroke-linecap="round" stroke-linejoin="round" x1 = "2.870471" y1 = "-2.770998" x2 = "2.920045" y2 = "-3.684399" />
		<line fill="none" stroke="black" stroke-linecap="round" stroke-linejoin="round" x1 = "-1.274255" y1 = "-2.779221" x2 = "-1.291244" y2 = "-3.484490" />
		<line fill="none" stroke="black" stroke-linecap="round" stroke-linejoin="round" x1 = "-8.850318" y1 = "-3.537222" x2 = "-8.962322" y2 = "-4.216250" />
		<line fill="none" stroke="black" stroke-linecap="round" stroke-linejoin="round" x1 = "-14.837455" y1 = "-4.399427" x2 = "-15.135415" y2 = "-5.494231" />
		<line fill="none" stroke="black" stroke-linecap="round" stroke-linejoin="round" x1 = "-19.240395" y1 = "-4.996086" x2 = "-19.779508" y2 = "-6.540382" />
		<line fill="none" stroke="black" stroke-linecap="round" stroke-linejoin="round" x1 = "-22.422625" y1 = "-5.062684" x2 = "-23.110076" y2 = "-6.754467" />
		<line fill="none" stroke="black" stroke-linecap="round" stroke-linejoin="round" x1 = "-24.690766" y1 = "-3.910794" x2 = "-25.445142" y2 = "-5.561542" />
		<line fill="none" stroke="black" stroke-linecap="round" stroke-linejoin="round" x1 = "-25.986996" y1 = "-1.410596" x2 = "-26.812064" y2 = "-3.046599" />
		<line fill="none" stroke="black" stroke-linecap="round" stroke-linejoin="round" x1 = "-25.825968" y1 = "2.250590" x2 = "-26.706699" y2 = "0.618180" />
		<line fill="none" stroke="black" stroke-linecap="round" stroke-linejoin="round" x1 = "-22.653116" y1 = "3.283627" x2 = "-23.354090" y2 = "1.834383" />
		<line fill="none" stroke="black" stroke-linecap="round" stroke-linejoin="round" x1 = "-17.528281" y1 = "2.519581" x2 = "-17.915983" y2 = "1.466762" />
		<line fill="none" stroke="black" stroke-linecap="round" stroke-linejoin="round" x1 = "-11.527387" y1 = "1.334784" x2 = "-11.694134" y2 = "0.629118" />
		<line fill="none" stroke="black" stroke-linecap="round" stroke-linejoin="round" x1 = "-5.637278" y1 = "0.980505" x2 = "-5.707319" y2 = "0.369992" />
		<line fill="none" stroke="black" stroke-linecap="round" stroke-linejoin="round" x1 = "-1.507261" y1 = "1.963372" x2 = "-1.529610" y2 = "1.249341" />
		<line fill="none" stroke="black" stroke-linecap="round" stroke-linejoin="round" x1 = "2.316962" y1 = "3.952977" x2 = "2.361568" y2 = "3.064208" />
		<line fill="none" stroke="black" stroke-linecap="round" stroke-linejoin="round" x1 = "6.894568" y1 = "6.274776" x2 = "7.050438" y2 = "5.283578" />
		<line fill="none" stroke="black" stroke-linecap="round" stroke-linejoin="round" x1 = "12.376609" y1 = "8.315320" x2 = "12.661432" y2 = "7.353306" />
		<line fill="none" stroke="black" stroke-linecap="round" stroke-linejoin="round" x1 = "18.800271" y1 = "9.346021" x2 = "19.144829" y2 = "8.598778" />
		<line fill="none" stroke="black" stroke-linecap="round" stroke-linejoin="round" x1 = "25.979133" y1 = "8.664170" x2 = "26.199503" y2 = "8.312532" />
		<line fill="none" stroke="black" stroke-linecap="round" stroke-linejoin="round" x1 = "31.828824" y1 = "6.677732" x2 = "31.920715" y2 = "6.552317" />
		<line fill="none" stroke="black" stroke-linecap="round" stroke-linejoin="round" x1 = "31.078100" y1 = "6.533186" x2 = "31.148446" y2 = "6.434532" />
		<line fill="none" stroke="black" stroke-linecap="round" stroke-linejoin="round" x1 = "29.110790" y1 = "6.191825" x2 = "29.225329" y2 = "6.018993" />
		<line fill="none" stroke="black" stroke-linecap="round" stroke-linejoin="round" x1 = "26.357335" y1 = "5.796051" x2 = "26.542166" y2 = "5.485242" />
		<line fill="none" stroke="black" stroke-linecap="round" stroke-linejoin="round" x1 = "23.251984" y1 = "5.457550" x2 = "23.510924" y2 = "4.960197" />
		<line fill="none" stroke="black" stroke-linecap="round" stroke-linejoin="round" x1 = "20.212133" y1 = "5.249412" x2 = "20.519820" y2 = "4.566380" />
		<line fill="none" stroke="black" stroke-linecap="round" stroke-linejoin="round" x1 = "18.081587" y1 = "5.224016" x2 = "18.403036" y2 = "4.425900" />
		<line fill="none" stroke="black" stroke-linecap="round" stroke-linejoin="round" x1 = "16.471298" y1 = "5.084549" x2 = "16.790416" y2 = "4.212056" />
		<line fill="none" stroke="black" stroke-linecap="round" stroke-linejoin="round" x1 = "14.878824" y1 = "4.668824" x2 = "15.184458" y2 = "3.735223" />
		<line fill="none" stroke="black" stroke-linecap="round" stroke-linejoin="round" x1 = "13.452113" y1 = "4.122850" x2 = "13.738359" y2 = "3.144118" />
		<line fill="none" stroke="black" stroke-linecap="round" stroke-linejoin="round" x1 = "12.323196" y1 = "3.587687" x2 = "12.589794" y2 = "2.581051" />
		<line fill="none" stroke="black" stroke-linecap="round" stroke-linejoin="round" x1 = "11.611630" y1 = "3.200664" x2 = "11.864105" y2 = "2.180521" />
		<line fill="none" stroke="black" stroke-linecap="round" stroke-linejoin="round" x1 = "11.420549" y1 = "3.088166" x2 = "11.669099" y2 = "2.064629" />
		<line fill="none" stroke="black" stroke-linecap="round" stroke-linejoin="round" x1 = "11.584737" y1 = "3.047235" x2 = "11.836189" y2 = "2.025537" />
		<line fill="none" stroke="black" stroke-linecap="round" stroke-linejoin="round" x1 = "12.077867" y1 = "2.960585" x2 = "12.337988" y2 = "1.944950" />
		<line fill="none" stroke="black" stroke-linecap="round" stroke-linejoin="round" x1 = "12.902163" y1 = "2.877675" x2 = "13.175323" y2 = "1.877517" />
		<line fill="none" stroke="black" stroke-linecap="round" stroke-linejoin="round" x1 = "14.061993" y1 = "2.848855" x2 = "14.350835" y2 = "1.877911" />
		<line fill="none" stroke="black" stroke-linecap="round" stroke-linejoin="round" x1 = "15.568216" y1 = "2.920383" x2 = "15.871558" y2 = "2.000747" />
		<line fill="none" stroke="black" stroke-linecap="round" stroke-linejoin="round" x1 = "17.035862" y1 = "3.080348" x2 = "17.345769" y2 = "2.224659" />
		<line fill="none" stroke="black" stroke-linecap="round" stroke-linejoin="round" x1 = "19.273663" y1 = "3.214499" x2 = "19.576788" y2 = "2.476824" />
		<line fill="none" stroke="black" stroke-linecap="round" stroke-linejoin="round" x1 = "21.158924" y1 = "3.053550" x2 = "21.438292" y2 = "2.432140" />
		<line fill="none" stroke="black" stroke-linecap="round" stroke-linejoin="round" x1 = "22.643156" y1 = "2.730092" x2 = "22.892798" y2 = "2.207635" />
		<line fill="none" stroke="black" stroke-linecap="round" stroke-linejoin="round" x1 = "23.695613" y1 = "2.371240" x2 = "23.918879" y2 = "1.921355" />
		<line fill="none" stroke="black" stroke-linecap="round" stroke-linejoin="round" x1 = "24.298436" y1 = "2.096222" x2 = "24.504741" y2 = "1.688492" />
		<line fill="none" stroke="black" stroke-linecap="round" stroke-linejoin="round" x1 = "24.448534" y1 = "2.013448" x2 = "24.650393" y2 = "1.616271" />
		<line fill="none" stroke="black" stroke-linecap="round" stroke-linejoin="round" x1 = "24.174389" y1 = "1.871416" x2 = "24.381888" y2 = "1.457292" />
		<line fill="none" stroke="black" stroke-linecap="round" stroke-linejoin="round" x1 = "23.415435" y1 = "1.524460" x2 = "23.638206" y2 = "1.062145" />
		<line fill="none" stroke="black" stroke-linecap="round" stroke-linejoin="round" x1 = "22.269370" y1 = "1.091029" x2 = "22.513643" y2 = "0.553248" />
		<line fill="none" stroke="black" stroke-linecap="round" stroke-linejoin="round" x1 = "20.830908" y1 = "0.682801" x2 = "21.098011" y2 = "0.048919" />
		<line fill="none" stroke="black" stroke-linecap="round" stroke-linejoin="round" x1 = "19.185534" y1 = "0.401820" x2 = "19.471075" y2 = "-0.338117" />
		<line fill="none" stroke="black" stroke-linecap="round" stroke-linejoin="round" x1 = "17.768938" y1 = "0.333386" x2 = "18.062737" y2 = "-0.489778" />
		<line fill="none" stroke="black" stroke-linecap="round" stroke-linejoin="round" x1 = "16.423544" y1 = "0.298879" x2 = "16.717753" y2 = "-0.593579" />
		<line fill="none" stroke="black" stroke-linecap="round" stroke-linejoin="round" x1 = "15.046846" y1 = "0.182876" x2 = "15.333603" y2 = "-0.768775" />
		<line fill="none" stroke="black" stroke-linecap="round" stroke-linejoin="round" x1 = "13.777008" y1 = "0.023321" x2 = "14.050699" y2 = "-0.971853" />
		<line fill="none" stroke="black" stroke-linecap="round" stroke-linejoin="round" x1 = "12.746201" y1 = "-0.137588" x2 = "13.005569" y2 = "-1.160230" />
		<line fill="none" stroke="black" stroke-linecap="round" stroke-linejoin="round" x1 = "12.082715" y1 = "-0.255454" x2 = "12.331457" y2 = "-1.292474" />
		<line fill="none" stroke="black" stroke-linecap="round" stroke-linejoin="round" x1 = "11.902396" y1 = "-0.290640" x2 = "12.147934" y2 = "-1.330538" />
		<line fill="none" stroke="black" stroke-linecap="round" stroke-linejoin="round" x1 = "12.126228" y1 = "-0.435358" x2 = "12.375066" y2 = "-1.472753" />
		<line fill="none" stroke="black" stroke-linecap="round" stroke-linejoin="round" x1 = "12.748798" y1 = "-0.781919" x2 = "13.005778" y2 = "-1.807926" />
		<line fill="none" stroke="black" stroke-linecap="round" stroke-linejoin="round" x1 = "13.695377" y1 = "-1.196164" x2 = "13.963117" y2 = "-2.199342" />
		<line fill="none" stroke="black" stroke-linecap="round" stroke-linejoin="round" x1 = "14.897862" y1 = "-1.552319" x2 = "15.175578" y2 = "-2.515528" />
		<line fill="none" stroke="black" stroke-linecap="round" stroke-linejoin="round" x1 = "16.298971" y1 = "-1.727951" x2 = "16.582503" y2 = "-2.629851" />
		<line fill="none" stroke="black" stroke-linecap="round" stroke-linejoin="round" x1 = "17.533011" y1 = "-1.655112" x2 = "17.816147" y2 = "-2.491187" />
		<line fill="none" stroke="black" stroke-linecap="round" stroke-linejoin="round" x1 = "19.660535" y1 = "-1.492217" x2 = "19.928609" y2 = "-2.195932" />
		<line fill="none" stroke="black" stroke-linecap="round" stroke-linejoin="round" x1 = "21.777727" y1 = "-1.568368" x2 = "22.011118" y2 = "-2.122292" />
		<line fill="none" stroke="black" stroke-linecap="round" stroke-linejoin="round" x1 = "23.690259" y1 = "-1.779587" x2 = "23.879178" y2 = "-2.193449" />
		<line fill="none" stroke="black" stroke-linecap="round" stroke-linejoin="round" x1 = "25.212819" y1 = "-2.024241" x2 = "25.361178" y2 = "-2.331062" />
		<line fill="none" stroke="black" stroke-linecap="round" stroke-linejoin="round" x1 = "26.174699" y1 = "-2.213369" x2 = "26.296724" y2 = "-2.457336" />
	</g>
</svg>