<?xml version="1.0" encoding="iso-8859-1"?>
<!-- Generator: Adobe Illustrator 16.0.4, SVG Export Plug-In . SVG Version: 6.00 Build 0)  -->
<!DOCTYPE svg PUBLIC "-//W3C//DTD SVG 1.1//EN" "http://www.w3.org/Graphics/SVG/1.1/DTD/svg11.dtd">
<svg version="1.1" id="Layer_1" xmlns="http://www.w3.org/2000/svg" xmlns:xlink="http://www.w3.org/1999/xlink" x="0px" y="0px"
	 width="1000px" height="200px" viewBox="0 0 1000 200" style="enable-background:new 0 0 1000 200;" xml:space="preserve">
<path style="fill:none;stroke:#231F20;stroke-width:2.5;stroke-linecap:round;stroke-linejoin:round;stroke-miterlimit:10;" d="
	M144.096,56.307l-13.597-6.729c0,0,0.651-4.148,2.724-9.293"/>
<path style="fill:none;stroke:#231F20;stroke-width:2.5;stroke-linecap:round;stroke-linejoin:round;stroke-miterlimit:10;" d="
	M155.186,33.16c9.854-4.334,18.951-2.61,30.397,7.635c6.133,5.49,16.005,7.79,22.975,7.255c8.463-0.649,30.923-5.72,30.89,19.358
	c-0.025,19.309-24.595,21.355-32.098,15.238c-7.501-6.115-13.209-8.691-32.325-6.592c-21.256,2.335-30.929-19.748-30.929-19.748"/>
<path style="fill:none;stroke:#231F20;stroke-width:2.5;stroke-linecap:round;stroke-linejoin:round;stroke-miterlimit:10;" d="
	M135.572,35.324c1.598-2.888,3.66-5.784,6.302-8.217l13.312,6.053"/>
<path style="fill:none;stroke:#231F20;stroke-width:2.5;stroke-linecap:round;stroke-linejoin:round;stroke-miterlimit:10;" d="
	M130.499,49.577c0,0,10.655-10.677,11.375-22.47"/>
<path style="fill:none;stroke:#231F20;stroke-width:2.5;stroke-linecap:round;stroke-linejoin:round;stroke-miterlimit:10;" d="
	M144.096,56.307c0,0,10.91-10.6,11.09-23.146"/>
<path style="fill:none;stroke:#231F20;stroke-width:2.5;stroke-linecap:round;stroke-linejoin:round;stroke-miterlimit:10;" d="
	M325.499,38.485c-25.058,19.74-48.622,15.501-52.81,15.939c-1.539,0.162-2.468,0.557-3.145,1.746
	c-0.987,1.74-1.594,3.805-2.711,6.026c0,0-0.658,1.775-2.137,1.812c-1.477,0.034-9.027,0.204-9.027,0.204"/>
<path style="fill:none;stroke:#231F20;stroke-width:2.5;stroke-linecap:round;stroke-linejoin:round;stroke-miterlimit:10;" d="
	M236.739,77.119l16.516,1.403c0,0,4.729-8.062,1.726-16.699l-16.261-1.517"/>
<line style="fill:none;stroke:#231F20;stroke-width:2.5;stroke-linecap:round;stroke-linejoin:round;stroke-miterlimit:10;" x1="332.721" y1="75.045" x2="325.499" y2="38.485"/>
<path style="fill:none;stroke:#231F20;stroke-width:2.5;stroke-linecap:round;stroke-linejoin:round;stroke-miterlimit:10;" d="
	M254.707,75.636l10.023,2.317c0,0,1.227,0.465,1.732,2.83c0.506,2.367,1.178,3.76,1.483,4.735c0.386,1.232,1.171,2.742,3.247,2.996
	c22.254,2.729,45.028-2.552,61.527-13.47"/>
<path style="fill:none;stroke:#231F20;stroke-width:2.5;stroke-linecap:round;stroke-linejoin:round;stroke-miterlimit:10;" d="
	M321.676,46.176c-22.118,15.22-48.948,12.333-48.948,12.333s-1.929-0.364-3.87,4.028c-0.706,1.599-3.854,1.437-3.854,1.437"/>
<line style="fill:none;stroke:#231F20;stroke-width:2.5;stroke-linecap:round;stroke-linejoin:round;stroke-miterlimit:10;" x1="326.844" y1="71.845" x2="321.676" y2="46.176"/>
<path style="fill:none;stroke:#231F20;stroke-width:2.5;stroke-linecap:round;stroke-linejoin:round;stroke-miterlimit:10;" d="
	M264.73,77.953c0.461,0.033,3.557,0.309,3.762,2.685c0.27,3.125,2.538,3.065,2.538,3.065s33.096,4.938,55.813-11.858"/>
<path style="fill:none;stroke:#231F20;stroke-width:2.5;stroke-linecap:round;stroke-linejoin:round;stroke-miterlimit:10;" d="
	M827.349,150.188c-29.709-7.865-30.979,7.686-98.664,13.08C660.765,168.682,659.021,148,563.021,150
	c-79.497,1.656-76.457,19-124.166,21.616c-72.569,3.979-89.002-13.667-148.334-19.667c-80.863-8.178-73.332,14-151.999,7.334
	C14.521,148.949,17.021,48.295,79.521,31.216c37.468-10.238,44.385,2.418,56.052,7.126"/>
<path style="fill:none;stroke:#231F20;stroke-width:2.5;stroke-linecap:round;stroke-linejoin:round;stroke-miterlimit:10;" d="
	M827.349,150.188c4.627,2.117,6.894,7.074,6.894,7.074c7.047,13.643,23.658,11.285,23.658,11.285l-0.062-2.339l26.126-0.252
	l0.412-28.631l-26.069,0.303l-0.164-2.401c-9.743,0.185-15.689,0.901-23.369,10.271
	C831.146,149.919,827.349,150.188,827.349,150.188"/>
<line style="fill:none;stroke:#231F20;stroke-width:2.5;stroke-linecap:round;stroke-linejoin:round;stroke-miterlimit:10;" x1="858.223" y1="137.635" x2="857.916" y2="166.204"/>
<rect x="868.285" y="144.454" transform="matrix(0.9996 -0.028 0.028 0.9996 -3.7672 24.4588)" style="fill:none;stroke:#231F20;stroke-width:2.5;stroke-linecap:round;stroke-linejoin:round;stroke-miterlimit:10;" width="6.418" height="4.586"/>
<rect x="866.725" y="153.606" transform="matrix(0.9996 -0.0284 0.0284 0.9996 -4.0881 24.8301)" style="fill:none;stroke:#231F20;stroke-width:2.5;stroke-linecap:round;stroke-linejoin:round;stroke-miterlimit:10;" width="11.005" height="5.504"/>
<line style="fill:none;stroke:#231F20;stroke-width:2.5;stroke-miterlimit:10;" x1="326.844" y1="71.845" x2="332.721" y2="75.045"/>
<line style="fill:none;stroke:#231F20;stroke-width:2.5;stroke-miterlimit:10;" x1="321.676" y1="46.176" x2="325.499" y2="38.485"/>
</svg>
