<?xml version="1.0" encoding="iso-8859-1"?>
<!-- Generator: Adobe Illustrator 16.0.4, SVG Export Plug-In . SVG Version: 6.00 Build 0)  -->
<!DOCTYPE svg PUBLIC "-//W3C//DTD SVG 1.1//EN" "http://www.w3.org/Graphics/SVG/1.1/DTD/svg11.dtd">
<svg version="1.1" id="Layer_1" xmlns="http://www.w3.org/2000/svg" xmlns:xlink="http://www.w3.org/1999/xlink" x="0px" y="0px"
	 width="1000px" height="200px" viewBox="0 0 1000 200" style="enable-background:new 0 0 1000 200;" xml:space="preserve">
<path style="fill:none;stroke:#231F20;stroke-width:2.5;stroke-linecap:round;stroke-linejoin:round;stroke-miterlimit:10;" d="
	M936.802,75.299c3.904,1.985,20.472,3.301,23.089,22.794c3.693,27.511-5.068,81.394-106.164,88.786
	c-105.687,7.729-91.835-22.119-176.835-22.119s-117,20.397-197.667,20.397c-80.333,0-139.367-15.402-207.457-17.269
	c-72.998-2.002-163.142,29.877-208.876-7.131C19.224,125.426,28.806,81.76,55.558,53.093C98.64,6.926,158.977,24.527,226.747,31.579
	c67.77,7.052,112.145-18.871,202.145-16.819c67.104,1.529,128.654,22.166,222.666,20.667c94.014-1.499,82.443-19.445,177.333-20.783
	c67.794-0.956,89.519,11.121,112.667,32.117c41.248,37.409,37.979,83.479-11.018,86.36"/>
<path style="fill:none;stroke:#231F20;stroke-width:2.5;stroke-linecap:round;stroke-linejoin:round;stroke-miterlimit:10;" d="
	M936.802,75.299c-5.646,0.017-7.524,3.072-7.524,3.072c-9.894,11.744-25.89,6.119-25.89,6.119l0.576-2.268l-25.422-6.029
	l5.936-28.012l25.355,6.065l0.69-2.306c9.464,2.336,14.659,6.303,20.075,17.138C933.158,74.196,936.802,75.299,936.802,75.299"/>
<line style="fill:none;stroke:#231F20;stroke-width:2.5;stroke-linecap:round;stroke-linejoin:round;stroke-miterlimit:10;" x1="909.914" y1="54.273" x2="903.89" y2="82.201"/>
<rect x="891.745" y="57.931" transform="matrix(-0.9686 -0.2485 0.2485 -0.9686 1746.8564 340.9943)" style="fill:none;stroke:#231F20;stroke-width:2.5;stroke-linecap:round;stroke-linejoin:round;stroke-miterlimit:10;" width="6.418" height="4.586"/>
<rect x="886.609" y="66.683" transform="matrix(-0.9685 -0.2489 0.2489 -0.9685 1738.8652 358.7296)" style="fill:none;stroke:#231F20;stroke-width:2.5;stroke-linecap:round;stroke-linejoin:round;stroke-miterlimit:10;" width="11.006" height="5.503"/>
<path style="fill:none;stroke:#231F20;stroke-width:2.5;stroke-linecap:round;stroke-linejoin:round;stroke-miterlimit:10;" d="
	M930.54,133.121c-4.952,2.717-5.139,6.299-5.139,6.299c-3.066,15.045-19.806,17.76-19.806,17.76l-0.579-2.268l-25.208,6.869
	l-8.188-27.438l25.167-6.805l-0.496-2.356c9.427-2.477,15.889-1.479,25.828,5.444C926.812,133.896,930.54,133.121,930.54,133.121"/>
<line style="fill:none;stroke:#231F20;stroke-width:2.5;stroke-linecap:round;stroke-linejoin:round;stroke-miterlimit:10;" x1="896.87" y1="127.521" x2="904.942" y2="154.93"/>
<rect x="883.373" y="137.612" transform="matrix(-0.9695 0.2449 -0.2449 -0.9695 1780.4281 58.4278)" style="fill:none;stroke:#231F20;stroke-width:2.5;stroke-linecap:round;stroke-linejoin:round;stroke-miterlimit:10;" width="6.416" height="4.586"/>
<rect x="883.008" y="146.59" transform="matrix(-0.9696 0.2449 -0.2449 -0.9696 1786.5452 76.5837)" style="fill:none;stroke:#231F20;stroke-width:2.5;stroke-linecap:round;stroke-linejoin:round;stroke-miterlimit:10;" width="11.008" height="5.503"/>
</svg>
