<?xml version="1.0" encoding="utf-8"?>
<!-- Generator: Adobe Illustrator 16.0.4, SVG Export Plug-In . SVG Version: 6.00 Build 0)  -->
<!DOCTYPE svg PUBLIC "-//W3C//DTD SVG 1.1//EN" "http://www.w3.org/Graphics/SVG/1.1/DTD/svg11.dtd">
<svg version="1.1" id="trace" xmlns="http://www.w3.org/2000/svg" xmlns:xlink="http://www.w3.org/1999/xlink" x="0px" y="0px"
	 width="400px" height="400px" viewBox="0 0 400 400" enable-background="new 0 0 400 400" xml:space="preserve">
<line fill="none" stroke="#000000" stroke-linecap="round" stroke-linejoin="round" x1="83.297" y1="263.229" x2="25.845" y2="247.729"/>
<line fill="none" stroke="#000000" stroke-linecap="round" stroke-linejoin="round" x1="16.652" y1="263.229" x2="74.104" y2="247.729"/>
<line fill="none" stroke="#000000" stroke-linecap="round" stroke-linejoin="round" x1="74.104" y1="247.729" x2="32.506" y2="236.515"/>
<line fill="none" stroke="#000000" stroke-linecap="round" stroke-linejoin="round" x1="25.845" y1="247.729" x2="67.443" y2="236.515"/>
<line fill="none" stroke="#000000" stroke-linecap="round" stroke-linejoin="round" x1="67.443" y1="236.515" x2="37.323" y2="228.371"/>
<line fill="none" stroke="#000000" stroke-linecap="round" stroke-linejoin="round" x1="32.506" y1="236.515" x2="62.636" y2="228.371"/>
<line fill="none" stroke="#000000" stroke-linecap="round" stroke-linejoin="round" x1="166.313" y1="263.411" x2="111.971" y2="239.188"/>
<line fill="none" stroke="#000000" stroke-linecap="round" stroke-linejoin="round" x1="103.298" y1="263.411" x2="157.64" y2="239.188"/>
<line fill="none" stroke="#000000" stroke-linecap="round" stroke-linejoin="round" x1="157.64" y1="239.188" x2="118.279" y2="221.716"/>
<line fill="none" stroke="#000000" stroke-linecap="round" stroke-linejoin="round" x1="111.971" y1="239.188" x2="151.332" y2="221.716"/>
<line fill="none" stroke="#000000" stroke-linecap="round" stroke-linejoin="round" x1="151.332" y1="221.716" x2="122.832" y2="209.06"/>
<line fill="none" stroke="#000000" stroke-linecap="round" stroke-linejoin="round" x1="118.279" y1="221.716" x2="146.78" y2="209.06"/>
<line fill="none" stroke="#000000" stroke-linecap="round" stroke-linejoin="round" x1="230.363" y1="263.728" x2="192.396" y2="217.91"/>
<line fill="none" stroke="#000000" stroke-linecap="round" stroke-linejoin="round" x1="186.313" y1="263.728" x2="224.271" y2="217.91"/>
<line fill="none" stroke="#000000" stroke-linecap="round" stroke-linejoin="round" x1="224.271" y1="217.91" x2="196.811" y2="184.742"/>
<line fill="none" stroke="#000000" stroke-linecap="round" stroke-linejoin="round" x1="192.396" y1="217.91" x2="219.848" y2="184.742"/>
<line fill="none" stroke="#000000" stroke-linecap="round" stroke-linejoin="round" x1="219.848" y1="184.742" x2="199.97" y2="160.696"/>
<line fill="none" stroke="#000000" stroke-linecap="round" stroke-linejoin="round" x1="196.811" y1="184.742" x2="216.697" y2="160.696"/>
</svg>
