<?xml version="1.0" encoding="utf-8"?>
<!-- Generator: Adobe Illustrator 16.0.4, SVG Export Plug-In . SVG Version: 6.00 Build 0)  -->
<!DOCTYPE svg PUBLIC "-//W3C//DTD SVG 1.1//EN" "http://www.w3.org/Graphics/SVG/1.1/DTD/svg11.dtd">
<svg version="1.1" id="Layer_1" xmlns="http://www.w3.org/2000/svg" xmlns:xlink="http://www.w3.org/1999/xlink" x="0px" y="0px"
	 width="400px" height="400px" viewBox="0 0 400 400" enable-background="new 0 0 400 400" xml:space="preserve">
<g id="Layer_1_1_">
</g>
<path fill="none" stroke="#FFFFFF" stroke-width="6.2106" stroke-linecap="round" stroke-linejoin="round" stroke-miterlimit="10" d="
	M200.284,117.072c1.579-3.412,3.073-3.13,4.909-5.037"/>
<path fill="none" stroke="#FFFFFF" stroke-width="6.2106" stroke-linecap="round" stroke-linejoin="round" stroke-miterlimit="10" d="
	M239.75,104.729c24.055-0.125,39.799,5.566,47.15,9.304c7.354,3.738,16.576,12.214,20.565,16.824
	c3.986,4.613,4.485,6.232,7.354,10.594c2.865,4.363,15.454,29.413,17.447,33.774c1.993,4.364,15.205,29.414,16.077,31.407
	c0.873,1.995,2.244,2.118,2.618,0c0.372-2.118-5.11-18.071-6.481-21.935c-1.37-3.863-7.729-17.449-9.971-21.935
	c-2.244-4.486-6.23-13.833-8.226-17.448c-1.994-3.614-5.857-9.098-7.479-11.716c-1.622-2.617-10.844-11.092-14.085-14.207
	c-3.24-3.116-11.965-10.096-15.951-11.343c-3.99-1.246-5.234-0.499-8.851-1.246c-3.612-0.747-9.222-2.244-12.087-2.867
	c-2.867-0.624-3.864-0.248-7.854-0.996c-3.988-0.748-12.588-3.614-14.83-4.613c-2.242-0.995-12.338-6.979-15.828-7.352
	c-3.489-0.374-9.846,1.246-13.461,0.997c-3.612-0.249-7.478-1.746-9.846-2.866c-2.367-1.122-15.704-4.112-17.573-4.486
	s-4.86,0-5.982,0s-3.614,0.25-6.855,1.246c-3.24,0.997-11.714,0.872-14.831,1.121c-3.116,0.25-25.674,4.737-27.418,4.986
	c-1.745,0.249-4.86,0.873-6.231,2.118c-1.371,1.246-3.489,3.864-5.111,6.357c-1.619,2.493-7.851,10.47-9.97,13.336
	c-2.119,2.866-6.979,12.338-6.979,12.338s-6.396,12.172-7.559,15.996c-1.164,3.822-2.993,9.14-2.827,10.966
	c0.167,1.829,1.495,1.33,2.909-0.581c1.413-1.912,2.242-4.155,3.074-4.237s3.407-1.581,4.735-6.814c0,0,0.5,1.497,2.078,0.5
	c1.579-0.997,7.27-8.705,7.145-11.633c0,0,1.725,0.354,3.345-1.579c2.407-2.87,5.212-7.393,5.212-10.219
	c0,0-0.082,0.665,1.828-0.831c1.911-1.495,3.24-3.075,3.573-5.15c0,0,5.899-4.302,5.733-7.396c0,0,2.824-3.655,7.229-4.32
	c4.403-0.666,7.146-2.743,10.136-3.574c2.992-0.83,23.929-4.735,26.255-5.235c2.327-0.499,8.807-2.244,11.798-1.827
	c2.991,0.416,7.147,1.994,10.303,3.24c3.157,1.246,6.73,1.163,9.306,4.318"/>
<path fill="none" stroke="#FFFFFF" stroke-width="6.2106" stroke-linecap="round" stroke-linejoin="round" stroke-miterlimit="10" d="
	M268.624,108.633c0.539,0.292,5.481,1.29,4.11,2.202c-1.369,0.915-0.373,1.581-0.373,1.581c0.25,1.495-7.52,0.581-9.348,2.368
	c-1.828,1.788-3.863,0.873-7.436,3.157c-3.573,2.284-12.131,2.328-15.578,3.532c-3.447,1.204-10.594,0.082-13.708-0.582
	c-3.117-0.666-7.937-1.662-12.174-5.484c-4.237-3.822-7.353-1.596-8.724-0.764s-5.276,4.336-5.276,4.336
	c-3.075-7.186,1.207-6.979,3.282-8.807c2.076-1.828,1.121-2.492,1.744-2.95c0.623-0.456,1.164-2.035,0.75-2.951
	c-0.418-0.914-0.459-2.7,0.455-4.112c0.914-1.411,5.941-3.531,8.745-2.991"/>
<g>
	<path fill="#FFFFFF" d="M214.496,102.577c-0.938,0-1.524,0.537-1.98,1.831c-0.576,1.637,0.719,2.357,1.973,3.027
		c0.248,0.135,0.521,0.198,0.793,0.198c1.074,0,2.198-0.958,2.471-2.07c0.332-1.396-0.624-2.456-2.45-2.883
		C215.005,102.612,214.738,102.577,214.496,102.577L214.496,102.577z"/>
</g>
</svg>
