<?xml version="1.0" encoding="utf-8"?>
<!-- Generator: Adobe Illustrator 16.0.4, SVG Export Plug-In . SVG Version: 6.00 Build 0)  -->
<!DOCTYPE svg PUBLIC "-//W3C//DTD SVG 1.1//EN" "http://www.w3.org/Graphics/SVG/1.1/DTD/svg11.dtd">
<svg version="1.1" xmlns="http://www.w3.org/2000/svg" xmlns:xlink="http://www.w3.org/1999/xlink" x="0px" y="0px" viewBox="0 0 500 500" enable-background="new 0 0 500 500" xml:space="preserve">
<g id="members">
	
		<line fill="none" stroke="#FFFFFF" stroke-width="6" stroke-linecap="round" stroke-linejoin="round" x1="153.636" y1="426.138" x2="319.55" y2="260.224"/>
	<path fill="none" stroke="#FFFFFF" stroke-width="6" stroke-linecap="round" stroke-linejoin="round" d="M215.854,141.862
		c-4.05-4.049-10.615-4.049-14.665,0c-4.049,4.05-4.049,10.615,0,14.665"/>
	
		<line fill="none" stroke="#FFFFFF" stroke-width="6" stroke-linecap="round" stroke-linejoin="round" x1="250" y1="176.008" x2="215.854" y2="141.862"/>
	
		<line fill="none" stroke="#FFFFFF" stroke-width="6" stroke-linecap="round" stroke-linejoin="round" x1="319.55" y1="245.559" x2="264.665" y2="190.673"/>
	
		<line fill="none" stroke="#FFFFFF" stroke-width="6" stroke-linecap="round" stroke-linejoin="round" x1="235.335" y1="190.673" x2="201.189" y2="156.527"/>
	
		<line fill="none" stroke="#FFFFFF" stroke-width="6" stroke-linecap="round" stroke-linejoin="round" x1="297.553" y1="252.891" x2="250" y2="205.338"/>
	
		<line fill="none" stroke="#FFFFFF" stroke-width="6" stroke-linecap="round" stroke-linejoin="round" x1="180.45" y1="245.559" x2="284.146" y2="141.862"/>
	
		<line fill="none" stroke="#FFFFFF" stroke-width="6" stroke-linecap="round" stroke-linejoin="round" x1="195.114" y1="260.224" x2="298.811" y2="156.527"/>
	<path fill="none" stroke="#FFFFFF" stroke-width="6" stroke-linecap="round" stroke-linejoin="round" d="M180.45,245.559
		c-4.049,4.049-4.049,10.615,0,14.665c4.049,4.05,10.615,4.05,14.665,0.001"/>
	
		<line fill="none" stroke="#FFFFFF" stroke-width="6" stroke-linecap="round" stroke-linejoin="round" x1="250" y1="300.444" x2="202.447" y2="252.891"/>
	<path fill="none" stroke="#FFFFFF" stroke-width="6" stroke-linecap="round" stroke-linejoin="round" d="M180.45,245.559
		c-4.049,4.05-4.049,10.616,0,14.665"/>
	
		<line fill="none" stroke="#FFFFFF" stroke-width="6" stroke-linecap="round" stroke-linejoin="round" x1="235.335" y1="315.109" x2="180.45" y2="260.224"/>
	
		<line fill="none" stroke="#FFFFFF" stroke-width="6" stroke-linecap="round" stroke-linejoin="round" x1="346.364" y1="426.138" x2="250" y2="329.774"/>
	
		<line fill="none" stroke="#FFFFFF" stroke-width="6" stroke-linecap="round" stroke-linejoin="round" x1="361.029" y1="411.473" x2="264.665" y2="315.109"/>
	<path fill="none" stroke="#FFFFFF" stroke-width="6" stroke-linecap="round" stroke-linejoin="round" d="M319.55,260.224
		c4.049-4.049,4.049-10.615,0-14.665c-4.05-4.05-10.616-4.05-14.666,0"/>
	<path fill="none" stroke="#FFFFFF" stroke-width="6" stroke-linecap="round" stroke-linejoin="round" d="M346.364,426.138
		c4.049,4.049,10.615,4.049,14.665,0c4.049-4.05,4.049-10.616,0-14.666"/>
	<path fill="none" stroke="#FFFFFF" stroke-width="6" stroke-linecap="round" stroke-linejoin="round" d="M138.971,411.473
		c-4.049,4.05-4.049,10.616,0,14.666c4.05,4.049,10.616,4.049,14.666,0"/>
	
		<line fill="none" stroke="#FFFFFF" stroke-width="6" stroke-linecap="round" stroke-linejoin="round" x1="138.971" y1="411.473" x2="304.885" y2="245.559"/>
	<path fill="none" stroke="#FFFFFF" stroke-width="6" stroke-linecap="round" stroke-linejoin="round" d="M298.811,156.527
		c4.05-4.05,4.05-10.615,0-14.665c-4.049-4.049-10.615-4.049-14.665,0"/>
</g>
<g id="bolts">
	<circle fill="#FFFFFF" cx="208.521" cy="149.195" r="4.148"/>
	<circle fill="#FFFFFF" cx="291.478" cy="149.195" r="4.148"/>
	<circle fill="#FFFFFF" cx="250" cy="190.673" r="4.148"/>
	<circle fill="#FFFFFF" cx="312.218" cy="252.891" r="4.148"/>
	<circle fill="#FFFFFF" cx="250" cy="315.109" r="4.148"/>
	<circle fill="#FFFFFF" cx="353.696" cy="418.805" r="4.148"/>
	<circle fill="#FFFFFF" cx="146.304" cy="418.805" r="4.148"/>
	<circle fill="#FFFFFF" cx="187.782" cy="252.891" r="4.148"/>
</g>
</svg>
