<?xml version="1.0" encoding="iso-8859-1"?>
<!-- Generator: Adobe Illustrator 16.0.4, SVG Export Plug-In . SVG Version: 6.00 Build 0)  -->
<!DOCTYPE svg PUBLIC "-//W3C//DTD SVG 1.1//EN" "http://www.w3.org/Graphics/SVG/1.1/DTD/svg11.dtd">
<svg version="1.1" xmlns="http://www.w3.org/2000/svg" xmlns:xlink="http://www.w3.org/1999/xlink" x="0px" y="0px" width="300px"
	 height="300px" viewBox="0 0 300 300" style="enable-background:new 0 0 300 300;" xml:space="preserve">
<g id="jewel::mount_display">
	<path style="fill:none;stroke:#000000;stroke-width:4;stroke-linecap:round;stroke-linejoin:round;" d="M150.322,191.427
		c-0.007,0.001-0.014,0.001-0.021,0.001"/>
	<path style="fill:none;stroke:#000000;stroke-width:4;stroke-linecap:round;stroke-linejoin:round;" d="M113.704,165.485
		c0.174-0.205,0.352-0.406,0.534-0.604"/>
	<path style="fill:none;stroke:#000000;stroke-width:4;stroke-linecap:round;stroke-linejoin:round;" d="M114.578,164.522
		c0.026-0.027,0.052-0.053,0.078-0.08"/>
	<path style="fill:none;stroke:#000000;stroke-width:4;stroke-linecap:round;stroke-linejoin:round;" d="M158.655,208.374
		c2.365-0.454,4.727-0.92,7.087-1.399"/>
	<path style="fill:none;stroke:#000000;stroke-width:4;stroke-linecap:round;stroke-linejoin:round;" d="M169.262,206.251
		c4.085-0.853,8.161-1.747,12.227-2.685"/>
	<path style="fill:none;stroke:#000000;stroke-width:4;stroke-linecap:round;stroke-linejoin:round;" d="M236.106,188.111
		c3.796-1.249,7.586-2.517,11.37-3.804"/>
	<path style="fill:none;stroke:#000000;stroke-width:4;stroke-linecap:round;stroke-linejoin:round;" d="M58.499,162.352
		c2.116-2.31,4.334-4.5,6.669-6.586"/>
	<path style="fill:none;stroke:#000000;stroke-width:4;stroke-linecap:round;stroke-linejoin:round;" d="M65.781,155.223
		c3.524-3.088,7.226-5.876,11.166-8.411"/>
	<path style="fill:none;stroke:#000000;stroke-width:4;stroke-linecap:round;stroke-linejoin:round;" d="M148.1,126.958
		c12.928-0.571,25.71-0.025,38.566,1.294"/>
	<path style="fill:none;stroke:#000000;stroke-width:4;stroke-linecap:round;stroke-linejoin:round;" d="M42.638,177.086
		c1.068-1.708,2.146-3.409,3.234-5.103"/>
	<path style="fill:none;stroke:#000000;stroke-width:4;stroke-linecap:round;stroke-linejoin:round;" d="M221.655,157.942
		c-1.876-0.379-3.759-0.712-5.652-0.996"/>
	<path style="fill:none;stroke:#000000;stroke-width:4;stroke-linecap:round;stroke-linejoin:round;" d="M114.931,164.165
		c3.898-3.839,9.622-6.589,14.58-8.44"/>
	<path style="fill:none;stroke:#000000;stroke-width:4;stroke-linecap:round;stroke-linejoin:round;" d="M130.113,155.503
		c0.009-0.003,0.018-0.006,0.027-0.01"/>
	<path style="fill:none;stroke:#000000;stroke-width:4;stroke-linecap:round;stroke-linejoin:round;" d="M130.776,155.266
		c3.37-1.19,6.733-2.399,10.089-3.629c3.046-1.116,6.085-2.25,9.118-3.403c5.679-2.159,11.333-4.385,16.946-6.709
		c4.925-2.039,9.818-4.152,14.662-6.377c4.187-1.923,8.334-3.931,12.423-6.056"/>
	<path style="fill:none;stroke:#000000;stroke-width:4;stroke-linecap:round;stroke-linejoin:round;" d="M194.013,129.092
		c-2.446-0.308-4.895-0.587-7.347-0.84"/>
	<path style="fill:none;stroke:#000000;stroke-width:4;stroke-linecap:round;stroke-linejoin:round;" d="M148.1,126.958
		c-24.255,1.07-50.038,6.242-71.153,19.854"/>
	<path style="fill:none;stroke:#000000;stroke-width:4;stroke-linecap:round;stroke-linejoin:round;" d="M65.78,155.223
		c-0.205,0.18-0.409,0.361-0.612,0.542"/>
	<path style="fill:none;stroke:#000000;stroke-width:4;stroke-linecap:round;stroke-linejoin:round;" d="M58.499,162.352
		c-5.781,6.304-10.491,13.226-14.93,20.478"/>
	<path style="fill:none;stroke:#000000;stroke-width:4;stroke-linecap:round;stroke-linejoin:round;" d="M0,217.095
		c6.566-1.556,13.003-3.444,17.869-5.672c6.228-2.852,10.902-6.804,15.08-12.159c4.043-5.183,7.213-10.868,10.62-16.434"/>
	<path style="fill:none;stroke:#000000;stroke-width:4;stroke-linecap:round;stroke-linejoin:round;" d="M213.248,164.677
		c-0.406,0.223-0.815,0.44-1.228,0.652"/>
	<path style="fill:none;stroke:#000000;stroke-width:4;stroke-linecap:round;stroke-linejoin:round;" d="M204.688,168.486
		c-3.101,1.138-6.246,2.105-9.427,2.983"/>
	<path style="fill:none;stroke:#000000;stroke-width:4;stroke-linecap:round;stroke-linejoin:round;" d="M192.574,172.188
		c-3.313,0.859-6.646,1.63-9.992,2.349c-3.346,0.718-6.716,1.316-10.059,2.053"/>
	<path style="fill:none;stroke:#000000;stroke-width:4;stroke-linecap:round;stroke-linejoin:round;" d="M155.942,182.471
		c-1.287,0.731-2.506,1.541-3.665,2.464"/>
	<path style="fill:none;stroke:#000000;stroke-width:4;stroke-linecap:round;stroke-linejoin:round;" d="M151.63,185.478
		c-1.864,1.627-3.287,3.331-4.138,5.723"/>
	<path style="fill:none;stroke:#000000;stroke-width:4;stroke-linecap:round;stroke-linejoin:round;" d="M147.487,191.215
		c-0.035,0.099-0.069,0.199-0.101,0.298"/>
	<path style="fill:none;stroke:#000000;stroke-width:4;stroke-linecap:round;stroke-linejoin:round;" d="M147.386,191.513
		c0.972-0.015,1.943-0.043,2.915-0.085"/>
	<path style="fill:none;stroke:#000000;stroke-width:4;stroke-linecap:round;stroke-linejoin:round;" d="M150.322,191.427
		c2.399-0.104,4.79-0.282,7.179-0.534"/>
	<path style="fill:none;stroke:#000000;stroke-width:4;stroke-linecap:round;stroke-linejoin:round;" d="M158.912,190.737
		c3.241-0.382,6.46-0.876,9.667-1.481"/>
	<path style="fill:none;stroke:#000000;stroke-width:4;stroke-linecap:round;stroke-linejoin:round;" d="M168.588,189.254
		c18.303-3.43,25.085-7.531,43.777-9.623c15.118-1.692,29.749-1.018,44.712,1.386"/>
	<path style="fill:none;stroke:#000000;stroke-width:4;stroke-linecap:round;stroke-linejoin:round;" d="M257.077,181.017
		c-3.198,1.104-6.398,2.2-9.601,3.289"/>
	<path style="fill:none;stroke:#000000;stroke-width:4;stroke-linecap:round;stroke-linejoin:round;" d="M236.106,188.111
		c-2.46,0.809-4.924,1.608-7.392,2.396c-2.426,0.774-4.856,1.536-7.29,2.285c-4.646,1.429-9.309,2.808-13.988,4.126
		c-8.594,2.423-17.246,4.643-25.947,6.649"/>
	<path style="fill:none;stroke:#000000;stroke-width:4;stroke-linecap:round;stroke-linejoin:round;" d="M169.262,206.25
		c-1.172,0.245-2.345,0.486-3.519,0.724"/>
	<path style="fill:none;stroke:#000000;stroke-width:4;stroke-linecap:round;stroke-linejoin:round;" d="M158.655,208.374
		c-12.104,2.325-24.258,4.327-36.424,6.279"/>
	<path style="fill:none;stroke:#000000;stroke-width:4;stroke-linecap:round;stroke-linejoin:round;" d="M0,249.162
		c5.27-1.011,10.499-2.52,16.152-4.527c11.599-4.118,22.785-9.243,34.337-13.471c5.778-2.114,11.61-4.044,17.487-5.857
		c5.89-1.817,11.858-3.207,17.892-4.423c12.065-2.434,24.218-4.282,36.362-6.23"/>
	<path style="fill:none;stroke:#000000;stroke-width:4;stroke-linecap:round;stroke-linejoin:round;" d="M215.987,156.944
		c-7.069-1.067-14.077-1.438-21.219-1.123"/>
	<path style="fill:none;stroke:#000000;stroke-width:4;stroke-linecap:round;stroke-linejoin:round;" d="M194.64,155.827
		c-0.275,0.013-0.55,0.027-0.824,0.042"/>
	<path style="fill:none;stroke:#000000;stroke-width:4;stroke-linecap:round;stroke-linejoin:round;" d="M151.92,185.229
		c1.444-0.03,2.889-0.088,4.331-0.174c1.517-0.091,3.032-0.211,4.544-0.36c3.101-0.306,6.19-0.732,9.262-1.257
		c6.776-1.158,13.465-2.799,20.073-4.687c2.834-0.809,5.691-1.533,8.567-2.172c2.79-0.62,5.598-1.158,8.419-1.614
		c5.767-0.932,11.591-1.517,17.429-1.731c5.471-0.201,10.955-0.076,16.407,0.411c2.714,0.242,5.421,0.574,8.111,1.004
		c2.554,0.408,5.094,0.904,7.611,1.498"/>
	<path style="fill:none;stroke:#000000;stroke-width:4;stroke-linecap:round;stroke-linejoin:round;" d="M193.566,155.881
		c-0.232,0.013-0.464,0.027-0.696,0.042"/>
	<path style="fill:none;stroke:#000000;stroke-width:4;stroke-linecap:round;stroke-linejoin:round;" d="M190.993,156.058
		c-0.201,0.017-0.403,0.033-0.604,0.051"/>
	<path style="fill:none;stroke:#000000;stroke-width:4;stroke-linecap:round;stroke-linejoin:round;" d="M221.413,152.164
		c-18.693-4.506-37.66-2.9-55.603,3.453c-4.445,1.574-8.724,3.542-13.117,5.236c-4.402,1.695-8.853,3.188-13.408,4.424
		c-9.208,2.499-18.349,3.819-27.903,3.864"/>
	<path style="fill:none;stroke:#000000;stroke-width:4;stroke-linecap:round;stroke-linejoin:round;" d="M186.646,156.501
		c-2.553,0.313-5.086,0.721-7.609,1.223"/>
	<path style="fill:none;stroke:#000000;stroke-width:4;stroke-linecap:round;stroke-linejoin:round;" d="M170.476,159.813
		c-2.752,0.798-5.459,1.707-8.136,2.729"/>
	<path style="fill:none;stroke:#000000;stroke-width:4;stroke-linecap:round;stroke-linejoin:round;" d="M193.963,123.335
		c-25.578-5.375-56.885-4.049-82.034,2.513c-13.592,3.546-26.011,8.475-37.784,16.367c-12.286,8.235-20.354,17.503-28.273,29.768"/>
	<path style="fill:none;stroke:#000000;stroke-width:4;stroke-linecap:round;stroke-linejoin:round;" d="M42.638,177.086
		c-7.425,11.816-12.567,19.658-26.377,25.37C11.17,204.561,5.634,206.21,0,207.535"/>
	
		<line style="fill:none;stroke:#000000;stroke-width:4;stroke-linecap:round;stroke-linejoin:round;" x1="194.013" y1="129.092" x2="193.963" y2="123.335"/>
	<path style="fill:none;stroke:#000000;stroke-width:4;stroke-linecap:round;stroke-linejoin:round;" d="M130.776,155.266
		c-0.212,0.075-0.424,0.151-0.636,0.228"/>
	<path style="fill:none;stroke:#000000;stroke-width:4;stroke-linecap:round;stroke-linejoin:round;" d="M130.113,155.503
		c-0.201,0.073-0.401,0.147-0.602,0.222"/>
	<path style="fill:none;stroke:#000000;stroke-width:4;stroke-linecap:round;stroke-linejoin:round;" d="M114.931,164.165
		c-0.093,0.092-0.185,0.184-0.276,0.277"/>
	<path style="fill:none;stroke:#000000;stroke-width:4;stroke-linecap:round;stroke-linejoin:round;" d="M114.578,164.522
		c-0.115,0.119-0.228,0.238-0.34,0.36"/>
	<path style="fill:none;stroke:#000000;stroke-width:4;stroke-linecap:round;stroke-linejoin:round;" d="M113.704,165.485
		c-2.559,3.023-3.873,6.567-3.049,10.601"/>
	
		<line style="fill:none;stroke:#000000;stroke-width:4;stroke-linecap:round;stroke-linejoin:round;" x1="110.655" y1="176.086" x2="111.261" y2="169.427"/>
	<path style="fill:none;stroke:#000000;stroke-width:4;stroke-linecap:round;stroke-linejoin:round;" d="M161.925,162.702
		c-0.119,0.046-0.237,0.092-0.356,0.139"/>
	<path style="fill:none;stroke:#000000;stroke-width:4;stroke-linecap:round;stroke-linejoin:round;" d="M158.569,164.067
		c-7.589,3.236-15.254,6.079-23.245,8.203"/>
	<path style="fill:none;stroke:#000000;stroke-width:4;stroke-linecap:round;stroke-linejoin:round;" d="M133.807,172.663
		c0.507-0.128,1.012-0.259,1.517-0.394"/>
	<path style="fill:none;stroke:#000000;stroke-width:4;stroke-linecap:round;stroke-linejoin:round;" d="M158.569,164.067
		c0.994-0.424,1.994-0.833,3-1.227"/>
	<path style="fill:none;stroke:#000000;stroke-width:4;stroke-linecap:round;stroke-linejoin:round;" d="M161.924,162.702
		c0.138-0.053,0.276-0.106,0.415-0.159"/>
	<path style="fill:none;stroke:#000000;stroke-width:4;stroke-linecap:round;stroke-linejoin:round;" d="M170.476,159.813
		c2.827-0.819,5.675-1.515,8.562-2.089"/>
	<path style="fill:none;stroke:#000000;stroke-width:4;stroke-linecap:round;stroke-linejoin:round;" d="M186.646,156.5
		c1.245-0.153,2.492-0.284,3.742-0.392"/>
	<path style="fill:none;stroke:#000000;stroke-width:4;stroke-linecap:round;stroke-linejoin:round;" d="M190.993,156.059
		c0.625-0.05,1.25-0.096,1.876-0.135"/>
	<path style="fill:none;stroke:#000000;stroke-width:4;stroke-linecap:round;stroke-linejoin:round;" d="M193.566,155.882
		c0.083-0.005,0.167-0.01,0.25-0.014"/>
	<path style="fill:none;stroke:#000000;stroke-width:4;stroke-linecap:round;stroke-linejoin:round;" d="M194.64,155.827
		c0.042-0.002,0.085-0.004,0.128-0.006"/>
	
		<line style="fill:none;stroke:#000000;stroke-width:4;stroke-linecap:round;stroke-linejoin:round;" x1="215.987" y1="156.944" x2="216.002" y2="156.946"/>
	
		<line style="fill:none;stroke:#000000;stroke-width:4;stroke-linecap:round;stroke-linejoin:round;" x1="221.655" y1="157.942" x2="221.413" y2="152.164"/>
	<path style="fill:none;stroke:#000000;stroke-width:4;stroke-linecap:round;stroke-linejoin:round;" d="M133.807,172.663
		c-7.64,1.932-15.269,3.104-23.152,3.423"/>
	
		<line style="fill:none;stroke:#000000;stroke-width:4;stroke-linecap:round;stroke-linejoin:round;" x1="147.487" y1="191.215" x2="147.492" y2="191.2"/>
	<path style="fill:none;stroke:#000000;stroke-width:4;stroke-linecap:round;stroke-linejoin:round;" d="M151.629,185.477
		c0.212-0.185,0.428-0.366,0.648-0.542"/>
	<path style="fill:none;stroke:#000000;stroke-width:4;stroke-linecap:round;stroke-linejoin:round;" d="M155.942,182.471
		c5.255-2.989,10.768-4.597,16.581-5.881"/>
	<path style="fill:none;stroke:#000000;stroke-width:4;stroke-linecap:round;stroke-linejoin:round;" d="M192.574,172.188
		c0.898-0.232,1.793-0.472,2.687-0.719"/>
	<path style="fill:none;stroke:#000000;stroke-width:4;stroke-linecap:round;stroke-linejoin:round;" d="M204.688,168.486
		c2.506-0.92,4.954-1.938,7.333-3.157"/>
	<path style="fill:none;stroke:#000000;stroke-width:4;stroke-linecap:round;stroke-linejoin:round;" d="M213.248,164.677
		c3.238-1.782,6.08-3.754,8.407-6.735"/>
	
		<line style="fill:none;stroke:#000000;stroke-width:4;stroke-linecap:round;stroke-linejoin:round;" x1="257.077" y1="181.017" x2="256.675" y2="176.146"/>
	
		<line style="fill:none;stroke:#000000;stroke-width:4;stroke-linecap:round;stroke-linejoin:round;" x1="168.588" y1="189.254" x2="168.579" y2="189.256"/>
	<path style="fill:none;stroke:#000000;stroke-width:4;stroke-linecap:round;stroke-linejoin:round;" d="M158.912,190.737
		c-0.47,0.054-0.94,0.107-1.411,0.156"/>
</g>
<g id="Make2D::hidden::lines" style="opacity:0.1;">
	
		<line style="fill:none;stroke:#000000;stroke-linecap:round;stroke-linejoin:round;" x1="111.075" y1="165.937" x2="110.482" y2="172.413"/>
	<path style="fill:none;stroke:#000000;stroke-linecap:round;stroke-linejoin:round;" d="M221.413,152.164
		c-7.79,9.315-27.015,14.289-37.32,16.614c-6.737,1.52-13.572,2.496-20.186,4.673c-5.26,1.731-14.086,5.342-16.229,11.781"/>
	<path style="fill:none;stroke:#000000;stroke-linecap:round;stroke-linejoin:round;" d="M147.678,185.232
		c1.414,0.027,2.828,0.026,4.242-0.003"/>
	<path style="fill:none;stroke:#000000;stroke-linecap:round;stroke-linejoin:round;" d="M251.963,177.375
		c-4.889,1.431-24.183,8.258-29.016,9.844c-9.721,3.189-19.528,5.954-29.5,8.247c-19.991,4.596-40.179,7.24-60.493,9.617"/>
	<path style="fill:none;stroke:#000000;stroke-linecap:round;stroke-linejoin:round;" d="M116.239,207.034
		c-11.698,1.398-23.358,2.824-34.908,5.306c-5.776,1.242-11.395,2.903-16.961,4.866c-5.555,1.959-11.015,4.153-16.492,6.311
		C31.57,229.943,16.553,236.056,0,239.282"/>
	<path style="fill:none;stroke:#000000;stroke-linecap:round;stroke-linejoin:round;" d="M111.382,169.141c-0.032,0-0.063,0-0.095,0
		"/>
	<path style="fill:none;stroke:#000000;stroke-linecap:round;stroke-linejoin:round;" d="M111.287,169.141
		c-1.827-8.618,6.607-14.033,12.752-16.982c3.475-1.667,7.104-2.863,10.718-4.14c3.615-1.276,7.211-2.597,10.792-3.965
		c7.164-2.737,14.243-5.662,21.265-8.747c7.018-3.083,13.942-6.373,20.969-9.437"/>
	
		<line style="fill:none;stroke:#000000;stroke-linecap:round;stroke-linejoin:round;" x1="111.261" y1="169.427" x2="111.287" y2="169.141"/>
	<path style="fill:none;stroke:#000000;stroke-linecap:round;stroke-linejoin:round;" d="M193.963,123.335
		c-2.088,0.779-4.139,1.644-6.181,2.535"/>
	
		<line style="fill:none;stroke:#000000;stroke-linecap:round;stroke-linejoin:round;" x1="147.386" y1="191.513" x2="147.678" y2="185.232"/>
	<path style="fill:none;stroke:#000000;stroke-linecap:round;stroke-linejoin:round;" d="M116.239,207.034
		c5.571-0.657,11.143-1.308,16.716-1.951"/>
	<path style="fill:none;stroke:#000000;stroke-linecap:round;stroke-linejoin:round;" d="M251.963,177.375
		c1.558-0.461,3.127-0.87,4.712-1.229"/>
</g>
</svg>
