<?xml version="1.0" encoding="utf-8"?>
<!-- Generator: Adobe Illustrator 16.0.4, SVG Export Plug-In . SVG Version: 6.00 Build 0)  -->
<!DOCTYPE svg PUBLIC "-//W3C//DTD SVG 1.1//EN" "http://www.w3.org/Graphics/SVG/1.1/DTD/svg11.dtd">
<svg version="1.1" id="draw" xmlns="http://www.w3.org/2000/svg" xmlns:xlink="http://www.w3.org/1999/xlink" x="0px" y="0px"
	 width="500px" height="500px" viewBox="-50 -100 500 500" enable-background="new -50 -100 500 500" xml:space="preserve">
<polygon fill="none" stroke="#FFFFFF" stroke-width="4" stroke-linecap="round" stroke-linejoin="round" stroke-miterlimit="10" points="
	181.521,129.144 184.61,128.57 187.704,127.444 187.333,131.389 "/>
<g>
	<path fill="#FFFFFF" d="M200,296.534c-39.844,0-78.179-16.386-105.729-45.074l19.761-20.051c0.06-0.061,0.118-0.124,0.173-0.188
		l27.575-32.251c0.125-0.146,0.239-0.303,0.339-0.468l23.831-39.05l9.583-3.596l33.939,2.12l8.421,3.209
		c0.414,0.158,0.852,0.238,1.292,0.238c0.17,0,0.339-0.012,0.508-0.036l8.824-1.249c1.028-0.146,1.944-0.724,2.517-1.589
		c0.573-0.866,0.747-1.935,0.479-2.938l-3.118-11.677c-0.23-0.865-0.773-1.614-1.523-2.103l-20.301-13.233l-11.62-10.239
		c-0.519-0.457-1.157-0.756-1.84-0.863l-8.902-1.386l-8.573-10.627c-0.705-0.874-1.751-1.35-2.824-1.35
		c-0.479,0-0.963,0.095-1.423,0.292c-1.493,0.638-2.381,2.19-2.173,3.8l1.05,8.128l-0.148,0.159l-7.296-4.804
		c-0.601-0.396-1.296-0.598-1.995-0.598c-0.476,0-0.955,0.094-1.407,0.284c-1.115,0.469-1.923,1.464-2.153,2.651l-2.153,11.087
		l-53.337,52.375l-30.202,24.1l-6.93,4.636c-7.422-17.821-11.182-36.72-11.182-56.243C53.464,69.2,119.2,3.464,200,3.464
		C280.8,3.464,346.535,69.2,346.535,150C346.535,230.8,280.8,296.534,200,296.534z"/>
	<path fill="#FFFFFF" d="M200,7.091c38.171,0,74.059,14.865,101.051,41.857c26.992,26.993,41.857,62.88,41.857,101.052
		c0,38.171-14.865,74.057-41.857,101.049c-26.993,26.992-62.88,41.857-101.051,41.857c-20.404,0-40.104-4.207-58.554-12.504
		c-15.739-7.078-29.869-16.798-42.087-28.938l17.257-17.511c0.12-0.122,0.236-0.248,0.347-0.378l27.574-32.251
		c0.251-0.293,0.478-0.605,0.679-0.935l23.18-37.983l7.686-2.885l32.615,2.037l7.906,3.013c0.827,0.315,1.703,0.476,2.583,0.476
		c0.339,0,0.679-0.024,1.017-0.071l8.824-1.249c2.055-0.291,3.887-1.448,5.032-3.179s1.495-3.87,0.96-5.875l-3.118-11.677
		c-0.462-1.729-1.548-3.228-3.048-4.205l-20.08-13.09l-11.423-10.065c-1.037-0.914-2.313-1.513-3.68-1.725l-7.517-1.17l-7.692-9.536
		c-1.41-1.748-3.503-2.7-5.648-2.7c-0.958,0-1.925,0.19-2.847,0.583c-2.986,1.275-4.761,4.38-4.345,7.6l0.073,0.567l-0.877-0.577
		c-1.202-0.792-2.591-1.195-3.989-1.195c-0.953,0-1.91,0.188-2.813,0.568c-2.23,0.939-3.846,2.928-4.307,5.303l-1.938,9.98
		l-52.401,51.455l-29.936,23.888l-3.078,2.059c-6.151-16.163-9.264-33.191-9.264-50.736c0-38.172,14.865-74.06,41.857-101.052
		S161.828,7.091,200,7.091 M200-0.163C117.068-0.163,49.837,67.069,49.837,150c0,21.989,4.729,42.872,13.219,61.692l-0.006-0.018
		l10.669-7.138l30.466-24.311l54.275-53.295l2.368-12.193l9.844,6.481l3.412-3.63l-1.27-9.829l9.453,11.718l10.287,1.602
		l11.817,10.413l20.521,13.377l3.118,11.677l-8.824,1.249l-8.937-3.405l-35.264-2.203l-11.479,4.308l-24.482,40.118l-27.575,32.251
		l-22.208,22.534c27.449,29.972,66.911,48.764,110.759,48.764c82.93,0,150.162-67.231,150.162-150.161
		C350.162,67.069,282.93-0.163,200-0.163L200-0.163z"/>
</g>
</svg>
