<?xml version="1.0" encoding="utf-8"?>
<!-- Generator: Adobe Illustrator 16.0.4, SVG Export Plug-In . SVG Version: 6.00 Build 0)  -->
<!DOCTYPE svg PUBLIC "-//W3C//DTD SVG 1.1//EN" "http://www.w3.org/Graphics/SVG/1.1/DTD/svg11.dtd">
<svg version="1.1" id="Layer_1" xmlns="http://www.w3.org/2000/svg" xmlns:xlink="http://www.w3.org/1999/xlink" x="0px" y="0px"
	 width="400px" height="400px" viewBox="0 0 400 400" enable-background="new 0 0 400 400" xml:space="preserve">
<g id="jewel::mount_display">
	<path fill="none" stroke="#FFFFFF" stroke-width="6" stroke-linecap="round" stroke-linejoin="round" d="M170.228,331.906
		c20.629,3.934,42.643,0.862,61.596-9.33c18.738-10.074,35-27.623,40.866-50.91"/>
	<path fill="none" stroke="#FFFFFF" stroke-width="6" stroke-linecap="round" stroke-linejoin="round" d="M232.139,205.867
		c29.754,23.362,30.789,65.309,2.102,90.333c-24.956,21.769-63.712,22.798-89.601,2.467c-29.742-23.357-30.784-65.287-2.111-90.315
		C167.483,186.57,206.244,185.534,232.139,205.867z"/>
	<path fill="none" stroke="#FFFFFF" stroke-width="6" stroke-linecap="round" stroke-linejoin="round" d="M200.734,188.214
		c-2.28-0.961-3.649-3.583-1.926-5.901c1.439-1.939,4.184-2.32,6.164-1.487c2.28,0.959,3.647,3.582,1.925,5.9
		C205.459,188.664,202.713,189.047,200.734,188.214z"/>
	<path fill="none" stroke="#FFFFFF" stroke-width="6" stroke-linecap="round" stroke-linejoin="round" d="M272.69,271.666
		c0.595-2.356,1.069-4.729,1.428-7.143"/>
	<path fill="none" stroke="#FFFFFF" stroke-width="6" stroke-linecap="round" stroke-linejoin="round" d="M274.118,264.523
		c5.377-36.205-16.462-66.005-44.196-79.626c-27.457-13.487-60.986-12.31-87.571,3.308c-26.949,15.829-46.445,47.422-38.351,83.077
		c7.812,34.406,37.352,55.12,66.228,60.625"/>
</g>
<g id="ring">
	<path fill="none" stroke="#FFFFFF" stroke-width="6" stroke-linecap="round" stroke-linejoin="round" d="M206.292,181.647
		c-0.479,1.118-0.958,2.193-1.741,3.118c-1.209,1.426-1.723,0.246-1.793-1.375c-0.113-2.54,0.389-4.871,0.968-7.268
		c0.577-2.389,1.288-4.684,2.296-6.9c0.506-1.111,0.928-2.192,1.896-2.987c1.354-1.114,1.432,1.083,1.425,2.325"/>
	<path fill="none" stroke="#FFFFFF" stroke-width="6" stroke-linecap="round" stroke-linejoin="round" d="M209.342,168.561
		c-0.018,3.108-0.703,5.946-1.551,8.844"/>
</g>
<g id="thread">
	<path fill="none" stroke="#FFFFFF" stroke-width="6" stroke-linecap="round" stroke-linejoin="round" d="M208.601,43.455
		c-14.287,4.742-27.608,10.229-39.8,20.478c-12.496,10.505-19.901,23.882-17.772,42.205c1.795,15.456,9.95,32.321,19.308,43.467
		c5.939,7.075,12.672,12.426,20.177,17.141c5.471,3.438,10.627,6.651,17.235,7.159c6.026,0.464,11.058-1.441,16.362-4.075
		c8.318-4.128,15.912-9.533,23.667-14.717c12.61-8.428,25.195-16.736,38.698-23.401c7.455-3.68,15.236-6.347,22.205-11.427
		c5.951-4.337,9.481-9.812,8.053-18.236c-1.092-6.459-3.927-11.484-7.177-16.664c-5.284-8.425-11.492-15.758-18.001-22.939"/>
</g>
<g id="total">
</g>
</svg>
