<?xml version="1.0" encoding="utf-8"?>
<!-- Generator: Adobe Illustrator 16.0.4, SVG Export Plug-In . SVG Version: 6.00 Build 0)  -->
<!DOCTYPE svg PUBLIC "-//W3C//DTD SVG 1.1//EN" "http://www.w3.org/Graphics/SVG/1.1/DTD/svg11.dtd">
<svg version="1.1" id="Layer_1" xmlns="http://www.w3.org/2000/svg" xmlns:xlink="http://www.w3.org/1999/xlink" x="0px" y="0px"
	 width="500px" height="500px" viewBox="250 -300 500 500" enable-background="new 250 -300 500 500" xml:space="preserve">
<g>
	<path fill="none" stroke="#FFFFFF" stroke-width="10" stroke-linecap="round" stroke-linejoin="round" stroke-miterlimit="10" d="
		M628.066-49.998c0,70.729-57.34,128.065-128.068,128.065c-70.725,0-128.063-57.336-128.063-128.065
		c0-70.729,57.336-128.07,128.063-128.07C570.729-178.068,628.066-120.729,628.066-49.998z"/>
	<path fill="none" stroke="#FFFFFF" stroke-width="10" stroke-miterlimit="10" d="M484.931-177.167c0,0-11.22,69.804,28.961,95.151
		c50.745,32.019,67.055-18.726,113.696,21.136"/>
	<path fill="none" stroke="#FFFFFF" stroke-width="10" stroke-miterlimit="10" d="M372.32-40.274c0,0,57.693-16.243,102.911,20.482
		c44.233,35.923,44.233,96.388,44.233,96.388"/>
	<path fill="none" stroke="#FFFFFF" stroke-width="10" stroke-miterlimit="10" d="M394.286-127.32
		c0,0,116.114,82.156,200.318,159.484"/>
	<path fill="none" stroke="#FFFFFF" stroke-width="10" stroke-miterlimit="10" d="M418.021,48.867
		c0,0,123.94-165.48,159.753-196.508"/>
</g>
</svg>
