<?xml version="1.0" encoding="utf-8"?>
<!-- Generator: Adobe Illustrator 16.0.4, SVG Export Plug-In . SVG Version: 6.00 Build 0)  -->
<!DOCTYPE svg PUBLIC "-//W3C//DTD SVG 1.1//EN" "http://www.w3.org/Graphics/SVG/1.1/DTD/svg11.dtd">
<svg version="1.1" id="cut" xmlns="http://www.w3.org/2000/svg" xmlns:xlink="http://www.w3.org/1999/xlink" x="0px" y="0px"
	 width="500px" height="500px" viewBox="0 0 500 500" enable-background="new 0 0 500 500" xml:space="preserve">
<g>
	<path fill="#FFFFFF" d="M115.672,181.583c2.305,0.618,4.608,1.234,6.912,1.851c5.582,1.494,8.897,7.229,7.402,12.812
		c-3.607,13.475-7.214,26.95-10.822,40.425c-1.494,5.582-7.23,8.893-12.811,7.4c-2.305-0.617-4.609-1.235-6.912-1.852
		C100.568,220.417,105.758,201.034,115.672,181.583z"/>
	<path fill="#FFFFFF" d="M126.942,162.941c42.162-59.536,120.923-80.308,186.96-49.311
		c66.039,30.999,100.377,104.861,81.512,175.332S309.902,406.261,237.211,400.12c-72.695-6.14-130.543-63.485-137.322-136.119
		c7.089,1.897,14.178,3.796,21.265,5.691c5.583,1.496,11.317-1.817,12.811-7.4c7.219,0.007,14.435,0.016,21.655,0.019
		c3.507-4.308,6.652-7.925,9.431-10.845c5.014-1.781,6.835,1.84,5.457,10.856c3.507-4.307,6.651-7.924,9.432-10.844
		c5.013-1.781,6.832,1.838,5.455,10.857c3.508-4.31,6.651-7.924,9.432-10.846c5.014-1.779,6.832,1.841,5.454,10.856
		c3.51-4.307,6.652-7.922,9.434-10.844c5.013-1.78,6.834,1.842,5.455,10.856c3.508-4.307,6.653-7.922,9.431-10.846
		c5.017-1.781,6.835,1.841,5.457,10.859c3.508-4.311,6.653-7.923,9.433-10.845c5.014-1.782,6.832,1.839,5.454,10.856
		c3.51-4.308,6.653-7.922,9.432-10.845c5.016-1.782,6.837,1.84,5.456,10.855c3.507-4.308,6.652-7.923,9.431-10.844
		c5.015-1.78,6.838,1.841,5.458,10.857c4.538,0.005,9.077,0.01,13.617,0.015c4.742,0.003,8.891-3.18,10.113-7.757
		c2.012-7.518,4.026-15.037,6.039-22.552c1.494-5.582-1.819-11.318-7.399-12.811c-47.163-12.627-94.324-25.251-141.486-37.876
		c1.494-5.581-1.818-11.317-7.401-12.811C141.12,166.737,134.032,164.838,126.942,162.941z"/>
	
		<line fill="none" stroke="#FFFFFF" stroke-width="4.3828" stroke-linecap="round" stroke-linejoin="round" stroke-miterlimit="10" x1="158.896" y1="177.438" x2="134.811" y2="267.404"/>
</g>
</svg>
