<?xml version="1.0" encoding="utf-8"?>
<!-- Generator: Adobe Illustrator 16.0.4, SVG Export Plug-In . SVG Version: 6.00 Build 0)  -->
<!DOCTYPE svg PUBLIC "-//W3C//DTD SVG 1.1//EN" "http://www.w3.org/Graphics/SVG/1.1/DTD/svg11.dtd">
<svg version="1.1" id="trace" xmlns="http://www.w3.org/2000/svg" xmlns:xlink="http://www.w3.org/1999/xlink" x="0px" y="0px"
	 width="500px" height="500px" viewBox="0 0 500 500" enable-background="new 0 0 500 500" xml:space="preserve">
<path fill="none" stroke="#FFFFFF" stroke-width="6" stroke-linecap="round" stroke-linejoin="round" stroke-miterlimit="10" d="
	M141.327,79.233c-43.334,91.874,17.958,103.338,19.348,182.851c2.037,116.528-34.822,174.91,29.191,177.626
	c74.608,3.165,24.522-92.389,19.008-182.614c-4.115-67.333,62.002-66.075,15.102-178.748c0,0-10.688,25.155-10.01,55.874
	c0.44,19.927-6.901,24.666-6.901,24.666s-11.371-6.235-11.089-30.606c0.339-29.361-11.531-44.805-11.531-44.805
	s-12.399,13.747-11.89,43.956c0.36,21.375-9.843,31.908-9.843,31.908s-8.826-9.505-8.147-31.568
	C155.444,99.201,141.327,79.233,141.327,79.233z"/>
<path fill="none" stroke="#FFFFFF" stroke-width="5" stroke-linecap="round" stroke-linejoin="round" stroke-miterlimit="10" d="
	M334.172,123.603c-26.955,57.147,11.171,64.278,12.034,113.737c1.269,72.483-21.659,108.799,18.157,110.487
	c46.408,1.968,15.254-57.468,11.824-113.59c-2.562-41.884,38.565-41.101,9.394-111.186c0,0-6.649,15.647-6.228,34.755
	c0.273,12.395-4.291,15.343-4.291,15.343s-7.073-3.879-6.898-19.038c0.211-18.264-7.172-27.87-7.172-27.87
	s-7.713,8.551-7.396,27.342c0.225,13.295-6.121,19.847-6.121,19.847s-5.49-5.913-5.067-19.636
	C342.953,136.022,334.172,123.603,334.172,123.603z"/>
<path fill="none" stroke="#FFFFFF" stroke-width="4" stroke-linecap="round" stroke-linejoin="round" stroke-miterlimit="10" d="
	M263.21,249.065c-16.517,35.017,6.845,39.385,7.374,69.689c0.775,44.413-13.271,66.665,11.126,67.7
	c28.435,1.206,9.347-35.213,7.244-69.602c-1.568-25.663,23.631-25.185,5.756-68.126c0,0-4.074,9.588-3.815,21.295
	c0.168,7.596-2.629,9.401-2.629,9.401s-4.334-2.377-4.228-11.665c0.13-11.191-4.396-17.076-4.396-17.076s-4.727,5.238-4.531,16.752
	c0.138,8.146-3.752,12.161-3.752,12.161s-3.363-3.622-3.104-12.032C268.591,256.676,263.21,249.065,263.21,249.065z"/>
</svg>
