<?xml version="1.0" encoding="utf-8"?>
<!-- Generator: Adobe Illustrator 16.0.4, SVG Export Plug-In . SVG Version: 6.00 Build 0)  -->
<!DOCTYPE svg PUBLIC "-//W3C//DTD SVG 1.1//EN" "http://www.w3.org/Graphics/SVG/1.1/DTD/svg11.dtd">
<svg version="1.1" id="trace" xmlns="http://www.w3.org/2000/svg" xmlns:xlink="http://www.w3.org/1999/xlink" x="0px" y="0px"
	 width="400px" height="400px" viewBox="0 0 400 400" enable-background="new 0 0 400 400" xml:space="preserve">
<line fill="none" stroke="#000000" stroke-linecap="round" stroke-linejoin="round" x1="289.094" y1="298.799" x2="255.312" y2="290.518"/>
<line fill="none" stroke="#000000" stroke-linecap="round" stroke-linejoin="round" x1="250.594" y1="298.799" x2="287.625" y2="289.736"/>
<line fill="none" stroke="#000000" stroke-linecap="round" stroke-linejoin="round" x1="287.625" y1="289.736" x2="259.125" y2="284.205"/>
<line fill="none" stroke="#000000" stroke-linecap="round" stroke-linejoin="round" x1="255.312" y1="290.518" x2="286.188" y2="282.924"/>
<line fill="none" stroke="#000000" stroke-linecap="round" stroke-linejoin="round" x1="286.188" y1="282.924" x2="262.219" y2="279.33"/>
<line fill="none" stroke="#000000" stroke-linecap="round" stroke-linejoin="round" x1="259.125" y1="284.205" x2="284.938" y2="277.83"/>
<line fill="none" stroke="#000000" stroke-linecap="round" stroke-linejoin="round" x1="284.938" y1="277.83" x2="264.781" y2="275.611"/>
<line fill="none" stroke="#000000" stroke-linecap="round" stroke-linejoin="round" x1="262.219" y1="279.33" x2="283.781" y2="273.986"/>
<line fill="none" stroke="#000000" stroke-linecap="round" stroke-linejoin="round" x1="283.781" y1="273.986" x2="266.875" y2="272.736"/>
<line fill="none" stroke="#000000" stroke-linecap="round" stroke-linejoin="round" x1="264.781" y1="275.611" x2="282.812" y2="271.143"/>
<line fill="none" stroke="#000000" stroke-linecap="round" stroke-linejoin="round" x1="282.812" y1="271.143" x2="268.656" y2="270.518"/>
<line fill="none" stroke="#000000" stroke-linecap="round" stroke-linejoin="round" x1="266.875" y1="272.736" x2="281.969" y2="268.986"/>
<line fill="none" stroke="#000000" stroke-linecap="round" stroke-linejoin="round" x1="141.104" y1="298.798" x2="130.136" y2="265.798"/>
<line fill="none" stroke="#000000" stroke-linecap="round" stroke-linejoin="round" x1="128.604" y1="298.798" x2="140.604" y2="262.642"/>
<line fill="none" stroke="#000000" stroke-linecap="round" stroke-linejoin="round" x1="140.604" y1="262.642" x2="124.198" y2="241.61"/>
<line fill="none" stroke="#000000" stroke-linecap="round" stroke-linejoin="round" x1="130.136" y1="265.798" x2="132.323" y2="236.642"/>
<line fill="none" stroke="#000000" stroke-linecap="round" stroke-linejoin="round" x1="132.323" y1="236.642" x2="115.417" y2="224.985"/>
<line fill="none" stroke="#000000" stroke-linecap="round" stroke-linejoin="round" x1="124.198" y1="241.61" x2="121.292" y2="219.267"/>
<line fill="none" stroke="#000000" stroke-linecap="round" stroke-linejoin="round" x1="121.292" y1="219.267" x2="106.261" y2="214.11"/>
<line fill="none" stroke="#000000" stroke-linecap="round" stroke-linejoin="round" x1="115.417" y1="224.985" x2="110.229" y2="208.329"/>
<line fill="none" stroke="#000000" stroke-linecap="round" stroke-linejoin="round" x1="110.229" y1="208.329" x2="97.948" y2="207.329"/>
<line fill="none" stroke="#000000" stroke-linecap="round" stroke-linejoin="round" x1="106.261" y1="214.11" x2="100.417" y2="201.926"/>
<line fill="none" stroke="#000000" stroke-linecap="round" stroke-linejoin="round" x1="100.417" y1="201.926" x2="90.917" y2="203.332"/>
<line fill="none" stroke="#000000" stroke-linecap="round" stroke-linejoin="round" x1="97.948" y1="207.329" x2="92.292" y2="198.457"/>
<line fill="none" stroke="#000000" stroke-linecap="round" stroke-linejoin="round" x1="210.594" y1="298.798" x2="184.719" y2="275.579"/>
<line fill="none" stroke="#000000" stroke-linecap="round" stroke-linejoin="round" x1="181.094" y1="298.798" x2="209.469" y2="273.329"/>
<line fill="none" stroke="#000000" stroke-linecap="round" stroke-linejoin="round" x1="209.469" y1="273.329" x2="186.188" y2="257.86"/>
<line fill="none" stroke="#000000" stroke-linecap="round" stroke-linejoin="round" x1="184.719" y1="275.579" x2="206.781" y2="254.298"/>
<line fill="none" stroke="#000000" stroke-linecap="round" stroke-linejoin="round" x1="206.781" y1="254.298" x2="186.469" y2="244.392"/>
<line fill="none" stroke="#000000" stroke-linecap="round" stroke-linejoin="round" x1="186.188" y1="257.86" x2="203.531" y2="240.142"/>
<line fill="none" stroke="#000000" stroke-linecap="round" stroke-linejoin="round" x1="203.531" y1="240.142" x2="186.156" y2="234.204"/>
<line fill="none" stroke="#000000" stroke-linecap="round" stroke-linejoin="round" x1="186.469" y1="244.392" x2="200.25" y2="229.704"/>
<line fill="none" stroke="#000000" stroke-linecap="round" stroke-linejoin="round" x1="200.25" y1="229.704" x2="185.625" y2="226.485"/>
<line fill="none" stroke="#000000" stroke-linecap="round" stroke-linejoin="round" x1="186.156" y1="234.204" x2="197.219" y2="222.048"/>
<line fill="none" stroke="#000000" stroke-linecap="round" stroke-linejoin="round" x1="197.219" y1="222.048" x2="185" y2="220.61"/>
<line fill="none" stroke="#000000" stroke-linecap="round" stroke-linejoin="round" x1="185.625" y1="226.485" x2="194.531" y2="216.392"/>
</svg>
