<?xml version="1.0" encoding="utf-8"?>
<!-- Generator: Adobe Illustrator 18.0.0, SVG Export Plug-In . SVG Version: 6.00 Build 0)  -->
<!DOCTYPE svg PUBLIC "-//W3C//DTD SVG 1.1//EN" "http://www.w3.org/Graphics/SVG/1.1/DTD/svg11.dtd">
<svg version="1.1" xmlns="http://www.w3.org/2000/svg" xmlns:xlink="http://www.w3.org/1999/xlink" x="0px" y="0px"
	 viewBox="0 0 400 400" enable-background="new 0 0 400 400" xml:space="preserve">
<g id="fill">
	<circle fill="#0F3955" cx="200" cy="200" r="199.221"/>
</g>
<g id="Layer_1">
</g>
<g id="members">
</g>
<g id="bolts">
</g>
<g id="draw">
</g>
<g id="Default">
</g>
<g id="cut">
</g>
<g id="favIcon">
</g>
<g id="_x31_31207_x5F_thank_x5F_you_x5F_note">
</g>
<g id="_x31_40227_x5F_banner">
	<circle fill="#FFFFFF" cx="158.324" cy="221.22" r="14.422"/>
	<path fill="#FFFFFF" d="M161.654,276c0,0,0,15.721,0,22.485c0,6.764,9,7.146,9,0.115c0-9.171,0-49.064,0-49.064
		c4,2.98,6.239,13.956,6.809,17.625c0.802,5.159,8.207,4.98,7.633-0.638c-1.844-18.071-9.6-28.523-17.799-28.523h-16.353
		c-9.266,0-16.259,10.452-18.103,28.523c-0.573,5.617,6.176,5.893,6.979,0.734c0.571-3.669,1.832-14.742,5.832-17.722
		c0,0,0,39.893,0,49.064c0,7.031,9,6.649,9-0.115c0-6.764,0-22.485,0-22.485H161.654z"/>
	<path fill="#FFFFFF" d="M243.074,244.333h-3.455c0,0,3-38.979,3-68s-6-83.416-6-106s3-69.747,3-69.747h3.455c0,0-3,49.956-3,69.747
		s6,75.536,6,106S243.074,244.333,243.074,244.333z"/>
	<path fill="#FFFFFF" d="M203.618,244.333h3.455c0,0-3-38.979-3-68s6-83.416,6-106s-3-69.747-3-69.747h-3.455c0,0,3,49.956,3,69.747
		s-6,75.536-6,106S203.618,244.333,203.618,244.333z"/>
	<rect x="192.738" y="247" fill="#FFFFFF" width="60" height="5.158"/>
</g>
</svg>
