<?xml version="1.0" encoding="utf-8"?>
<!-- Generator: Adobe Illustrator 16.0.0, SVG Export Plug-In . SVG Version: 6.00 Build 0)  -->
<!DOCTYPE svg PUBLIC "-//W3C//DTD SVG 1.1//EN" "http://www.w3.org/Graphics/SVG/1.1/DTD/svg11.dtd">
<svg version="1.1" xmlns="http://www.w3.org/2000/svg" xmlns:xlink="http://www.w3.org/1999/xlink" x="0px" y="0px" width="400px"
	 height="400px" viewBox="0 0 400 400" enable-background="new 0 0 400 400" xml:space="preserve">
<g id="fill">
	<circle fill="#0F3955" cx="670.943" cy="-737" r="198.711"/>
	<circle fill="#0F3955" cx="1142.943" cy="-737.465" r="198.654"/>
	<circle fill="#0F3955" cx="-273.057" cy="-737" r="199.221"/>
	<circle fill="#0F3955" cx="-273.057" cy="-265" r="199.221"/>
	<circle fill="#0F3955" cx="670.943" cy="-264.288" r="199.221"/>
	<circle fill="#0F3955" cx="1145.068" cy="-265.288" r="199.221"/>
	<circle fill="#0F3955" cx="1144.401" cy="-265.288" r="199.221"/>
	<circle fill="#0F3955" cx="1144.026" cy="-265.288" r="199.221"/>
	<circle fill="#0F3955" cx="-273.057" cy="-1209" r="198.806"/>
	<path fill="#0F3955" d="M198.078-538.061C88.206-538.535-0.475-627.993,0.002-737.866C0.479-847.738,89.936-936.42,199.809-935.941
		c109.872,0.478,198.554,89.934,198.076,199.806C397.406-626.264,307.951-537.582,198.078-538.061z"/>
	<path fill="#0F3955" d="M198.078-65.061C88.206-65.535-0.475-154.993,0.002-264.866C0.479-374.738,89.936-463.42,199.809-462.941
		c109.872,0.478,198.554,89.934,198.076,199.806C397.406-153.264,307.951-64.582,198.078-65.061z"/>
	<path fill="#0F3955" d="M1142.944-1010.073c-54.089,0-106.13-22.244-143.529-61.19l26.826-27.219
		c0.08-0.083,0.159-0.17,0.233-0.256c0,0,21.731-21.636,37.434-43.782s0.326-0.411,0.461-0.636c0,0,30.879-51.74,32.352-53.011
		s10.547-4.433,13.01-4.883s42.811,2.331,46.074,2.878s8.931,4.255,13.875,4.631c6.462,0.491,13.805-1.167,15.395-3.853
		c2.494-5.523-3.583-19.841-3.583-19.841c-0.312-1.174-1.049-2.191-2.066-2.854c0,0-20.763-13.142-27.56-17.964
		s-15.247-13.484-18.271-15.071c-3.296-1.73-10.522-0.805-12.086-1.882s-11.637-14.427-11.637-14.427
		c-0.958-1.187-2.378-1.833-3.835-1.833c-0.65,0-1.307,0.129-1.932,0.396c-2.025,0.865-3.232,2.973-2.951,5.159l1.426,11.034
		l-0.199,0.216l-9.905-6.521c-0.816-0.538-1.76-0.812-2.708-0.812c-0.646,0-1.297,0.128-1.911,0.386
		c-1.513,0.637-2.609,1.987-2.92,3.599c0,0-1.939,13.042-2.924,15.051s-52.413,53.109-72.407,71.101s-50.409,39.012-50.409,39.012
		c-10.075-24.193-15.18-49.85-15.18-76.353c0.001-109.689,89.24-198.928,198.929-198.928c109.689,0,198.928,89.239,198.928,198.928
		C1341.872-1099.311,1252.634-1010.073,1142.944-1010.073z"/>
	<path fill="#0F3955" d="M523.767-1192.855l28.07-104.892c60.312,16.145,120.623,32.289,180.938,48.437
		c7.327,1.961,11.676,9.492,9.716,16.821c-2.643,9.867-5.287,19.739-7.928,29.61c-1.604,6.01-7.053,10.188-13.28,10.185
		c-5.96-0.006-11.92-0.013-17.877-0.02c1.81-11.837-0.583-16.592-7.169-14.255c-3.647,3.835-7.777,8.582-12.382,14.237
		c1.813-11.836-0.577-16.592-7.162-14.252c-3.65,3.838-7.776,8.582-12.387,14.239c1.812-11.84-0.577-16.593-7.158-14.253
		c-3.652,3.837-7.782,8.578-12.387,14.239c1.81-11.842-0.577-16.597-7.166-14.257c-3.646,3.839-7.776,8.584-12.383,14.24
		c1.812-11.837-0.581-16.592-7.162-14.255c-3.652,3.837-7.777,8.583-12.387,14.239c1.81-11.838-0.577-16.591-7.16-14.256
		c-3.652,3.838-7.777,8.583-12.385,14.241c1.809-11.841-0.581-16.594-7.162-14.254c-3.65,3.834-7.779,8.583-12.385,14.237
		c1.811-11.837-0.58-16.592-7.164-14.254c-3.647,3.835-7.777,8.583-12.382,14.239
		C539.268-1192.838,531.519-1192.847,523.767-1192.855z M501.771-1183.146c-9.305-2.487-18.612-4.979-27.919-7.471
		c8.898,95.366,84.854,170.66,180.302,178.723c95.442,8.062,182.948-53.423,207.718-145.95
		c24.771-92.526-20.314-189.507-107.024-230.208c-86.706-40.699-190.117-13.426-245.475,64.744
		c9.307,2.491,18.614,4.984,27.917,7.446c7.331,1.962,11.68,9.492,9.718,16.82l-28.415,106.181
		C516.632-1185.53,509.102-1181.181,501.771-1183.146z"/>
	<g>
		<rect x="123.005" y="-230.741" fill="#FFFFFF" width="152.028" height="21.306"/>
		<rect x="123.005" y="-274.265" fill="#FFFFFF" width="152.028" height="21.762"/>
		<rect x="160.442" y="-317.788" fill="#FFFFFF" width="114.592" height="21.762"/>
		<path fill="#FFFFFF" d="M122.853-306.831c0-6.696,5.479-12.175,12.175-12.175c6.696,0,12.174,5.479,12.174,12.175
			s-5.479,12.175-12.174,12.175C128.332-294.656,122.853-300.135,122.853-306.831"/>
	</g>
</g>
<g id="Layer_1">
	
		<path fill="none" stroke="#FFFFFF" stroke-width="5.2735" stroke-linecap="round" stroke-linejoin="round" stroke-miterlimit="10" d="
		M1132.784-801.016c1.665-3.597,3.241-3.299,5.178-5.311"/>
	
		<path fill="none" stroke="#FFFFFF" stroke-width="5.2735" stroke-linecap="round" stroke-linejoin="round" stroke-miterlimit="10" d="
		M1174.408-814.031c25.371-0.133,41.977,5.869,49.73,9.812c7.756,3.942,17.482,12.882,21.689,17.743
		c4.203,4.867,4.73,6.574,7.756,11.175c3.021,4.601,16.3,31.022,18.4,35.622c2.104,4.602,16.037,31.021,16.957,33.125
		s2.367,2.233,2.762,0c0.393-2.234-5.389-19.061-6.835-23.137c-1.446-4.072-8.152-18.402-10.518-23.133
		c-2.366-4.731-6.569-14.592-8.676-18.404c-2.103-3.811-6.177-9.596-7.887-12.355c-1.712-2.76-11.438-11.699-14.856-14.983
		c-3.418-3.288-12.62-10.649-16.824-11.964c-4.209-1.315-5.52-0.527-9.334-1.315c-3.811-0.787-9.727-2.366-12.748-3.024
		c-3.025-0.656-4.076-0.261-8.283-1.05s-13.277-3.811-15.643-4.865c-2.364-1.05-13.012-7.36-16.693-7.754
		c-3.68-0.394-10.384,1.313-14.197,1.052c-3.811-0.263-7.888-1.841-10.385-3.023c-2.496-1.182-16.563-4.336-18.535-4.73
		c-1.971-0.395-5.125,0-6.309,0s-3.812,0.264-7.229,1.314c-3.418,1.051-12.356,0.919-15.645,1.182
		c-3.285,0.264-27.077,4.997-28.916,5.258c-1.842,0.264-5.127,0.922-6.572,2.234c-1.446,1.314-3.68,4.076-5.391,6.705
		c-1.708,2.63-8.28,11.043-10.516,14.066c-2.234,3.021-7.36,13.012-7.36,13.012s-6.746,12.838-7.973,16.871
		c-1.228,4.031-3.157,9.64-2.982,11.566c0.177,1.929,1.577,1.402,3.069-0.613c1.49-2.016,2.363-4.383,3.242-4.469
		c0.877-0.086,3.592-1.666,4.994-7.187c0,0,0.527,1.579,2.191,0.528c1.664-1.053,7.668-9.182,7.535-12.271
		c0,0,1.819,0.375,3.528-1.664c2.538-3.027,5.497-7.797,5.497-10.777c0,0-0.087,0.7,1.928-0.878
		c2.016-1.576,3.418-3.242,3.769-5.431c0,0,6.222-4.537,6.046-7.801c0,0,2.979-3.855,7.625-4.557
		c4.645-0.702,7.537-2.893,10.69-3.77c3.155-0.875,25.239-4.994,27.692-5.52c2.453-0.528,9.288-2.367,12.441-1.93
		c3.155,0.439,7.539,2.104,10.867,3.418c3.33,1.314,7.098,1.227,9.815,4.555"/>
	
		<path fill="none" stroke="#FFFFFF" stroke-width="5.2735" stroke-linecap="round" stroke-linejoin="round" stroke-miterlimit="10" d="
		M1204.861-809.915c0.569,0.308,5.782,1.36,4.336,2.323c-1.444,0.965-0.393,1.666-0.393,1.666c0.263,1.578-7.934,0.613-9.859,2.499
		c-1.929,1.885-4.075,0.92-7.844,3.329c-3.769,2.41-12.795,2.455-16.43,3.727c-3.637,1.269-11.175,0.086-14.459-0.615
		c-3.287-0.701-8.371-1.752-12.839-5.783c-4.47-4.032-7.756-1.684-9.202-0.807c-1.446,0.878-5.564,4.573-5.564,4.573
		c-3.243-7.579,1.273-7.36,3.461-9.289c2.19-1.928,1.183-2.628,1.84-3.111c0.657-0.479,1.229-2.146,0.791-3.112
		c-0.44-0.965-0.484-2.848,0.48-4.337c0.963-1.488,6.266-3.724,9.223-3.155"/>
	<path fill="#FFFFFF" d="M1147.773-816.302c-0.988,0-1.607,0.566-2.089,1.931c-0.607,1.727,0.758,2.486,2.081,3.191
		c0.262,0.143,0.549,0.209,0.837,0.209c1.132,0,2.318-1.01,2.605-2.182c0.351-1.473-0.657-2.592-2.584-3.041
		C1148.311-816.265,1148.029-816.302,1147.773-816.302L1147.773-816.302z"/>
	
		<line fill="none" stroke="#FFFFFF" stroke-width="7" stroke-linecap="round" stroke-linejoin="round" x1="660.73" y1="-771.267" x2="705.212" y2="-726.786"/>
	
		<line fill="none" stroke="#FFFFFF" stroke-width="7" stroke-linecap="round" stroke-linejoin="round" x1="684.771" y1="-771.267" x2="705.212" y2="-750.832"/>
	
		<line fill="none" stroke="#FFFFFF" stroke-width="7" stroke-linecap="round" stroke-linejoin="round" x1="636.688" y1="-723.177" x2="657.123" y2="-702.742"/>
	
		<line fill="none" stroke="#FFFFFF" stroke-width="7" stroke-linecap="round" stroke-linejoin="round" x1="636.688" y1="-747.223" x2="681.165" y2="-702.742"/>
	
		<line fill="none" stroke="#FFFFFF" stroke-width="7" stroke-linecap="round" stroke-linejoin="round" x1="636.688" y1="-771.267" x2="705.212" y2="-702.742"/>
	
		<line fill="none" stroke="#FFFFFF" stroke-width="7" stroke-linecap="round" stroke-linejoin="round" x1="609.037" y1="-843.385" x2="564.558" y2="-798.907"/>
	
		<line fill="none" stroke="#FFFFFF" stroke-width="7" stroke-linecap="round" stroke-linejoin="round" x1="584.994" y1="-843.385" x2="564.558" y2="-822.949"/>
	
		<line fill="none" stroke="#FFFFFF" stroke-width="7" stroke-linecap="round" stroke-linejoin="round" x1="633.08" y1="-795.299" x2="612.645" y2="-774.863"/>
	
		<line fill="none" stroke="#FFFFFF" stroke-width="7" stroke-linecap="round" stroke-linejoin="round" x1="564.557" y1="-654.658" x2="609.036" y2="-699.135"/>
	
		<line fill="none" stroke="#FFFFFF" stroke-width="7" stroke-linecap="round" stroke-linejoin="round" x1="564.557" y1="-678.701" x2="584.992" y2="-699.135"/>
	
		<line fill="none" stroke="#FFFFFF" stroke-width="7" stroke-linecap="round" stroke-linejoin="round" x1="612.645" y1="-630.616" x2="633.079" y2="-651.049"/>
	
		<line fill="none" stroke="#FFFFFF" stroke-width="7" stroke-linecap="round" stroke-linejoin="round" x1="588.601" y1="-630.616" x2="633.079" y2="-675.092"/>
	
		<line fill="none" stroke="#FFFFFF" stroke-width="7" stroke-linecap="round" stroke-linejoin="round" x1="564.557" y1="-630.616" x2="633.079" y2="-699.135"/>
	
		<line fill="none" stroke="#FFFFFF" stroke-width="7" stroke-linecap="round" stroke-linejoin="round" x1="708.809" y1="-654.658" x2="753.29" y2="-699.135"/>
	
		<line fill="none" stroke="#FFFFFF" stroke-width="7" stroke-linecap="round" stroke-linejoin="round" x1="708.809" y1="-678.701" x2="729.242" y2="-699.135"/>
	
		<line fill="none" stroke="#FFFFFF" stroke-width="7" stroke-linecap="round" stroke-linejoin="round" x1="756.887" y1="-630.616" x2="777.33" y2="-651.049"/>
	
		<line fill="none" stroke="#FFFFFF" stroke-width="7" stroke-linecap="round" stroke-linejoin="round" x1="732.84" y1="-630.616" x2="777.33" y2="-675.092"/>
	
		<line fill="none" stroke="#FFFFFF" stroke-width="7" stroke-linecap="round" stroke-linejoin="round" x1="708.809" y1="-630.616" x2="777.33" y2="-699.135"/>
	
		<line fill="none" stroke="#FFFFFF" stroke-width="7" stroke-linecap="round" stroke-linejoin="round" x1="633.08" y1="-819.343" x2="588.603" y2="-774.863"/>
	
		<line fill="none" stroke="#FFFFFF" stroke-width="7" stroke-linecap="round" stroke-linejoin="round" x1="633.08" y1="-843.385" x2="564.558" y2="-774.863"/>
	
		<line fill="none" stroke="#FFFFFF" stroke-width="7" stroke-linecap="round" stroke-linejoin="round" x1="753.289" y1="-843.385" x2="708.809" y2="-798.907"/>
	
		<line fill="none" stroke="#FFFFFF" stroke-width="7" stroke-linecap="round" stroke-linejoin="round" x1="729.242" y1="-843.385" x2="708.809" y2="-822.949"/>
	
		<line fill="none" stroke="#FFFFFF" stroke-width="7" stroke-linecap="round" stroke-linejoin="round" x1="777.328" y1="-843.385" x2="708.809" y2="-774.863"/>
	
		<line fill="none" stroke="#FFFFFF" stroke-width="7" stroke-linecap="round" stroke-linejoin="round" x1="777.328" y1="-819.343" x2="732.84" y2="-774.863"/>
	
		<line fill="none" stroke="#FFFFFF" stroke-width="7" stroke-linecap="round" stroke-linejoin="round" x1="777.328" y1="-795.299" x2="756.886" y2="-774.863"/>
	<path fill="none" stroke="#FFFFFF" stroke-width="6" stroke-linecap="round" stroke-linejoin="round" d="M-252.132-280.057
		c23.577,18.514,24.397,51.755,1.665,71.585c-19.776,17.252-50.489,18.067-71.004,1.954c-23.569-18.508-24.396-51.736-1.674-71.57
		C-303.37-295.35-272.653-296.169-252.132-280.057z"/>
	<path fill="none" stroke="#FFFFFF" stroke-width="6" stroke-linecap="round" stroke-linejoin="round" d="M-277.02-294.045
		c-1.807-0.762-2.893-2.84-1.526-4.677c1.14-1.538,3.315-1.839,4.886-1.179c1.806,0.76,2.889,2.838,1.523,4.676
		C-273.274-293.689-275.451-293.387-277.02-294.045z"/>
	<g>
		<path fill="none" stroke="#FFFFFF" stroke-width="6" stroke-linecap="round" stroke-linejoin="round" d="M-301.193-180.175
			c16.347,3.116,33.791,0.683,48.812-7.394c14.849-7.984,27.735-21.891,32.384-40.346"/>
		<path fill="none" stroke="#FFFFFF" stroke-width="6" stroke-linecap="round" stroke-linejoin="round" d="M-219.998-227.914
			c0.472-1.866,0.848-3.747,1.132-5.66"/>
		<path fill="none" stroke="#FFFFFF" stroke-width="6" stroke-linecap="round" stroke-linejoin="round" d="M-218.866-233.574
			c4.262-28.69-13.045-52.307-35.023-63.1c-21.759-10.688-48.329-9.756-69.396,2.621c-21.356,12.544-36.807,37.58-30.393,65.835
			c6.191,27.265,29.6,43.68,52.484,48.043"/>
	</g>
	<g id="ring_2_">
		<path fill="none" stroke="#FFFFFF" stroke-width="6" stroke-linecap="round" stroke-linejoin="round" d="M-272.614-299.25
			c-0.381,0.887-0.761,1.738-1.38,2.471c-0.96,1.131-1.366,0.195-1.421-1.09c-0.09-2.012,0.308-3.859,0.767-5.759
			c0.457-1.894,1.02-3.712,1.818-5.468c0.401-0.881,0.736-1.737,1.504-2.367c1.072-0.883,1.134,0.857,1.129,1.842"/>
		<path fill="none" stroke="#FFFFFF" stroke-width="6" stroke-linecap="round" stroke-linejoin="round" d="M-270.198-309.62
			c-0.015,2.463-0.558,4.712-1.229,7.009"/>
	</g>
	<g id="thread_2_">
		<path fill="none" stroke="#FFFFFF" stroke-width="6" stroke-linecap="round" stroke-linejoin="round" d="M-270.785-408.762
			c-11.322,3.758-21.878,8.106-31.541,16.229c-9.901,8.324-15.77,18.926-14.083,33.445c1.423,12.248,7.885,25.613,15.302,34.445
			c4.705,5.607,10.041,9.848,15.988,13.584c4.336,2.725,8.421,5.271,13.658,5.673c4.776,0.368,8.763-1.142,12.967-3.229
			c6.592-3.271,12.609-7.555,18.754-11.663c9.995-6.679,19.967-13.262,30.668-18.545c5.907-2.915,12.074-5.029,17.597-9.055
			c4.715-3.437,7.513-7.775,6.382-14.451c-0.865-5.119-3.113-9.101-5.688-13.205c-4.188-6.677-9.108-12.488-14.265-18.179"/>
	</g>
	<g id="total">
	</g>
	<g>
		
			<line fill="none" stroke="#FFFFFF" stroke-width="8" stroke-linecap="round" stroke-linejoin="round" stroke-miterlimit="10" x1="273.243" y1="-783.219" x2="125.645" y2="-691.07"/>
		
			<line fill="none" stroke="#FFFFFF" stroke-width="8" stroke-linecap="round" stroke-linejoin="round" stroke-miterlimit="10" x1="153.369" y1="-810.944" x2="245.518" y2="-663.347"/>
		<path fill="none" stroke="#FFFFFF" stroke-width="8" stroke-linecap="round" stroke-linejoin="round" stroke-miterlimit="10" d="
			M219.384-822.094c0,0-18.53,41.45,0.615,72.116c19.146,30.664,64.093,33.517,64.093,33.517"/>
		<path fill="none" stroke="#FFFFFF" stroke-width="8" stroke-linecap="round" stroke-linejoin="round" stroke-miterlimit="10" d="
			M115.654-757.332c0,0,45.377,1.549,64.521,32.216c19.146,30.665,1.973,72.301,1.973,72.301"/>
		
			<circle fill="none" stroke="#FFFFFF" stroke-width="8" stroke-linecap="round" stroke-linejoin="round" stroke-miterlimit="10" cx="199.44" cy="-737" r="101.511"/>
	</g>
	
		<line fill="none" stroke="#FFFFFF" stroke-width="7" stroke-linecap="round" stroke-linejoin="round" x1="572.788" y1="-237.447" x2="528.513" y2="-181.556"/>
	
		<line fill="none" stroke="#FFFFFF" stroke-width="7" stroke-linecap="round" stroke-linejoin="round" x1="574.641" y1="-238.705" x2="582.813" y2="-249.023"/>
	
		<line fill="none" stroke="#FFFFFF" stroke-width="7" stroke-linecap="round" stroke-linejoin="round" x1="686.492" y1="-196.212" x2="616.88" y2="-108.325"/>
	
		<line fill="none" stroke="#FFFFFF" stroke-width="7" stroke-linecap="round" stroke-linejoin="round" x1="655.1" y1="-290.08" x2="644.41" y2="-276.588"/>
	
		<line fill="none" stroke="#FFFFFF" stroke-width="7" stroke-linecap="round" stroke-linejoin="round" x1="686.197" y1="-246.8" x2="690.167" y2="-243.656"/>
	
		<line fill="none" stroke="#FFFFFF" stroke-width="7" stroke-linecap="round" stroke-linejoin="round" x1="615.949" y1="-241.271" x2="623.887" y2="-234.984"/>
	
		<line fill="none" stroke="#FFFFFF" stroke-width="7" stroke-linecap="round" stroke-linejoin="round" x1="585.982" y1="-247.228" x2="583.603" y2="-249.116"/>
	
		<line fill="none" stroke="#FFFFFF" stroke-width="7" stroke-linecap="round" stroke-linejoin="round" x1="710.274" y1="-266.505" x2="720.588" y2="-258.334"/>
	
		<line fill="none" stroke="#FFFFFF" stroke-width="7" stroke-linecap="round" stroke-linejoin="round" x1="704.995" y1="-302.86" x2="699.438" y2="-307.264"/>
	
		<line fill="none" stroke="#FFFFFF" stroke-width="7" stroke-linecap="round" stroke-linejoin="round" x1="712.573" y1="-246.683" x2="720.741" y2="-257.004"/>
	
		<line fill="none" stroke="#FFFFFF" stroke-width="7" stroke-linecap="round" stroke-linejoin="round" x1="629.255" y1="-241.376" x2="624.22" y2="-235.022"/>
	
		<line fill="none" stroke="#FFFFFF" stroke-width="7" stroke-linecap="round" stroke-linejoin="round" x1="638.025" y1="-280.895" x2="643.582" y2="-276.492"/>
	
		<line fill="none" stroke="#FFFFFF" stroke-width="7" stroke-linecap="round" stroke-linejoin="round" x1="578.078" y1="-290.499" x2="566.17" y2="-299.933"/>
	
		<line fill="none" stroke="#FFFFFF" stroke-width="7" stroke-linecap="round" stroke-linejoin="round" x1="623.42" y1="-320.082" x2="622.166" y2="-318.495"/>
	
		<line fill="none" stroke="#FFFFFF" stroke-width="7" stroke-linecap="round" stroke-linejoin="round" x1="620.019" y1="-350.859" x2="682.176" y2="-429.331"/>
	
		<line fill="none" stroke="#FFFFFF" stroke-width="7" stroke-linecap="round" stroke-linejoin="round" x1="697.087" y1="-328.948" x2="757.069" y2="-404.674"/>
	
		<line fill="none" stroke="#FFFFFF" stroke-width="7" stroke-linecap="round" stroke-linejoin="round" x1="571.681" y1="-308.383" x2="566.021" y2="-301.238"/>
	
		<line fill="none" stroke="#FFFFFF" stroke-width="7" stroke-linecap="round" stroke-linejoin="round" x1="630.053" y1="-178.554" x2="585.987" y2="-122.923"/>
	
		<line fill="none" stroke="#FFFFFF" stroke-width="7" stroke-linecap="round" stroke-linejoin="round" x1="755.929" y1="-179.473" x2="693.324" y2="-100.434"/>
	
		<line fill="none" stroke="#FFFFFF" stroke-width="7" stroke-linecap="round" stroke-linejoin="round" x1="748.75" y1="-242.375" x2="755.036" y2="-250.312"/>
	
		<line fill="none" stroke="#FFFFFF" stroke-width="7" stroke-linecap="round" stroke-linejoin="round" x1="559.093" y1="-299.83" x2="520.134" y2="-330.689"/>
	
		<line fill="none" stroke="#FFFFFF" stroke-width="7" stroke-linecap="round" stroke-linejoin="round" x1="789.592" y1="-255.046" x2="830.226" y2="-306.344"/>
	
		<line fill="none" stroke="#FFFFFF" stroke-width="7" stroke-linecap="round" stroke-linejoin="round" x1="755.036" y1="-250.312" x2="789.592" y2="-255.046"/>
	
		<line fill="none" stroke="#FFFFFF" stroke-width="7" stroke-linecap="round" stroke-linejoin="round" x1="748.75" y1="-242.375" x2="755.929" y2="-179.473"/>
	
		<line fill="none" stroke="#FFFFFF" stroke-width="7" stroke-linecap="round" stroke-linejoin="round" x1="682.754" y1="-232.191" x2="686.492" y2="-196.212"/>
	
		<line fill="none" stroke="#FFFFFF" stroke-width="7" stroke-linecap="round" stroke-linejoin="round" x1="698.894" y1="-307.201" x2="697.087" y2="-328.948"/>
	
		<line fill="none" stroke="#FFFFFF" stroke-width="7" stroke-linecap="round" stroke-linejoin="round" x1="623.42" y1="-320.082" x2="620.019" y2="-350.859"/>
	
		<line fill="none" stroke="#FFFFFF" stroke-width="7" stroke-linecap="round" stroke-linejoin="round" x1="634.239" y1="-306.869" x2="638.025" y2="-280.895"/>
	
		<line fill="none" stroke="#FFFFFF" stroke-width="7" stroke-linecap="round" stroke-linejoin="round" x1="655.1" y1="-290.08" x2="689.462" y2="-295.292"/>
	
		<line fill="none" stroke="#FFFFFF" stroke-width="7" stroke-linecap="round" stroke-linejoin="round" x1="720.588" y1="-258.334" x2="743.839" y2="-260.307"/>
	
		<line fill="none" stroke="#FFFFFF" stroke-width="7" stroke-linecap="round" stroke-linejoin="round" x1="690.197" y1="-243.369" x2="712.573" y2="-246.683"/>
	
		<line fill="none" stroke="#FFFFFF" stroke-width="7" stroke-linecap="round" stroke-linejoin="round" x1="658.895" y1="-244.954" x2="686.197" y2="-246.8"/>
	
		<line fill="none" stroke="#FFFFFF" stroke-width="7" stroke-linecap="round" stroke-linejoin="round" x1="629.255" y1="-241.376" x2="638.718" y2="-243.105"/>
	
		<line fill="none" stroke="#FFFFFF" stroke-width="7" stroke-linecap="round" stroke-linejoin="round" x1="623.887" y1="-234.984" x2="630.053" y2="-178.554"/>
	
		<line fill="none" stroke="#FFFFFF" stroke-width="7" stroke-linecap="round" stroke-linejoin="round" x1="646.985" y1="-254.379" x2="643.582" y2="-276.492"/>
	
		<line fill="none" stroke="#FFFFFF" stroke-width="7" stroke-linecap="round" stroke-linejoin="round" x1="582.813" y1="-249.023" x2="578.078" y2="-290.499"/>
	
		<line fill="none" stroke="#FFFFFF" stroke-width="7" stroke-linecap="round" stroke-linejoin="round" x1="559.093" y1="-299.83" x2="566.021" y2="-301.238"/>
</g>
<g id="members">
</g>
<g id="bolts">
	<path fill="none" stroke="#FFFFFF" stroke-width="5.9271" stroke-linecap="round" stroke-linejoin="round" d="M-306.789-1286.19
		c-3.999-4-10.486-4-14.486,0c-4,4.001-4,10.486,0,14.487"/>
	
		<line fill="none" stroke="#FFFFFF" stroke-width="5.9271" stroke-linecap="round" stroke-linejoin="round" x1="-273.057" y1="-1252.458" x2="-306.789" y2="-1286.19"/>
	
		<line fill="none" stroke="#FFFFFF" stroke-width="5.9271" stroke-linecap="round" stroke-linejoin="round" x1="-204.351" y1="-1183.753" x2="-258.57" y2="-1237.972"/>
	
		<line fill="none" stroke="#FFFFFF" stroke-width="5.9271" stroke-linecap="round" stroke-linejoin="round" x1="-287.544" y1="-1237.972" x2="-321.275" y2="-1271.703"/>
	
		<line fill="none" stroke="#FFFFFF" stroke-width="5.9271" stroke-linecap="round" stroke-linejoin="round" x1="-226.082" y1="-1176.509" x2="-273.057" y2="-1223.484"/>
	
		<line fill="none" stroke="#FFFFFF" stroke-width="5.9271" stroke-linecap="round" stroke-linejoin="round" x1="-273.057" y1="-1129.533" x2="-320.032" y2="-1176.509"/>
	
		<line fill="none" stroke="#FFFFFF" stroke-width="5.9271" stroke-linecap="round" stroke-linejoin="round" x1="-287.544" y1="-1115.047" x2="-341.763" y2="-1169.266"/>
	
		<line fill="none" stroke="#FFFFFF" stroke-width="5.9271" stroke-linecap="round" stroke-linejoin="round" x1="-197.543" y1="-1025.046" x2="-273.057" y2="-1100.56"/>
	
		<line fill="none" stroke="#FFFFFF" stroke-width="5.9271" stroke-linecap="round" stroke-linejoin="round" x1="-177.922" y1="-1034.397" x2="-258.57" y2="-1115.047"/>
	<path fill="#FFFFFF" stroke="#FFFFFF" stroke-width="5.9271" stroke-linecap="round" stroke-linejoin="round" d="
		M-348.568-1025.048l144.218-144.218c3.999-4,3.999-10.486,0-14.487c-4.001-4-10.488-4-14.488,0l-149.354,149.355l8.875,5.308
		L-348.568-1025.048z"/>
	<path fill="#FFFFFF" stroke="#FFFFFF" stroke-width="1.017" stroke-miterlimit="10" d="M-328.571-1167.543
		c-4.119,4.119-10.796,4.118-14.915-0.001c-4.116-4.117-4.116-10.794,0-14.913l105.458-105.456c4.115-4.117,10.793-4.117,14.912,0
		c4.117,4.12,4.117,10.795,0,14.914L-328.571-1167.543h-14.915c-4.116-4.118-4.116-10.795,0-14.914"/>
	<circle fill="#0F3955" cx="-273.057" cy="-1237.972" r="4.097"/>
	<circle fill="#0F3955" cx="-211.595" cy="-1176.509" r="4.098"/>
	<circle fill="#0F3955" cx="-273.057" cy="-1115.047" r="4.097"/>
	<circle fill="#0F3955" cx="-334.52" cy="-1176.509" r="4.098"/>
</g>
<g id="draw">
	<path fill="#0F3955" d="M1121.443-1239.073c1.649-0.418,2.409-1.754,3.797-0.733c1.388,1.021,0.524,2.488,0.498,3.378
		s0.365,1.938-0.682,2.487s-2.487,0.079-3.613-0.628c-1.125-0.707-4.241-0.523-4.006-2.802
		C1117.673-1239.649,1119.794-1238.654,1121.443-1239.073z"/>
</g>
<g id="Default">
	<path fill="#FFFFFF" stroke="#FFFFFF" stroke-width="1.6294" stroke-miterlimit="10" d="M-196.592-673.006
		c-7.441-9.773-21.396-11.668-31.175-4.221c-9.775,7.441-11.668,21.399-4.226,31.174c7.442,9.775,21.4,11.666,31.176,4.224
		C-191.036-649.275-189.147-663.23-196.592-673.006z"/>
	<path fill="#FFFFFF" stroke="#FFFFFF" stroke-width="1.6294" stroke-miterlimit="10" d="M-314.562-827.948
		c-7.443-9.776-21.397-11.669-31.177-4.224c-9.775,7.443-11.668,21.401-4.224,31.177c7.443,9.776,21.402,11.669,31.179,4.226
		C-309.005-804.215-307.117-818.171-314.562-827.948z"/>
	<path fill="#FFFFFF" d="M-238.341-688.119c-0.905,0-1.799-0.407-2.389-1.183l-6.446-8.467l-17.369,6.022
		c-1.225,0.426-2.585,0.015-3.37-1.017c-0.786-1.031-0.819-2.451-0.084-3.519l18.128-26.326l-30.202,10.471
		c-1.228,0.422-2.584,0.014-3.37-1.018c-0.786-1.031-0.819-2.451-0.084-3.519L-265.397-743l-30.2,10.472
		c-1.224,0.425-2.584,0.015-3.37-1.017c-0.786-1.031-0.819-2.451-0.084-3.519l18.128-26.326l-30.2,10.472
		c-1.226,0.424-2.584,0.015-3.37-1.017c-0.786-1.032-0.819-2.451-0.084-3.519l10.427-15.141l-6.446-8.466
		c-1.004-1.318-0.749-3.201,0.569-4.204c1.318-1.005,3.2-0.749,4.204,0.569l7.763,10.195c0.786,1.032,0.819,2.451,0.084,3.519
		l-6.473,9.399l30.2-10.472c1.224-0.425,2.584-0.015,3.37,1.017c0.786,1.032,0.819,2.451,0.084,3.519l-18.128,26.326l30.199-10.472
		c1.223-0.426,2.584-0.015,3.37,1.017c0.786,1.032,0.819,2.451,0.084,3.519l-18.129,26.327l30.202-10.471
		c1.225-0.425,2.584-0.015,3.37,1.018c0.786,1.031,0.819,2.451,0.084,3.519l-18.128,26.326l10.782-3.738
		c1.224-0.429,2.584-0.015,3.37,1.017l7.763,10.195c1.004,1.318,0.749,3.2-0.569,4.204
		C-237.069-688.319-237.708-688.119-238.341-688.119z"/>
	<g>
		<g>
			<path fill="#0F3955" d="M40.525-1094.133c-24.136-32.675-38.404-73.083-38.404-116.824c0-108.702,88.12-196.822,196.822-196.822
				c108.701,0,196.821,88.12,196.821,196.822c0,46.417-16.068,89.083-42.946,122.736c-24.513,0.679-26.381,19.249-51.269,19.249
				c-22.082,0-28.667-19.246-49.339-19.246c-21.643,0-28.978,19.246-50.307,19.246c-20.235,0-26.781-19.246-50.409-19.246
				c-28.018,0-28.996,19.246-53.761,19.246c-14.316,0-21.007-5.577-28.764-10.724c1.43-17.26,19.223-141.517,168.749-174.651
				C88.28-1238.569,47.541-1120.229,40.818-1094.203"/>
		</g>
	</g>
</g>
<g id="cut">
	<path fill="#0F3955" d="M494.572-1298.83c3.028,0.812,6.051,1.619,9.075,2.43c7.331,1.962,11.684,9.492,9.72,16.822
		c-4.737,17.692-9.472,35.385-14.209,53.077c-1.962,7.329-9.491,11.677-16.82,9.716c-3.026-0.81-6.051-1.621-9.075-2.432
		C474.741-1247.842,481.556-1273.292,494.572-1298.83z"/>
</g>
<g id="favIcon">
</g>
<g id="_x31_31207_x5F_thank_x5F_you_x5F_note">
</g>
<g id="_x31_40227_x5F_banner">
	<g>
		<path fill="none" stroke="#FFFFFF" stroke-width="8" stroke-linecap="round" stroke-linejoin="round" stroke-miterlimit="10" d="
			M946.473-271.102c22.912,5.272,27.717,19.405,27.717,19.405c29.332,56.784,99.439,48.688,99.439,48.688l-0.248-9.735
			l108.744-1.049l1.715-119.169l-108.508,1.26l-0.683-9.999c-40.562,0.764-65.312,12.08-97.276,51.069
			C962.275-272.219,946.473-271.102,946.473-271.102"/>
		
			<line fill="none" stroke="#FFFFFF" stroke-width="8" stroke-linecap="round" stroke-linejoin="round" stroke-miterlimit="10" x1="1074.975" y1="-331.674" x2="1073.703" y2="-212.76"/>
		
			<polygon fill="none" stroke="#FFFFFF" stroke-width="8" stroke-linecap="round" stroke-linejoin="round" stroke-miterlimit="10" points="
			1143.844,-284.571 1117.143,-283.819 1116.59,-302.903 1143.307,-303.66 		"/>
		
			<polygon fill="none" stroke="#FFFFFF" stroke-width="8" stroke-linecap="round" stroke-linejoin="round" stroke-miterlimit="10" points="
			1156.488,-242.933 1110.695,-241.632 1110.053,-264.528 1155.834,-265.829 		"/>
	</g>
	<path id="germany" fill="#FFFFFF" d="M-410.208,508.264l38.264-6.217v-27.001l32.046-5.256l17.57,17.681l18.546,2.041l28.938-12.54
		l25.82,7.294l22.721,19.718l3.108,73.837l22.721,30.213l-29.901,4.189l-49.617,31.185l4.176,10.395l44.375,41.581l-3.108,20.794
		l-41.266,20.786l-38.252,1.078l-9.325,19.718h-19.613l-9.324-20.796l-34.078-8.361l-1.078-34.285l-28.928-19.717l3.099-24.974
		l-19.603-27.012l5.138-35.365l26.793-12.539L-410.208,508.264L-410.208,508.264z"/>
	<path id="denmark" fill="#FFFFFF" d="M-349.874,332.724l-44.469,49.188l-1.612,32.046l20.262,52.832l31.722-5.998l-3.967-43.189
		l21.863-24.429l-0.428-19.196l-15.438-39.967L-349.874,332.724L-349.874,332.724z"/>
	<path id="sjælland" fill="#FFFFFF" d="M-299.815,419.963l-9.974-0.438l-13.073,12.007l1.612,18.752l30.967,0.857l1.612-21.212
		L-299.815,419.963L-299.815,419.963z"/>
	<g id="dcboundary_3_" transform="matrix(3131.9581,0,0,4095.2467,241540.57,159695.56)">
		<path id="dcboundary_District_of_Columbia_3_" fill="#FFFFFF" d="M-77.126-38.733l0.06,0.046l-0.059,0.046l0-0.004l0.001-0.006
			l-0.001,0l0-0.002l0-0.001l0-0.003l0-0.002l-0.001-0.001l-0.001,0l0,0l-0.001-0.001l0-0.002l0-0.001h0.001l0.004-0.001
			l0.001-0.004l-0.003-0.005l-0.001-0.001l0-0.001l0-0.001l-0.001-0.001l-0.001-0.001l-0.001-0.001l-0.001,0l0,0.001l0,0.001
			l-0.001,0l-0.001-0.001l0-0.001l-0.001-0.002l0,0l-0.001,0l-0.002-0.004l0-0.001l-0.001-0.004l0,0l-0.001,0l-0.002,0l-0.001,0
			l-0.002,0l-0.004-0.001l-0.002-0.001l-0.003-0.002l-0.001-0.001l-0.001-0.002l-0.001-0.001l-0.003-0.003l-0.001-0.002
			l-0.001-0.002l-0.001-0.001L-77.126-38.733z"/>
	</g>
	<path fill="#0F3955" d="M353.716,324.998l-0.524-3.531l-0.576-4.36l-0.296-5.119l0.529-4.97l0.458-4.309l-0.241-4.622l-1.058-4.52
		l-2.828-2.777l-1.994-0.186l-1.273,1.109l-1.994-2.77l-0.133-6.545l1.152-2.399h3.527l4.475-1.613l4.105-1.281l4.035-1.015
		l-0.17-3.507l0.027-5.584v-3v-4.92l-0.691-3.387l-0.891-3.265l-1.76-4.482l-2.151-5.266l-1.771-4.283l-1.824-4.263l0.574-2.78
		l-1.045-6.334l-2.381-5.067c0,0-1.991-2.701-2.802-3.801s-2.979-2.229-2.979-2.229l-1.184,0.391l0.9,3.689l-0.988,3.153
		l-3.973,1.113l-1.992-2.967l-0.977-3.548l-1.124-3.971l-2.219-3.769l-2.948-2.989l-3.768-0.098l-1.684-3.597l-1.703-3.639
		l-1.895-4.049l-2.094-4.472l-1.266-4.628l-1.336-4.872l-1.331-4.854l-1.448-5.282l-3.967-2.776l-4.463-0.574l-4.125-0.533
		l-6.914-0.904l-4.818-1.404l-5.943-2.234c0,0-5.006-2.597-5.896-3.163s-3.906-3.188-3.906-3.188l-3.537-3.208l-3.762-3.412
		l-3.852-4.003l-1.511-4.318l-2.599-7.171l-3.217-3.612l-4.624-5.194l-3.038-3.724l-2.414-3.636l-1.583-2.874l-1.61-5.56
		l-2.892-3.461l69.104-71.896c-30.801-19.865-67.45-31.461-106.819-31.632C89.93,0.58,0.474,89.262-0.004,199.134
		C-0.48,309.007,88.2,398.465,198.072,398.939C260.904,399.213,317.06,370.329,353.716,324.998z"/>
</g>
</svg>
