<?xml version="1.0" encoding="utf-8"?>
<!-- Generator: Adobe Illustrator 16.0.0, SVG Export Plug-In . SVG Version: 6.00 Build 0)  -->
<!DOCTYPE svg PUBLIC "-//W3C//DTD SVG 1.1//EN" "http://www.w3.org/Graphics/SVG/1.1/DTD/svg11.dtd">
<svg version="1.1" id="Default" xmlns="http://www.w3.org/2000/svg" xmlns:xlink="http://www.w3.org/1999/xlink" x="0px" y="0px"
	 width="360px" height="180px" viewBox="0 0 360 180" enable-background="new 0 0 360 180" xml:space="preserve">
<polygon points="56.239,154.104 51.958,161.519 60.52,161.519 "/>
<polygon points="51.544,159.37 47.264,151.955 55.826,151.955 "/>
<polygon points="59.966,156.378 55.685,148.963 64.247,148.963 "/>
<polygon points="53.877,108.449 49.596,101.034 58.158,101.034 "/>
<polygon points="53.06,129.262 48.779,136.677 57.341,136.677 "/>
<polygon points="216.313,51.764 212.032,59.179 220.594,59.179 "/>
<polygon points="219.227,50.342 214.946,42.928 223.508,42.928 "/>
<polygon points="142.555,86.842 138.274,94.256 146.836,94.256 "/>
<polygon points="115.471,70.814 111.19,78.229 119.752,78.229 "/>
<polygon points="100.888,78.809 96.607,71.395 105.168,71.395 "/>
<polygon points="81.517,67.139 77.236,74.554 85.798,74.554 "/>
<polygon points="73.078,58.399 68.797,65.814 77.358,65.814 "/>
<polygon points="179.01,136.54 174.729,129.125 183.291,129.125 "/>
<polygon points="173.903,150.68 169.622,143.265 178.184,143.265 "/>
<polygon points="180.624,151.299 176.343,158.714 184.905,158.714 "/>
<polygon points="162.377,134.149 158.096,141.563 166.658,141.563 "/>
<polygon points="175.893,132.387 171.611,139.802 180.173,139.802 "/>
<polygon points="170.112,138.952 165.832,131.537 174.393,131.537 "/>
<polygon points="299.307,145.866 295.026,153.281 303.588,153.281 "/>
<polygon points="303.831,149.003 299.55,141.588 308.112,141.588 "/>
<polygon points="323.226,115.467 318.945,122.882 327.507,122.882 "/>
<polygon points="306.738,138.365 302.458,130.95 311.02,130.95 "/>
<polygon points="299.465,127.421 295.184,120.007 303.746,120.007 "/>
<polygon points="280.74,124.603 276.459,132.018 285.021,132.018 "/>
<polygon points="280.253,139.912 275.973,132.497 284.535,132.497 "/>
<polygon points="276.02,117.605 271.739,125.02 280.301,125.02 "/>
<polygon points="270.348,122.556 266.066,115.141 274.628,115.141 "/>
<polygon points="265.679,97.184 261.398,104.599 269.96,104.599 "/>
<polygon points="37.093,153.423 32.812,160.838 41.374,160.838 "/>
<polygon points="56.057,171.133 51.775,178.548 60.337,178.548 "/>
<polygon points="79.587,85.762 75.307,78.347 83.868,78.347 "/>
<polygon points="260.48,18.619 256.199,26.034 264.761,26.034 "/>
<polygon points="260.375,50.183 256.095,42.768 264.656,42.768 "/>
<polygon points="288.983,19.175 284.702,11.76 293.264,11.76 "/>
<polygon points="307.428,21.382 303.147,28.797 311.709,28.797 "/>
<polygon points="324.107,47.056 319.826,39.642 328.388,39.642 "/>
<polygon points="286.907,44.742 282.626,37.327 291.188,37.327 "/>
<polygon points="300.037,46.165 295.756,38.75 304.318,38.75 "/>
<polygon points="290.006,64.455 285.726,57.04 294.287,57.04 "/>
<polygon points="270.019,60.757 265.738,53.342 274.3,53.342 "/>
<polygon points="277.503,55.831 273.222,63.246 281.784,63.246 "/>
<polygon points="263.941,74.841 259.66,67.426 268.222,67.426 "/>
<polygon points="71.924,75.529 67.643,68.114 76.205,68.114 "/>
<polygon points="63.362,75.529 59.082,68.114 67.643,68.114 "/>
<polygon points="67.643,68.114 63.362,75.529 71.924,75.529 "/>
<polygon points="67.643,82.943 63.362,75.529 71.924,75.529 "/>
<polygon points="208.882,24.249 204.602,31.663 213.163,31.663 "/>
<polygon points="198.758,37.858 194.477,45.273 203.039,45.273 "/>
<polygon points="197.822,55.1 193.541,47.686 202.103,47.686 "/>
<polygon points="63.195,77.685 58.915,85.1 67.476,85.1 "/>
<polygon points="71.841,76.69 67.56,84.104 76.122,84.104 "/>
<polygon points="98.447,62.508 94.167,55.093 102.728,55.093 "/>
<polygon points="94.167,55.093 89.885,47.678 98.447,47.678 "/>
<polygon points="89.885,47.678 85.604,55.093 94.167,55.093 "/>
<polygon points="117.981,43.266 113.7,50.681 122.262,50.681 "/>
<polygon points="112.951,26.535 108.677,19.116 117.239,19.125 "/>
<polygon points="107.69,14.475 103.417,7.056 111.979,7.064 "/>
<polygon points="112.151,9.35 107.862,16.76 116.424,16.769 "/>
<polygon points="114.709,40.889 110.436,33.469 118.998,33.478 "/>
<polygon points="64.801,169.594 60.52,162.18 69.082,162.18 "/>
<polygon points="51.958,162.18 47.677,169.594 56.239,169.594 "/>
<polygon points="56.239,169.594 51.958,162.18 60.52,162.18 "/>
<polygon points="60.52,162.18 56.239,169.594 64.801,169.594 "/>
<polygon points="60.52,177.009 56.239,169.594 64.801,169.594 "/>
<polygon points="64.801,169.594 60.52,177.009 69.082,177.009 "/>
<polygon points="71.34,161.386 67.059,153.971 75.621,153.971 "/>
<polygon points="41.468,164.298 37.187,171.713 45.749,171.713 "/>
<polygon points="123.974,158.895 128.255,151.48 119.693,151.48 "/>
<polygon points="110.314,153.274 106.033,160.689 114.595,160.689 "/>
<polygon points="146.386,164.793 142.105,172.208 150.667,172.208 "/>
<polygon points="141.815,171.345 137.534,163.931 146.096,163.931 "/>
<polygon points="137.13,165.626 132.849,173.041 141.411,173.041 "/>
<polygon points="128.568,165.626 124.287,173.041 132.849,173.041 "/>
<polygon points="134.25,148.023 129.969,155.438 138.531,155.438 "/>
<polygon points="135.229,164.445 139.509,157.03 130.948,157.03 "/>
<polygon points="151.182,168.959 155.463,161.545 146.901,161.545 "/>
<polygon points="152.619,149.666 148.338,157.081 156.899,157.081 "/>
<polygon points="100.015,161.389 95.734,153.974 104.296,153.974 "/>
<polygon points="89.478,161.342 85.197,153.927 93.759,153.927 "/>
<polygon points="87.207,162.456 82.926,169.871 91.488,169.871 "/>
<polygon points="96.083,159.728 91.802,167.143 100.364,167.143 "/>
<polygon points="78.384,167.671 74.103,160.257 82.665,160.257 "/>
<polygon points="234.931,98.05 230.65,90.635 239.211,90.635 "/>
<polygon points="248.11,93.73 243.83,101.145 252.392,101.145 "/>
<polygon points="269.81,84.847 265.529,92.262 274.091,92.262 "/>
<polygon points="252.686,84.847 248.405,92.262 256.967,92.262 "/>
<polygon points="252.686,99.677 248.405,92.262 256.967,92.262 "/>
<polygon points="261.248,99.677 256.967,92.262 265.529,92.262 "/>
<polygon points="256.967,92.262 252.686,99.677 261.248,99.677 "/>
<polygon points="265.529,92.262 261.248,84.847 269.81,84.847 "/>
<polygon points="261.248,84.847 256.967,92.262 265.529,92.262 "/>
<polygon points="261.248,84.847 256.967,77.432 265.529,77.432 "/>
<polygon points="256.967,77.432 252.686,84.847 261.248,84.847 "/>
<polygon points="256.967,92.262 252.686,84.847 261.248,84.847 "/>
<polygon points="277.584,150.809 273.303,158.223 281.865,158.223 "/>
<polygon points="281.865,158.223 277.584,150.809 286.146,150.809 "/>
<polygon points="277.584,165.638 273.303,158.223 281.865,158.223 "/>
<polygon points="289.614,140.386 285.333,147.8 293.895,147.8 "/>
<polygon points="285.333,117.303 281.052,124.718 289.614,124.718 "/>
<polygon points="293.895,146.962 289.614,139.548 298.176,139.548 "/>
<polygon points="285.333,146.962 281.052,139.548 289.614,139.548 "/>
<polygon points="289.614,139.548 285.333,132.133 293.895,132.133 "/>
<polygon points="285.333,132.133 281.052,139.548 289.614,139.548 "/>
<polygon points="285.333,132.133 281.052,124.718 289.614,124.718 "/>
<polygon points="280.61,141.898 276.329,149.312 284.891,149.312 "/>
<polygon points="280.531,124.734 276.25,117.32 284.812,117.32 "/>
<polygon points="161.32,164.698 157.039,172.113 165.601,172.113 "/>
<polygon points="168.047,170.355 163.766,162.941 172.328,162.941 "/>
<polygon points="201.894,161.649 206.174,154.234 197.612,154.234 "/>
<polygon points="200.654,144.664 196.373,152.079 204.935,152.079 "/>
<polygon points="222.928,155.09 227.209,162.505 218.647,162.505 "/>
<polygon points="275.789,77.807 271.508,85.221 280.07,85.221 "/>
<polygon points="269.624,69.194 265.343,76.608 273.905,76.608 "/>
<polygon points="259.34,69.344 255.059,76.758 263.621,76.758 "/>
<polygon points="278.474,74.512 274.192,67.097 282.754,67.097 "/>
<polygon points="149.95,109.815 145.669,117.229 154.231,117.229 "/>
<polygon points="84.091,85.441 79.81,92.856 88.372,92.856 "/>
<polygon points="92.027,93.167 87.747,85.751 96.309,85.751 "/>
<polygon points="97.013,102.131 92.732,94.716 101.294,94.716 "/>
<polygon points="131.676,110.241 127.395,117.656 135.957,117.656 "/>
<polygon points="127.395,117.656 123.114,110.241 131.676,110.241 "/>
<polygon points="131.676,125.07 127.395,117.656 135.957,117.656 "/>
<polygon points="122.646,126.597 118.365,134.012 126.926,134.012 "/>
<polygon points="117.15,117.562 112.869,124.976 121.431,124.976 "/>
<polygon points="122.646,125.039 118.365,117.624 126.927,117.624 "/>
<polygon points="127.177,117.749 122.896,125.164 131.458,125.164 "/>
<polygon points="127.115,132.884 122.834,125.47 131.396,125.47 "/>
<polygon points="131.457,126.042 127.176,133.457 135.738,133.457 "/>
<polygon points="116.308,133.908 112.027,126.493 120.589,126.493 "/>
<polygon points="144.249,135.256 139.968,142.671 148.53,142.671 "/>
<polygon points="148.531,140.794 144.25,133.379 152.812,133.379 "/>
<polygon points="130.604,143.033 126.324,135.618 134.886,135.618 "/>
<polygon points="127.395,102.826 123.114,110.241 131.676,110.241 "/>
<polygon points="107.371,117.451 103.089,110.036 111.651,110.036 "/>
<polygon points="103.089,110.036 98.809,117.451 107.371,117.451 "/>
<polygon points="111.651,110.036 107.371,117.451 115.932,117.451 "/>
<polygon points="111.651,124.866 107.371,117.451 115.932,117.451 "/>
<polygon points="102.428,125.469 98.147,118.054 106.709,118.054 "/>
<polygon points="107.105,119.913 102.824,127.328 111.386,127.328 "/>
<polygon points="121.686,142.661 117.405,135.246 125.967,135.246 "/>
<polygon points="99.19,141.578 94.909,148.992 103.471,148.992 "/>
<polygon points="108.518,139.53 104.236,146.945 112.798,146.945 "/>
<polygon points="113.513,144.784 109.232,137.369 117.794,137.369 "/>
<polygon points="97.508,86.497 93.228,93.912 101.789,93.912 "/>
<polygon points="91.887,94.716 87.605,102.131 96.167,102.131 "/>
<polygon points="87.605,102.131 83.325,94.716 91.887,94.716 "/>
<polygon points="140.238,110.241 135.957,117.656 144.519,117.656 "/>
<polygon points="144.519,117.656 140.238,110.241 148.8,110.241 "/>
<polygon points="135.957,117.656 131.676,110.241 140.238,110.241 "/>
<polygon points="175.594,93.143 171.312,85.728 179.875,85.728 "/>
<polygon points="175.594,78.313 171.312,85.728 179.875,85.728 "/>
<polygon points="179.875,85.728 175.594,78.313 184.156,78.313 "/>
<polygon points="179.875,85.728 175.594,93.143 184.156,93.143 "/>
<polygon points="167.032,93.143 162.751,85.728 171.312,85.728 "/>
<polygon points="171.312,85.728 167.032,93.143 175.594,93.143 "/>
<polygon points="171.312,85.728 167.032,78.313 175.594,78.313 "/>
<polygon points="167.032,78.313 162.751,85.728 171.312,85.728 "/>
<polygon points="171.312,70.898 167.032,78.313 175.594,78.313 "/>
<polygon points="184.985,77.816 180.704,85.231 189.266,85.231 "/>
<polygon points="175.702,77.58 171.421,70.165 179.983,70.165 "/>
<polygon points="180.508,70.467 176.227,77.882 184.789,77.882 "/>
<polygon points="185.86,76.209 181.579,68.795 190.141,68.795 "/>
<polygon points="191.644,69.934 187.363,77.349 195.924,77.349 "/>
<polygon points="192.694,65.078 188.413,57.663 196.975,57.663 "/>
<polygon points="166.781,69.531 162.5,62.116 171.062,62.116 "/>
<polygon points="173.399,61.324 169.118,68.739 177.68,68.739 "/>
<polygon points="184.047,60.572 179.766,67.986 188.328,67.986 "/>
<polygon points="188.086,136.176 183.805,128.761 192.367,128.761 "/>
<polygon points="183.805,128.761 179.524,136.176 188.086,136.176 "/>
<polygon points="183.805,128.761 179.524,121.346 188.086,121.346 "/>
<polygon points="183.805,113.932 179.524,121.346 188.086,121.346 "/>
<polygon points="193.341,113.455 189.061,120.87 197.623,120.87 "/>
<polygon points="188.192,121.263 183.912,128.678 192.474,128.678 "/>
<polygon points="192.391,129.514 196.672,136.929 188.11,136.929 "/>
<polygon points="197.851,137.23 202.131,129.815 193.569,129.815 "/>
<polygon points="192.986,128.587 188.705,121.172 197.267,121.172 "/>
<polygon points="198.234,121.446 193.953,128.861 202.515,128.861 "/>
<polygon points="197.77,120.252 193.489,112.838 202.051,112.838 "/>
<polygon points="203.564,128.299 199.284,120.884 207.845,120.884 "/>
<polygon points="203.6,112.643 199.318,120.058 207.88,120.058 "/>
<polygon points="203.233,130.739 207.514,138.153 198.952,138.153 "/>
<polygon points="171.418,100.874 167.137,93.458 175.699,93.458 "/>
<polygon points="167.084,95.458 162.803,102.873 171.365,102.873 "/>
<polygon points="170.863,120.159 166.582,112.744 175.144,112.744 "/>
<polygon points="188.086,120.257 183.805,112.843 192.367,112.843 "/>
<polygon points="178.93,118.08 174.649,110.665 183.211,110.665 "/>
<polygon points="176.324,97.407 172.043,104.822 180.605,104.822 "/>
<polygon points="165.021,130.119 160.741,122.705 169.302,122.705 "/>
<polygon points="164.221,112.787 159.939,120.202 168.501,120.202 "/>
<polygon points="217.504,122.903 213.224,115.489 221.786,115.489 "/>
<polygon points="217.442,106.657 213.161,114.072 221.723,114.072 "/>
<polygon points="210.375,137.82 214.657,130.406 206.095,130.406 "/>
<polygon points="210.684,121.169 214.965,128.583 206.403,128.583 "/>
<polygon points="225.14,129.256 220.859,136.67 229.421,136.67 "/>
<polygon points="229.668,133.785 225.388,126.371 233.95,126.371 "/>
<polygon points="237.743,101.168 233.462,108.583 242.024,108.583 "/>
<polygon points="238.68,118.1 234.399,110.685 242.961,110.685 "/>
<polygon points="230.995,116.1 226.714,123.515 235.276,123.515 "/>
<polygon points="249.304,173.283 245.022,165.868 253.584,165.868 "/>
<polygon points="234.697,156.099 230.417,148.684 238.979,148.684 "/>
<polygon points="248.306,157.375 244.025,149.96 252.587,149.96 "/>
<polygon points="240.158,152.018 244.438,159.433 235.876,159.433 "/>
<polygon points="241.141,146.434 236.86,139.019 245.422,139.019 "/>
<polygon points="192.396,107.505 188.115,100.09 196.677,100.09 "/>
<polygon points="194.221,87.96 189.94,95.375 198.502,95.375 "/>
<polygon points="128.478,76.921 124.196,84.336 132.758,84.336 "/>
<polygon points="136.137,62.511 131.855,69.925 140.417,69.925 "/>
<polygon points="143.211,82.646 138.93,75.231 147.492,75.231 "/>
<polygon points="135.486,55.931 131.205,48.516 139.767,48.516 "/>
<polygon points="234.308,71.142 230.027,63.727 238.589,63.727 "/>
<polygon points="213.509,84.477 209.228,77.062 217.79,77.062 "/>
<polygon points="215.686,67.282 211.405,74.697 219.967,74.697 "/>
<polygon points="229.129,75.052 224.848,82.467 233.41,82.467 "/>
<polygon points="243.225,46.908 238.943,54.323 247.505,54.323 "/>
<polygon points="227.065,29.797 222.785,37.212 231.347,37.212 "/>
<polygon points="270.602,100.469 266.321,93.054 274.883,93.054 "/>
<polygon points="247.217,76.838 242.936,84.253 251.498,84.253 "/>
<polygon points="246.92,93.45 242.639,86.035 251.201,86.035 "/>
<polygon points="266.717,77.135 262.436,84.55 270.998,84.55 "/>
<polygon points="252.451,84.508 248.17,77.094 256.732,77.094 "/>
<polygon points="184.758,93.409 180.477,85.994 189.039,85.994 "/>
<polygon points="162.283,70.748 158.002,78.163 166.564,78.163 "/>
<polygon points="23.988,63.512 19.708,70.927 28.269,70.927 "/>
<polygon points="27.46,85.036 23.18,92.451 31.742,92.451 "/>
<polygon points="43.579,70.83 39.297,78.245 47.859,78.245 "/>
<polygon points="35.788,42.291 31.507,49.705 40.069,49.705 "/>
<polygon points="52.084,75.529 47.804,68.114 56.365,68.114 "/>
<polygon points="56.516,85.961 52.235,78.546 60.797,78.546 "/>
<polygon points="58.996,68.579 54.715,75.993 63.276,75.993 "/>
<polygon points="63.064,60.23 58.783,67.645 67.345,67.645 "/>
<polygon points="58.658,61.869 54.377,54.454 62.939,54.454 "/>
<polygon points="151.147,22.364 146.867,14.95 155.429,14.95 "/>
<polygon points="154.34,25.219 150.059,32.633 158.621,32.633 "/>
<polygon points="160.904,48.262 156.623,40.848 165.185,40.848 "/>
<polygon points="149.531,55.032 145.25,47.617 153.812,47.617 "/>
<polygon points="192.183,15.694 187.902,8.279 196.464,8.279 "/>
<polygon points="187.819,9.523 183.538,16.938 192.1,16.938 "/>
<polygon points="241.615,10.111 237.333,17.526 245.896,17.526 "/>
<polygon points="294.885,131.836 290.604,139.25 299.166,139.25 "/>
<polygon points="291.198,123.134 286.917,130.549 295.479,130.549 "/>
<polygon points="255.517,116.28 251.236,123.695 259.798,123.695 "/>
<polygon points="255.58,133.427 251.299,126.012 259.86,126.012 "/>
<polygon points="250.741,127.838 246.46,135.252 255.022,135.252 "/>
<polygon points="226.468,98.393 222.188,105.808 230.75,105.808 "/>
<polygon points="95.001,146.197 90.72,138.783 99.282,138.783 "/>
<polygon points="76.924,101.961 72.643,109.376 81.205,109.376 "/>
<polygon points="92.012,117.459 87.73,110.045 96.292,110.045 "/>
<polygon points="91.388,126.478 87.107,119.063 95.669,119.063 "/>
<polygon points="74.128,129.95 69.847,122.535 78.409,122.535 "/>
<polygon points="81.351,128.766 77.07,136.181 85.631,136.181 "/>
<polygon points="122.513,109.864 118.232,117.278 126.793,117.278 "/>
<polygon points="175.196,113.766 170.915,121.181 179.477,121.181 "/>
<polygon points="175.054,128.746 170.772,121.331 179.334,121.331 "/>
<polygon points="179.411,121.369 175.13,128.784 183.692,128.784 "/>
<polygon points="170.654,121.601 166.373,129.015 174.935,129.015 "/>
<polygon points="154.087,125.921 149.807,118.506 158.368,118.506 "/>
<polygon points="144.092,132.997 139.812,125.582 148.374,125.582 "/>
<polygon points="145.499,117.656 141.218,125.07 149.78,125.07 "/>
<polygon points="140.358,125.155 136.077,117.74 144.639,117.74 "/>
<polygon points="136.041,117.884 131.76,125.299 140.322,125.299 "/>
<polygon points="136.404,102.574 132.123,109.989 140.685,109.989 "/>
<polygon points="131.788,109.821 127.507,102.407 136.068,102.407 "/>
<polygon points="155.165,78.879 150.884,86.294 159.446,86.294 "/>
<polygon points="155.005,96.605 150.724,89.191 159.286,89.191 "/>
<polygon points="162.16,85.906 157.879,78.491 166.441,78.491 "/>
<polygon points="162.406,86.105 158.125,93.52 166.687,93.52 "/>
<polygon points="162.541,101.663 158.259,94.248 166.821,94.248 "/>
<polygon points="106.646,103.83 102.364,96.416 110.926,96.416 "/>
<polygon points="101.497,97.926 97.215,105.341 105.777,105.341 "/>
<polygon points="116.163,100.089 111.882,107.504 120.444,107.504 "/>
<polygon points="119.974,101.274 115.692,93.859 124.254,93.859 "/>
<polygon points="94.167,56.297 89.885,63.712 98.447,63.712 "/>
<polygon points="89.78,62.771 85.499,55.356 94.061,55.356 "/>
<polygon points="99.104,47.453 94.823,54.867 103.385,54.867 "/>
<polygon points="104.57,54.749 100.289,62.164 108.851,62.164 "/>
<polygon points="114.741,64.228 110.46,56.813 119.022,56.813 "/>
<polygon points="105.11,52.407 100.83,44.992 109.392,44.992 "/>
<polygon points="103.793,21.262 99.504,28.673 108.066,28.682 "/>
<polygon points="123.277,18.55 118.988,25.96 127.55,25.969 "/>
<polygon points="116.924,16.068 112.65,8.649 121.212,8.658 "/>
<polygon points="133.157,41.758 128.876,34.343 137.438,34.343 "/>
<polygon points="143.804,19.893 139.516,27.303 148.078,27.312 "/>
<polygon points="167.035,15.219 162.754,22.633 171.316,22.633 "/>
<polygon points="183.576,16.373 179.295,8.958 187.857,8.958 "/>
<polygon points="184.294,22.762 180.013,30.176 188.575,30.176 "/>
<polygon points="180.011,25.343 175.73,17.928 184.292,17.928 "/>
<polygon points="189.477,26.248 185.195,18.833 193.757,18.833 "/>
<polygon points="172.617,43.021 168.335,35.607 176.897,35.607 "/>
<polygon points="180.491,63.062 176.21,55.647 184.772,55.647 "/>
<polygon points="168.274,51.594 163.993,59.009 172.555,59.009 "/>
<polygon points="167.079,78.054 162.798,70.64 171.36,70.64 "/>
<polygon points="64.973,154.592 60.692,162.007 69.254,162.007 "/>
<polygon points="69.668,161.869 65.388,169.284 73.949,169.284 "/>
<polygon points="69.461,177.113 65.18,169.698 73.742,169.698 "/>
<polygon points="47.263,169.939 42.981,162.525 51.543,162.525 "/>
<polygon points="51.716,177.32 47.435,169.905 55.997,169.905 "/>
<polygon points="47.264,154.352 42.983,161.766 51.544,161.766 "/>
</svg>
