<?xml version="1.0" encoding="utf-8"?>
<!-- Generator: Adobe Illustrator 16.0.0, SVG Export Plug-In . SVG Version: 6.00 Build 0)  -->
<!DOCTYPE svg PUBLIC "-//W3C//DTD SVG 1.1//EN" "http://www.w3.org/Graphics/SVG/1.1/DTD/svg11.dtd">
<svg version="1.1" id="Default" xmlns="http://www.w3.org/2000/svg" xmlns:xlink="http://www.w3.org/1999/xlink" x="0px" y="0px"
	 width="360px" height="180px" viewBox="0 0 360 180" enable-background="new 0 0 360 180" xml:space="preserve">
<polygon points="67.385,68.503 61.418,78.85 73.362,78.844 "/>
<polygon points="91.647,74.859 85.68,85.206 97.624,85.2 "/>
<polygon points="200.353,164.769 206.319,154.422 194.375,154.428 "/>
<polygon points="214.021,162.555 219.988,152.208 208.044,152.214 "/>
<polygon points="212.496,141.226 206.529,151.573 218.473,151.567 "/>
<polygon points="259.301,141.855 253.334,152.202 265.278,152.196 "/>
<polygon points="243.398,164.225 237.42,153.884 249.364,153.878 "/>
<polygon points="255.342,164.219 249.364,153.878 261.309,153.872 "/>
<polygon points="249.364,153.878 243.387,143.538 255.331,143.531 "/>
<polygon points="243.387,143.538 237.42,153.884 249.364,153.878 "/>
<polygon points="249.364,153.878 243.398,164.225 255.342,164.219 "/>
<polygon points="280.89,140.921 274.923,151.268 286.867,151.262 "/>
<polygon points="287.857,125.892 281.89,136.239 293.834,136.232 "/>
<polygon points="175.147,134.584 169.181,144.931 181.125,144.925 "/>
<polygon points="206.288,68.62 200.321,78.967 212.266,78.96 "/>
<polygon points="217.721,44.946 211.743,34.605 223.687,34.599 "/>
<polygon points="207.874,64.392 201.896,54.051 213.84,54.045 "/>
<polygon points="159.992,31.5 154.015,21.16 165.958,21.154 "/>
<polygon points="190.052,66.162 184.075,55.821 196.019,55.815 "/>
<polygon points="299.025,28.124 293.059,38.47 305.003,38.464 "/>
<polygon points="278.667,44.405 272.7,54.752 284.644,54.746 "/>
<polygon points="271.725,54.665 265.747,44.324 277.691,44.318 "/>
<polygon points="83.206,158.755 77.239,169.102 89.184,169.096 "/>
<polygon points="91.118,155.811 85.141,145.47 97.084,145.464 "/>
<polygon points="112.48,143.952 106.514,154.299 118.458,154.292 "/>
<polygon points="103.88,153.453 97.902,143.112 109.846,143.105 "/>
<polygon points="99.521,153.554 93.554,163.901 105.498,163.895 "/>
<polygon points="97.158,135.205 91.18,124.864 103.125,124.858 "/>
<polygon points="130.846,147.385 136.813,137.039 124.869,137.044 "/>
<polygon points="105.134,129.538 99.167,139.885 111.111,139.879 "/>
<polygon points="117.312,127.396 111.345,137.743 123.289,137.737 "/>
<polygon points="110.488,134.481 104.511,124.14 116.455,124.134 "/>
<polygon points="265.408,88.012 259.441,98.359 271.385,98.353 "/>
<polygon points="283.708,77.27 277.741,87.616 289.685,87.61 "/>
<polygon points="280.347,65.259 274.38,75.606 286.324,75.6 "/>
<polygon points="253.008,65.716 247.03,55.376 258.974,55.37 "/>
<polygon points="251.436,43.602 245.469,53.949 257.413,53.942 "/>
<polygon points="258.709,49.537 252.731,39.196 264.675,39.19 "/>
<polygon points="243.949,74.325 237.971,63.984 249.915,63.979 "/>
<polygon points="265.386,45.468 259.419,55.815 271.363,55.809 "/>
<polygon points="271.363,55.809 265.397,66.156 277.341,66.149 "/>
<polygon points="259.419,55.815 253.453,66.162 265.397,66.156 "/>
<polygon points="278.341,66.149 272.363,55.809 284.308,55.803 "/>
<polygon points="265.397,66.156 259.419,55.815 271.363,55.809 "/>
<polygon points="271.374,76.497 265.397,66.156 277.341,66.149 "/>
<polygon points="220.539,47.021 214.572,57.367 226.516,57.361 "/>
<polygon points="209.441,42.114 203.474,52.461 215.418,52.455 "/>
<polygon points="114.077,99.658 108.11,110.004 120.054,109.998 "/>
<polygon points="107.557,107.411 101.58,97.07 113.523,97.064 "/>
<polygon points="120.422,106.563 114.445,96.222 126.389,96.216 "/>
<polygon points="120.412,85.875 114.445,96.222 126.389,96.216 "/>
<polygon points="106.345,84.955 100.378,95.301 112.322,95.295 "/>
<polygon points="114.445,96.222 108.468,85.882 120.412,85.875 "/>
<polygon points="117.738,74.228 111.761,63.887 123.705,63.88 "/>
<polygon points="123.705,63.88 117.738,74.228 129.682,74.221 "/>
<polygon points="129.682,74.221 123.705,63.88 135.649,63.875 "/>
<polygon points="148.06,65.033 142.093,75.38 154.037,75.374 "/>
<polygon points="130.094,48.96 124.127,59.307 136.072,59.301 "/>
<polygon points="150.424,34.136 144.457,44.482 156.401,44.476 "/>
<polygon points="148.11,57.784 142.133,47.444 154.077,47.438 "/>
<polygon points="163.67,38.551 157.704,48.898 169.647,48.892 "/>
<polygon points="170.558,51.974 164.591,62.321 176.535,62.314 "/>
<polygon points="161.363,62.167 155.386,51.827 167.33,51.82 "/>
<polygon points="153.976,51.101 148.009,61.447 159.953,61.441 "/>
<polygon points="141.379,51.929 135.413,62.275 147.357,62.27 "/>
<polygon points="142.12,73.994 136.143,63.653 148.087,63.647 "/>
<polygon points="135.601,64.732 129.634,75.079 141.579,75.073 "/>
<polygon points="136.402,86.153 130.425,75.812 142.369,75.806 "/>
<polygon points="130.425,75.812 124.458,86.159 136.402,86.153 "/>
<polygon points="142.369,75.806 136.402,86.153 148.346,86.146 "/>
<polygon points="154.289,73.415 148.312,63.074 160.256,63.068 "/>
<polygon points="160.51,64.275 154.543,74.622 166.487,74.616 "/>
<polygon points="166.797,74.13 160.819,63.79 172.764,63.783 "/>
<polygon points="172.224,65.447 166.257,75.793 178.201,75.788 "/>
<polygon points="176.53,31.5 170.563,41.847 182.507,41.841 "/>
<polygon points="187.091,41.847 181.125,52.194 193.068,52.188 "/>
<polygon points="184.07,57.698 178.103,68.044 190.047,68.039 "/>
<polygon points="160.178,85.54 154.2,75.199 166.145,75.193 "/>
<polygon points="148.346,86.146 142.369,75.806 154.313,75.8 "/>
<polygon points="172.234,86.134 166.257,75.793 178.201,75.788 "/>
<polygon points="184.276,85.844 178.299,75.503 190.243,75.497 "/>
<polygon points="134.545,28.874 128.579,39.221 140.522,39.215 "/>
<polygon points="124.574,35.487 118.607,45.834 130.551,45.828 "/>
<polygon points="123.523,58.924 117.546,48.583 129.49,48.577 "/>
<polygon points="137.61,53.805 131.633,43.464 143.577,43.458 "/>
<polygon points="224.782,107.693 218.805,97.352 230.749,97.346 "/>
<polygon points="223.713,86.652 217.747,97 229.69,96.993 "/>
<polygon points="215.894,97.087 209.917,86.747 221.861,86.741 "/>
<polygon points="209.035,86.747 203.068,97.094 215.012,97.087 "/>
<polygon points="209.042,107.611 203.064,97.27 215.008,97.264 "/>
<polygon points="216.358,96.907 210.391,107.254 222.335,107.248 "/>
<polygon points="184.189,106.816 178.211,96.475 190.155,96.469 "/>
<polygon points="184.178,86.128 178.211,96.475 190.155,96.469 "/>
<polygon points="190.155,96.469 184.178,86.128 196.122,86.122 "/>
<polygon points="196.122,86.122 190.155,96.469 202.1,96.463 "/>
<polygon points="190.155,96.469 184.189,106.816 196.133,106.81 "/>
<polygon points="196.133,106.81 190.155,96.469 202.1,96.463 "/>
<polygon points="77.138,51.557 71.171,61.903 83.115,61.897 "/>
<polygon points="72.295,105.755 66.318,95.414 78.262,95.408 "/>
<polygon points="78.886,96.53 72.919,106.877 84.863,106.871 "/>
<polygon points="73.033,83.571 67.066,93.917 79.01,93.912 "/>
<polygon points="79.01,93.912 73.033,83.571 84.977,83.565 "/>
<polygon points="79,73.224 73.022,62.883 84.966,62.877 "/>
<polygon points="90.944,73.218 84.966,62.877 96.91,62.871 "/>
<polygon points="84.966,62.877 79,73.224 90.944,73.218 "/>
<polygon points="84.966,62.877 78.989,52.537 90.933,52.53 "/>
<polygon points="92.803,51.407 86.836,61.754 98.78,61.748 "/>
<polygon points="84.988,104.252 79.01,93.912 90.954,93.905 "/>
<polygon points="122.808,132.623 116.831,122.283 128.775,122.276 "/>
<polygon points="135.127,133.115 129.15,122.775 141.094,122.769 "/>
<polygon points="146.875,131.893 140.898,121.552 152.842,121.546 "/>
<polygon points="141.735,130.147 135.768,140.494 147.712,140.488 "/>
<polygon points="171.881,128.756 165.904,118.416 177.848,118.41 "/>
<polygon points="165.904,121.034 159.938,131.381 171.881,131.375 "/>
<polygon points="156.396,141.412 150.429,151.759 162.373,151.753 "/>
<polygon points="197.39,128.869 191.413,118.528 203.357,118.522 "/>
<polygon points="184.449,128.501 178.472,118.16 190.416,118.154 "/>
<polygon points="190.79,120.647 184.823,130.995 196.767,130.988 "/>
<polygon points="178.097,120.03 172.131,130.377 184.075,130.371 "/>
<polygon points="126.925,119.174 120.948,108.833 132.892,108.827 "/>
<polygon points="154.02,117.444 148.042,107.104 159.986,107.097 "/>
<polygon points="148.052,108.19 142.085,118.537 154.029,118.531 "/>
<polygon points="142,117.738 136.023,107.397 147.967,107.391 "/>
<polygon points="142.075,96.624 136.108,106.971 148.053,106.965 "/>
<polygon points="135.761,106.797 129.784,96.456 141.728,96.45 "/>
<polygon points="128.088,96.369 122.121,106.716 134.065,106.71 "/>
<polygon points="135.761,108.971 129.794,119.317 141.738,119.312 "/>
<polygon points="196.133,106.81 190.166,117.157 202.11,117.15 "/>
<polygon points="184.189,106.816 178.222,117.163 190.166,117.157 "/>
<polygon points="172.245,106.822 166.278,117.169 178.222,117.163 "/>
<polygon points="190.166,117.157 184.189,106.816 196.133,106.81 "/>
<polygon points="178.222,117.163 172.245,106.822 184.189,106.816 "/>
<polygon points="166.278,117.169 160.301,106.828 172.245,106.822 "/>
<polygon points="172.245,106.822 166.268,96.481 178.211,96.475 "/>
<polygon points="166.268,96.481 160.301,106.828 172.245,106.822 "/>
<polygon points="178.211,96.475 172.245,106.822 184.189,106.816 "/>
<polygon points="178.211,96.475 172.234,86.134 184.178,86.128 "/>
<polygon points="172.234,86.134 166.268,96.481 178.211,96.475 "/>
<polygon points="178.201,75.788 172.234,86.134 184.178,86.128 "/>
<polygon points="154.324,96.487 148.357,106.834 160.301,106.828 "/>
<polygon points="148.357,106.834 142.379,96.493 154.324,96.487 "/>
<polygon points="166.257,75.793 160.29,86.141 172.234,86.134 "/>
<polygon points="154.313,75.8 148.346,86.146 160.29,86.141 "/>
<polygon points="142.379,96.493 136.402,86.153 148.346,86.146 "/>
<polygon points="154.324,96.487 148.346,86.146 160.29,86.141 "/>
<polygon points="166.268,96.481 160.29,86.141 172.234,86.134 "/>
<polygon points="148.346,86.146 142.379,96.493 154.324,96.487 "/>
<polygon points="160.29,86.141 154.324,96.487 166.268,96.481 "/>
<polygon points="160.301,106.828 154.324,96.487 166.268,96.481 "/>
<polygon points="160.312,127.516 154.334,117.175 166.278,117.169 "/>
<polygon points="225.704,116.866 231.681,127.207 219.737,127.213 "/>
<polygon points="241.781,109.272 247.759,119.613 235.814,119.62 "/>
<polygon points="233.984,117.251 239.951,106.905 228.006,106.911 "/>
<polygon points="219.216,118.803 225.183,108.456 213.239,108.462 "/>
<polygon points="209.442,110.134 215.419,120.475 203.476,120.481 "/>
<polygon points="257.061,113.005 263.038,123.346 251.094,123.352 "/>
<polygon points="271.385,97.184 265.408,86.843 277.352,86.837 "/>
<polygon points="259.441,97.19 253.463,86.85 265.408,86.843 "/>
<polygon points="247.497,97.196 241.52,86.855 253.463,86.85 "/>
<polygon points="253.463,86.85 247.486,76.509 259.43,76.502 "/>
<polygon points="265.408,86.843 259.43,76.502 271.374,76.497 "/>
<polygon points="277.352,86.837 271.374,76.497 283.318,76.49 "/>
<polygon points="247.486,76.509 241.52,86.855 253.463,86.85 "/>
<polygon points="259.43,76.502 253.463,86.85 265.408,86.843 "/>
<polygon points="271.374,76.497 265.408,86.843 277.352,86.837 "/>
<polygon points="259.43,76.502 253.453,66.162 265.397,66.156 "/>
<polygon points="251.997,65.259 246.03,75.606 257.974,75.6 "/>
<polygon points="240.78,52.194 234.813,62.541 246.757,62.535 "/>
<polygon points="265.397,66.156 259.43,76.502 271.374,76.497 "/>
<polygon points="238.597,85.652 232.62,75.312 244.563,75.306 "/>
<polygon points="236.451,63.978 230.484,74.325 242.428,74.319 "/>
<polygon points="285.248,101.016 279.271,90.675 291.214,90.669 "/>
<polygon points="248.578,115.762 254.545,105.415 242.601,105.421 "/>
<polygon points="252.849,90.128 246.882,100.475 258.826,100.469 "/>
<polygon points="90.312,129.48 84.345,139.827 96.289,139.821 "/>
<polygon points="69.778,117.275 63.812,127.622 75.755,127.616 "/>
<polygon points="275.924,146.585 269.946,136.245 281.89,136.239 "/>
<polygon points="287.868,146.579 281.89,136.239 293.834,136.232 "/>
<polygon points="281.89,136.239 275.913,125.898 287.857,125.892 "/>
<polygon points="275.913,125.898 269.946,136.245 281.89,136.239 "/>
<polygon points="62.043,76.975 56.066,66.634 68.01,66.628 "/>
</svg>
