<?xml version="1.0" encoding="utf-8"?>
<!-- Generator: Adobe Illustrator 16.0.4, SVG Export Plug-In . SVG Version: 6.00 Build 0)  -->
<!DOCTYPE svg PUBLIC "-//W3C//DTD SVG 1.1//EN" "http://www.w3.org/Graphics/SVG/1.1/DTD/svg11.dtd">
<svg version="1.1" xmlns="http://www.w3.org/2000/svg" xmlns:xlink="http://www.w3.org/1999/xlink" x="0px" y="0px" width="400px"
	 height="400px" viewBox="0 0 400 400" enable-background="new 0 0 400 400" xml:space="preserve">
<g id="fill">
	<path fill="#0F3955" d="M38.429,85.692C93.786,7.522,197.197-19.751,283.903,20.948c86.71,40.701,131.795,137.682,107.024,230.208
		c-24.77,92.527-112.275,154.013-207.718,145.95C87.762,389.044,11.807,313.75,2.908,218.384c9.307,2.491,18.614,4.983,27.919,7.471
		c7.331,1.965,14.861-2.385,16.821-9.715c9.479,0.009,18.951,0.021,28.434,0.024c4.604-5.656,8.734-10.404,12.382-14.239
		c6.584-2.338,8.975,2.417,7.164,14.254c4.605-5.654,8.734-10.403,12.385-14.237c6.581-2.34,8.971,2.413,7.162,14.254
		c4.607-5.658,8.732-10.403,12.385-14.241c6.583-2.335,8.97,2.418,7.16,14.256c4.609-5.656,8.734-10.402,12.387-14.239
		c6.581-2.337,8.974,2.418,7.162,14.255c4.606-5.656,8.736-10.401,12.383-14.24c6.589-2.34,8.976,2.415,7.166,14.257
		c4.604-5.661,8.734-10.402,12.387-14.239c6.581-2.34,8.97,2.413,7.158,14.253c4.61-5.657,8.736-10.401,12.387-14.239
		c6.585-2.34,8.976,2.416,7.162,14.252c4.604-5.655,8.734-10.402,12.382-14.237c6.586-2.337,8.979,2.418,7.169,14.255
		c5.957,0.007,11.917,0.014,17.877,0.02c6.228,0.004,11.676-4.175,13.28-10.185c2.641-9.871,5.285-19.743,7.928-29.61
		c1.96-7.329-2.389-14.86-9.716-16.821c-61.925-16.579-123.845-33.153-185.768-49.73c1.962-7.328-2.387-14.858-9.718-16.82
		C57.043,90.677,47.735,88.184,38.429,85.692z"/>
</g>
<g id="Layer_1">
</g>
<g id="members">
</g>
<g id="bolts">
</g>
<g id="draw">
</g>
<g id="Default">
</g>
<g id="cut">
	<path fill="#0F3955" d="M23.629,110.17c3.028,0.812,6.051,1.619,9.075,2.43c7.331,1.962,11.684,9.492,9.72,16.822
		c-4.737,17.692-9.472,35.385-14.209,53.077c-1.962,7.329-9.491,11.677-16.82,9.716c-3.026-0.81-6.051-1.621-9.075-2.432
		C3.798,161.158,10.612,135.708,23.629,110.17z"/>
	
		<line fill="none" stroke="#0F3955" stroke-width="5.7546" stroke-linecap="round" stroke-linejoin="round" stroke-miterlimit="10" x1="80.382" y1="104.727" x2="48.76" y2="222.852"/>
</g>
<g id="favIcon">
</g>
<g id="_x31_31207_x5F_thank_x5F_you_x5F_note">
</g>
<g id="_x31_40227_x5F_banner">
</g>
</svg>
