<?xml version="1.0" encoding="utf-8"?>
<!-- Generator: Adobe Illustrator 16.0.4, SVG Export Plug-In . SVG Version: 6.00 Build 0)  -->
<!DOCTYPE svg PUBLIC "-//W3C//DTD SVG 1.1//EN" "http://www.w3.org/Graphics/SVG/1.1/DTD/svg11.dtd">
<svg version="1.1" xmlns="http://www.w3.org/2000/svg" xmlns:xlink="http://www.w3.org/1999/xlink" x="0px" y="0px" width="400px"
	 height="400px" viewBox="0 0 400 400" enable-background="new 0 0 400 400" xml:space="preserve">
<g id="fill">
	<g>
		<g>
			<circle fill="#0F3955" cx="200" cy="198.043" r="196.822"/>
		</g>
	</g>
</g>
<g id="Layer_1">
</g>
<g id="members">
</g>
<g id="bolts">
</g>
<g id="draw">
</g>
<g id="Default">
	<g>
		<g>
			<path fill="#FFFFFF" d="M42.292,320.806c29.624,0,29.92,19.223,56.499,19.223c24.765,0,25.743-19.246,53.761-19.246
				c23.628,0,30.174,19.246,50.409,19.246c21.329,0,28.664-19.246,50.307-19.246c20.672,0,27.257,19.246,49.339,19.246
				c25.351,0,26.817-19.271,52.661-19.271v78.022H42.292V320.806z"/>
		</g>
	</g>
	<path fill="#FFFFFF" d="M240.987,157.061C80.121,192.707,74.483,333.043,74.483,333.043s-7.304-2.509-14.318-5.823
		c-7.014-3.314-15.015-5.602-15.015-5.602S72.809,174.816,240.987,157.061"/>
</g>
<g id="cut">
</g>
<g id="favIcon">
</g>
<g id="_x31_31207_x5F_thank_x5F_you_x5F_note">
</g>
<g id="_x31_40227_x5F_banner">
</g>
</svg>
